{"glyphs":{"0":{"ha":868,"x_min":56,"x_max":813,"o":"m 217 486 q 232 629 217 564 q 276 742 247 694 q 344 815 304 789 q 435 840 385 840 q 524 815 485 840 q 592 742 564 789 q 636 629 621 694 q 651 486 651 564 q 636 343 651 408 q 592 231 621 278 q 524 158 564 183 q 435 132 485 132 q 344 158 385 132 q 276 231 304 183 q 232 343 247 278 q 217 486 217 408 m 56 486 q 103 222 56 335 q 237 47 151 110 q 435 -15 322 -15 q 633 47 549 -15 q 765 222 718 110 q 813 486 813 335 q 765 750 813 638 q 633 925 718 863 q 435 988 549 988 q 237 925 322 988 q 103 750 151 863 q 56 486 56 638 z "},"1":{"ha":658,"x_min":104,"x_max":492,"o":"m 104 744 l 331 807 l 331 0 l 492 0 l 492 988 l 104 900 l 104 744 z "},"2":{"ha":839,"x_min":28,"x_max":769,"o":"m 28 0 l 769 0 l 769 153 l 349 153 l 624 424 q 721 550 683 479 q 758 697 758 621 q 738 797 758 746 q 676 892 717 849 q 572 962 635 935 q 425 989 510 989 q 238 942 315 989 q 120 815 160 896 q 81 629 81 733 l 243 629 q 265 742 243 693 q 326 816 286 790 q 422 842 367 842 q 493 828 463 842 q 545 793 524 815 q 577 744 567 771 q 588 689 588 717 q 575 615 588 650 q 538 546 563 581 q 478 474 513 511 l 28 0 z "},"3":{"ha":800,"x_min":76,"x_max":746,"o":"m 364 476 q 547 507 467 476 q 672 594 626 538 q 718 725 718 651 q 683 856 718 797 q 581 951 647 915 q 419 988 514 988 q 263 952 331 988 q 156 856 194 917 q 118 714 118 794 l 272 714 q 315 810 272 772 q 421 849 358 849 q 494 832 465 849 q 538 785 524 815 q 553 717 553 756 q 540 658 553 686 q 502 609 526 631 q 443 576 478 588 q 364 564 408 564 l 364 476 m 413 -17 q 588 18 513 -17 q 704 115 663 53 q 746 261 746 178 q 717 385 746 333 q 635 471 688 438 q 514 519 583 504 q 364 535 444 535 l 364 442 q 453 431 414 442 q 522 399 493 419 q 565 347 550 378 q 581 278 581 317 q 560 195 581 229 q 503 143 540 161 q 415 125 465 125 q 327 144 367 125 q 265 197 288 163 q 242 278 242 232 l 76 278 q 100 165 76 218 q 167 70 124 111 q 273 6 211 29 q 413 -17 335 -17 z "},"4":{"ha":874,"x_min":25,"x_max":825,"o":"m 25 186 l 825 186 l 825 328 l 626 328 l 603 317 l 265 317 l 515 679 l 515 260 l 504 244 l 504 0 l 672 0 l 672 972 l 574 972 l 25 186 z "},"5":{"ha":829,"x_min":49,"x_max":774,"o":"m 774 317 q 734 488 774 415 q 628 600 694 560 q 481 640 561 640 q 401 632 440 640 q 326 606 363 624 l 388 828 l 764 828 l 764 972 l 264 972 l 132 438 q 224 485 182 468 q 308 508 267 501 q 392 514 349 514 q 494 492 447 514 q 569 428 542 469 q 597 326 597 386 q 573 226 597 268 q 503 160 549 183 q 392 138 457 138 q 299 156 346 138 q 214 206 253 175 q 146 276 175 238 l 49 157 q 136 72 86 111 q 255 8 186 32 q 413 -15 324 -15 q 547 5 483 -15 q 663 66 611 25 q 744 169 714 107 q 774 317 774 232 z "},"6":{"ha":853,"x_min":69,"x_max":783,"o":"m 231 328 q 256 434 231 388 q 326 506 282 481 q 426 532 371 532 q 526 506 482 532 q 597 434 571 481 q 622 328 622 388 q 597 224 622 268 q 526 153 571 179 q 426 128 482 128 q 326 153 371 128 q 256 224 282 179 q 231 328 231 268 m 460 971 l 151 557 q 92 453 115 511 q 69 328 69 396 q 117 143 69 221 q 246 24 165 65 q 426 -17 326 -17 q 607 24 526 -17 q 735 143 688 65 q 783 328 783 221 q 759 456 783 397 q 694 556 735 514 q 600 622 653 599 q 490 644 547 644 q 404 633 440 644 q 336 585 368 621 l 360 589 l 668 971 l 460 971 z "},"7":{"ha":772,"x_min":42,"x_max":768,"o":"m 42 818 l 524 818 l 125 0 l 300 0 l 768 972 l 42 972 l 42 818 z "},"8":{"ha":804,"x_min":75,"x_max":729,"o":"m 110 738 q 133 630 110 676 q 196 551 156 583 q 289 503 236 519 q 401 486 342 486 q 515 503 461 486 q 608 551 568 519 q 672 630 649 583 q 694 738 694 676 q 655 869 694 813 q 549 958 615 925 q 401 990 483 990 q 254 958 321 990 q 149 869 188 925 q 110 738 110 813 m 265 721 q 283 793 265 761 q 331 842 300 825 q 401 860 363 860 q 473 842 443 860 q 521 793 503 825 q 539 721 539 761 q 520 649 539 679 q 470 601 501 618 q 401 583 439 583 q 334 601 365 583 q 284 649 303 618 q 265 721 265 679 m 75 264 q 101 152 75 203 q 172 63 126 101 q 276 4 217 25 q 401 -17 335 -17 q 528 4 469 -17 q 633 63 588 25 q 703 152 678 101 q 729 264 729 203 q 701 388 729 335 q 626 476 674 440 q 520 528 579 511 q 401 546 461 546 q 283 528 342 546 q 178 476 225 511 q 103 388 131 440 q 75 264 75 335 m 236 286 q 259 369 236 332 q 320 428 282 407 q 401 450 358 450 q 483 428 446 450 q 544 369 521 407 q 568 286 568 332 q 544 197 568 233 q 483 142 521 161 q 401 122 446 122 q 320 142 358 122 q 259 197 282 161 q 236 286 236 233 z "},"9":{"ha":853,"x_min":69,"x_max":783,"o":"m 622 644 q 597 539 622 585 q 526 467 571 493 q 426 440 482 440 q 326 467 371 440 q 256 539 282 493 q 231 644 231 585 q 256 749 231 704 q 326 820 282 794 q 426 846 371 846 q 526 820 482 846 q 597 749 571 794 q 622 644 622 704 m 392 1 l 701 415 q 760 519 736 463 q 783 644 783 576 q 735 830 783 753 q 607 949 688 907 q 426 990 526 990 q 246 949 326 990 q 117 830 165 907 q 69 644 69 753 q 93 517 69 575 q 158 416 117 458 q 252 351 200 374 q 363 329 304 329 q 448 340 411 329 q 517 388 485 351 l 492 383 l 183 1 l 392 1 z "}," ":{"ha":417,"x_min":0,"x_max":0,"o":""}," ":{"ha":417,"x_min":0,"x_max":0,"o":""},"A":{"ha":958,"x_min":4,"x_max":956,"o":"m 225 250 l 739 250 l 708 389 l 257 389 l 225 250 m 479 697 l 635 336 l 638 296 l 769 0 l 956 0 l 479 1026 l 4 0 l 189 0 l 324 304 l 326 340 l 479 697 z "},"À":{"ha":958,"x_min":4,"x_max":956,"o":"m 225 250 l 739 250 l 708 389 l 257 389 l 225 250 m 479 697 l 635 336 l 638 296 l 769 0 l 956 0 l 479 1026 l 4 0 l 189 0 l 324 304 l 326 340 l 479 697 m 282 1318 l 532 1110 l 617 1158 l 408 1381 l 282 1318 z "},"Á":{"ha":958,"x_min":4,"x_max":956,"o":"m 225 250 l 739 250 l 708 389 l 257 389 l 225 250 m 479 697 l 635 336 l 638 296 l 769 0 l 956 0 l 479 1026 l 4 0 l 189 0 l 324 304 l 326 340 l 479 697 m 675 1318 l 549 1381 l 340 1158 l 425 1110 l 675 1318 z "},"Â":{"ha":958,"x_min":4,"x_max":956,"o":"m 225 250 l 739 250 l 708 389 l 257 389 l 225 250 m 479 697 l 635 336 l 638 296 l 769 0 l 956 0 l 479 1026 l 4 0 l 189 0 l 324 304 l 326 340 l 479 697 m 479 1194 l 622 1068 l 722 1140 l 479 1335 l 236 1140 l 338 1068 l 479 1194 z "},"Ã":{"ha":958,"x_min":4,"x_max":956,"o":"m 225 250 l 739 250 l 708 389 l 257 389 l 225 250 m 479 697 l 635 336 l 638 296 l 769 0 l 956 0 l 479 1026 l 4 0 l 189 0 l 324 304 l 326 340 l 479 697 m 233 1156 l 317 1090 q 322 1118 317 1101 q 342 1148 328 1135 q 385 1161 357 1161 q 443 1144 418 1161 q 497 1110 468 1128 q 563 1093 525 1093 q 634 1109 601 1093 q 691 1151 667 1125 q 726 1201 715 1176 l 649 1278 q 608 1226 628 1244 q 565 1208 588 1208 q 517 1219 536 1208 q 481 1243 499 1229 q 442 1267 464 1257 q 386 1276 419 1276 q 317 1260 350 1276 q 263 1217 285 1244 q 233 1156 240 1190 z "},"Ä":{"ha":958,"x_min":4,"x_max":956,"o":"m 225 250 l 739 250 l 708 389 l 257 389 l 225 250 m 479 697 l 635 336 l 638 296 l 769 0 l 956 0 l 479 1026 l 4 0 l 189 0 l 324 304 l 326 340 l 479 697 m 546 1169 q 574 1105 546 1132 q 640 1078 603 1078 q 708 1105 681 1078 q 736 1169 736 1132 q 708 1235 736 1208 q 640 1261 681 1261 q 574 1235 603 1261 q 546 1169 546 1208 m 219 1174 q 248 1108 219 1135 q 314 1082 276 1082 q 382 1108 354 1082 q 410 1174 410 1135 q 382 1238 410 1213 q 314 1264 354 1264 q 248 1238 276 1264 q 219 1174 219 1213 z "},"Å":{"ha":958,"x_min":4,"x_max":956,"o":"m 225 250 l 739 250 l 708 389 l 257 389 l 225 250 m 479 697 l 635 336 l 638 296 l 769 0 l 956 0 l 479 1026 l 4 0 l 189 0 l 324 304 l 326 340 l 479 697 m 325 1110 q 372 1003 325 1044 q 479 963 418 963 q 587 1003 540 963 q 633 1110 633 1044 q 587 1217 633 1176 q 479 1257 540 1257 q 372 1217 418 1257 q 325 1110 325 1176 m 411 1110 q 432 1162 411 1143 q 479 1181 453 1181 q 526 1162 506 1181 q 547 1110 547 1143 q 526 1058 547 1076 q 479 1039 506 1039 q 432 1058 453 1039 q 411 1110 411 1076 z "},"Ā":{"ha":958,"x_min":4,"x_max":956,"o":"m 225 250 l 739 250 l 708 389 l 257 389 l 225 250 m 479 697 l 635 336 l 638 296 l 769 0 l 956 0 l 479 1026 l 4 0 l 189 0 l 324 304 l 326 340 l 479 697 m 231 1110 l 728 1110 l 728 1244 l 231 1244 l 231 1110 z "},"Ă":{"ha":958,"x_min":4,"x_max":956,"o":"m 225 250 l 739 250 l 708 389 l 257 389 l 225 250 m 479 697 l 635 336 l 638 296 l 769 0 l 956 0 l 479 1026 l 4 0 l 189 0 l 324 304 l 326 340 l 479 697 m 257 1307 q 282 1211 257 1257 q 357 1138 307 1165 q 479 1110 407 1110 q 602 1138 553 1110 q 677 1211 651 1165 q 703 1307 703 1257 l 588 1307 q 577 1265 588 1288 q 543 1228 567 1243 q 479 1213 519 1213 q 415 1228 439 1213 q 381 1265 392 1243 q 371 1307 371 1288 l 257 1307 z "},"Ą":{"ha":958,"x_min":4,"x_max":981,"o":"m 225 250 l 739 250 l 708 389 l 257 389 l 225 250 m 479 697 l 635 336 l 638 296 l 769 0 l 956 0 l 479 1026 l 4 0 l 189 0 l 324 304 l 326 340 l 479 697 m 935 -169 q 906 -190 921 -183 q 865 -197 890 -197 q 821 -183 836 -197 q 806 -135 806 -168 q 821 -87 806 -111 q 864 -40 836 -62 q 928 0 892 -17 l 871 35 q 779 -21 822 10 q 710 -87 736 -51 q 683 -167 683 -124 q 703 -240 683 -208 q 760 -289 724 -272 q 851 -306 797 -306 q 933 -288 900 -306 q 981 -250 965 -271 l 935 -169 z "},"B":{"ha":835,"x_min":108,"x_max":768,"o":"m 233 501 l 401 501 q 564 528 494 501 q 673 605 633 554 q 713 728 713 656 q 673 865 713 811 q 564 946 633 919 q 401 972 494 972 l 108 972 l 108 0 l 418 0 q 601 30 522 0 q 724 122 679 60 q 768 281 768 185 q 740 400 768 350 q 664 482 713 450 q 552 530 615 514 q 418 546 489 546 l 233 546 l 233 454 l 408 454 q 485 445 450 454 q 546 416 519 436 q 586 367 572 396 q 600 297 600 338 q 575 208 600 243 q 507 154 550 172 q 408 136 464 136 l 272 136 l 272 838 l 390 838 q 502 804 460 838 q 544 710 544 771 q 525 641 544 669 q 471 597 506 613 q 390 582 436 582 l 233 582 l 233 501 z "},"C":{"ha":960,"x_min":53,"x_max":867,"o":"m 231 486 q 277 667 231 590 q 399 787 324 744 q 563 829 474 829 q 688 811 632 829 q 789 762 744 793 q 867 692 833 731 l 867 886 q 735 964 807 938 q 557 990 664 990 q 358 953 450 990 q 197 849 265 917 q 91 690 129 782 q 53 486 53 597 q 91 284 53 376 q 197 124 129 192 q 358 19 265 56 q 557 -17 450 -17 q 735 10 664 -17 q 867 86 807 36 l 867 282 q 789 210 833 242 q 688 161 744 179 q 563 143 632 143 q 399 186 474 143 q 277 306 324 229 q 231 486 231 383 z "},"Ç":{"ha":960,"x_min":53,"x_max":867,"o":"m 231 486 q 277 667 231 590 q 399 787 324 744 q 563 829 474 829 q 688 811 632 829 q 789 762 744 793 q 867 692 833 731 l 867 886 q 735 964 807 938 q 557 990 664 990 q 358 953 450 990 q 197 849 265 917 q 91 690 129 782 q 53 486 53 597 q 91 284 53 376 q 197 124 129 192 q 358 19 265 56 q 557 -17 450 -17 q 735 10 664 -17 q 867 86 807 36 l 867 282 q 789 210 833 242 q 688 161 744 179 q 563 143 632 143 q 399 186 474 143 q 277 306 324 229 q 231 486 231 383 m 515 76 l 396 -172 q 451 -153 424 -157 q 489 -149 479 -149 q 544 -159 524 -149 q 565 -196 565 -169 q 547 -235 565 -221 q 493 -249 529 -249 q 447 -240 469 -249 q 403 -215 425 -232 l 349 -286 q 422 -328 386 -317 q 504 -340 457 -340 q 581 -324 544 -340 q 642 -277 618 -308 q 665 -201 665 -246 q 648 -136 665 -161 q 605 -98 631 -111 q 554 -85 579 -85 q 540 -85 547 -85 q 526 -87 533 -86 l 626 74 l 515 76 z "},"Ć":{"ha":960,"x_min":53,"x_max":867,"o":"m 231 486 q 277 667 231 590 q 399 787 324 744 q 563 829 474 829 q 688 811 632 829 q 789 762 744 793 q 867 692 833 731 l 867 886 q 735 964 807 938 q 557 990 664 990 q 358 953 450 990 q 197 849 265 917 q 91 690 129 782 q 53 486 53 597 q 91 284 53 376 q 197 124 129 192 q 358 19 265 56 q 557 -17 450 -17 q 735 10 664 -17 q 867 86 807 36 l 867 282 q 789 210 833 242 q 688 161 744 179 q 563 143 632 143 q 399 186 474 143 q 277 306 324 229 q 231 486 231 383 m 738 1282 l 611 1344 l 403 1122 l 488 1074 l 738 1282 z "},"Ĉ":{"ha":960,"x_min":53,"x_max":867,"o":"m 231 486 q 277 667 231 590 q 399 787 324 744 q 563 829 474 829 q 688 811 632 829 q 789 762 744 793 q 867 692 833 731 l 867 886 q 735 964 807 938 q 557 990 664 990 q 358 953 450 990 q 197 849 265 917 q 91 690 129 782 q 53 486 53 597 q 91 284 53 376 q 197 124 129 192 q 358 19 265 56 q 557 -17 450 -17 q 735 10 664 -17 q 867 86 807 36 l 867 282 q 789 210 833 242 q 688 161 744 179 q 563 143 632 143 q 399 186 474 143 q 277 306 324 229 q 231 486 231 383 m 557 1200 l 700 1074 l 800 1146 l 557 1340 l 314 1146 l 415 1074 l 557 1200 z "},"Ċ":{"ha":960,"x_min":53,"x_max":867,"o":"m 231 486 q 277 667 231 590 q 399 787 324 744 q 563 829 474 829 q 688 811 632 829 q 789 762 744 793 q 867 692 833 731 l 867 886 q 735 964 807 938 q 557 990 664 990 q 358 953 450 990 q 197 849 265 917 q 91 690 129 782 q 53 486 53 597 q 91 284 53 376 q 197 124 129 192 q 358 19 265 56 q 557 -17 450 -17 q 735 10 664 -17 q 867 86 807 36 l 867 282 q 789 210 833 242 q 688 161 744 179 q 563 143 632 143 q 399 186 474 143 q 277 306 324 229 q 231 486 231 383 m 449 1164 q 477 1100 449 1126 q 543 1074 506 1074 q 611 1100 583 1074 q 639 1164 639 1126 q 611 1230 639 1204 q 543 1256 583 1256 q 477 1230 506 1256 q 449 1164 449 1204 z "},"Č":{"ha":960,"x_min":53,"x_max":867,"o":"m 231 486 q 277 667 231 590 q 399 787 324 744 q 563 829 474 829 q 688 811 632 829 q 789 762 744 793 q 867 692 833 731 l 867 886 q 735 964 807 938 q 557 990 664 990 q 358 953 450 990 q 197 849 265 917 q 91 690 129 782 q 53 486 53 597 q 91 284 53 376 q 197 124 129 192 q 358 19 265 56 q 557 -17 450 -17 q 735 10 664 -17 q 867 86 807 36 l 867 282 q 789 210 833 242 q 688 161 744 179 q 563 143 632 143 q 399 186 474 143 q 277 306 324 229 q 231 486 231 383 m 557 1214 l 415 1340 l 314 1268 l 557 1074 l 800 1268 l 700 1340 l 557 1214 z "},"D":{"ha":974,"x_min":108,"x_max":922,"o":"m 108 972 l 108 0 l 276 0 l 276 972 l 108 972 m 422 0 q 683 60 571 0 q 859 230 796 121 q 922 486 922 339 q 859 742 922 633 q 683 912 796 851 q 422 972 571 972 l 210 972 l 210 818 l 418 818 q 551 797 490 818 q 658 735 613 776 q 728 631 703 693 q 754 486 754 568 q 728 342 754 404 q 658 238 703 279 q 551 176 613 197 q 418 154 490 154 l 210 154 l 210 0 l 422 0 z "},"Ď":{"ha":974,"x_min":108,"x_max":922,"o":"m 108 972 l 108 0 l 276 0 l 276 972 l 108 972 m 422 0 q 683 60 571 0 q 859 230 796 121 q 922 486 922 339 q 859 742 922 633 q 683 912 796 851 q 422 972 571 972 l 210 972 l 210 818 l 418 818 q 551 797 490 818 q 658 735 613 776 q 728 631 703 693 q 754 486 754 568 q 728 342 754 404 q 658 238 703 279 q 551 176 613 197 q 418 154 490 154 l 210 154 l 210 0 l 422 0 m 483 1214 l 342 1340 l 240 1268 l 483 1074 l 726 1268 l 626 1340 l 483 1214 z "},"E":{"ha":793,"x_min":108,"x_max":700,"o":"m 210 0 l 700 0 l 700 144 l 210 144 l 210 0 m 210 828 l 700 828 l 700 972 l 210 972 l 210 828 m 210 450 l 672 450 l 672 592 l 210 592 l 210 450 m 108 972 l 108 0 l 269 0 l 269 972 l 108 972 z "},"È":{"ha":793,"x_min":108,"x_max":700,"o":"m 210 0 l 700 0 l 700 144 l 210 144 l 210 0 m 210 828 l 700 828 l 700 972 l 210 972 l 210 828 m 210 450 l 672 450 l 672 592 l 210 592 l 210 450 m 108 972 l 108 0 l 269 0 l 269 972 l 108 972 m 206 1285 l 456 1076 l 540 1125 l 332 1347 l 206 1285 z "},"É":{"ha":793,"x_min":108,"x_max":700,"o":"m 210 0 l 700 0 l 700 144 l 210 144 l 210 0 m 210 828 l 700 828 l 700 972 l 210 972 l 210 828 m 210 450 l 672 450 l 672 592 l 210 592 l 210 450 m 108 972 l 108 0 l 269 0 l 269 972 l 108 972 m 600 1285 l 474 1347 l 265 1125 l 350 1076 l 600 1285 z "},"Ê":{"ha":793,"x_min":108,"x_max":700,"o":"m 210 0 l 700 0 l 700 144 l 210 144 l 210 0 m 210 828 l 700 828 l 700 972 l 210 972 l 210 828 m 210 450 l 672 450 l 672 592 l 210 592 l 210 450 m 108 972 l 108 0 l 269 0 l 269 972 l 108 972 m 414 1200 l 557 1074 l 657 1146 l 414 1340 l 171 1146 l 272 1074 l 414 1200 z "},"Ë":{"ha":793,"x_min":108,"x_max":700,"o":"m 210 0 l 700 0 l 700 144 l 210 144 l 210 0 m 210 828 l 700 828 l 700 972 l 210 972 l 210 828 m 210 450 l 672 450 l 672 592 l 210 592 l 210 450 m 108 972 l 108 0 l 269 0 l 269 972 l 108 972 m 471 1185 q 499 1121 471 1147 q 565 1094 526 1094 q 633 1121 606 1094 q 660 1185 660 1147 q 633 1251 660 1225 q 565 1276 606 1276 q 499 1251 526 1276 q 471 1185 471 1225 m 168 1185 q 197 1121 168 1147 q 264 1094 225 1094 q 331 1121 303 1094 q 358 1185 358 1147 q 331 1251 358 1225 q 264 1276 303 1276 q 197 1251 225 1276 q 168 1185 168 1225 z "},"Ē":{"ha":793,"x_min":108,"x_max":700,"o":"m 210 0 l 700 0 l 700 144 l 210 144 l 210 0 m 210 828 l 700 828 l 700 972 l 210 972 l 210 828 m 210 450 l 672 450 l 672 592 l 210 592 l 210 450 m 108 972 l 108 0 l 269 0 l 269 972 l 108 972 m 154 1074 l 653 1074 l 653 1208 l 154 1208 l 154 1074 z "},"Ĕ":{"ha":793,"x_min":108,"x_max":700,"o":"m 210 0 l 700 0 l 700 144 l 210 144 l 210 0 m 210 828 l 700 828 l 700 972 l 210 972 l 210 828 m 210 450 l 672 450 l 672 592 l 210 592 l 210 450 m 108 972 l 108 0 l 269 0 l 269 972 l 108 972 m 181 1271 q 206 1175 181 1221 q 281 1101 231 1129 q 404 1074 332 1074 q 527 1101 478 1074 q 601 1175 576 1129 q 626 1271 626 1221 l 513 1271 q 502 1228 513 1250 q 467 1191 492 1207 q 404 1175 443 1175 q 340 1191 364 1175 q 305 1228 315 1207 q 294 1271 294 1250 l 181 1271 z "},"Ė":{"ha":793,"x_min":108,"x_max":700,"o":"m 210 0 l 700 0 l 700 144 l 210 144 l 210 0 m 210 828 l 700 828 l 700 972 l 210 972 l 210 828 m 210 450 l 672 450 l 672 592 l 210 592 l 210 450 m 108 972 l 108 0 l 269 0 l 269 972 l 108 972 m 308 1164 q 337 1100 308 1126 q 404 1074 365 1074 q 471 1100 443 1074 q 499 1164 499 1126 q 471 1230 499 1204 q 404 1256 443 1256 q 337 1230 365 1256 q 308 1164 308 1204 z "},"Ę":{"ha":793,"x_min":108,"x_max":700,"o":"m 210 0 l 700 0 l 700 144 l 210 144 l 210 0 m 210 828 l 700 828 l 700 972 l 210 972 l 210 828 m 210 450 l 672 450 l 672 592 l 210 592 l 210 450 m 108 972 l 108 0 l 269 0 l 269 972 l 108 972 m 526 -169 q 497 -190 513 -183 q 457 -197 482 -197 q 413 -183 429 -197 q 397 -135 397 -168 q 413 -87 397 -111 q 456 -40 428 -62 q 519 0 483 -17 l 463 35 q 372 -21 414 10 q 302 -87 329 -51 q 275 -167 275 -124 q 295 -240 275 -208 q 353 -289 315 -272 q 443 -306 390 -306 q 525 -288 493 -306 q 572 -250 557 -271 l 526 -169 z "},"Ě":{"ha":793,"x_min":108,"x_max":700,"o":"m 210 0 l 700 0 l 700 144 l 210 144 l 210 0 m 210 828 l 700 828 l 700 972 l 210 972 l 210 828 m 210 450 l 672 450 l 672 592 l 210 592 l 210 450 m 108 972 l 108 0 l 269 0 l 269 972 l 108 972 m 404 1214 l 261 1340 l 161 1268 l 404 1074 l 647 1268 l 546 1340 l 404 1214 z "},"F":{"ha":724,"x_min":108,"x_max":644,"o":"m 210 825 l 644 825 l 644 972 l 210 972 l 210 825 m 210 439 l 631 439 l 631 582 l 210 582 l 210 439 m 108 972 l 108 0 l 269 0 l 269 972 l 108 972 z "},"G":{"ha":1099,"x_min":53,"x_max":1042,"o":"m 571 369 l 869 369 q 832 278 857 321 q 769 201 807 235 q 681 150 732 168 q 564 132 629 132 q 392 176 468 132 q 271 301 315 221 q 226 486 226 381 q 272 672 226 593 q 394 794 317 750 q 564 838 471 838 q 737 796 665 838 q 849 685 808 754 l 982 774 q 878 890 939 842 q 738 964 817 938 q 564 990 660 990 q 361 953 454 990 q 199 849 268 917 q 91 690 129 782 q 53 486 53 597 q 90 282 53 375 q 197 121 128 189 q 358 16 265 53 q 561 -21 451 -21 q 768 22 678 -21 q 919 138 858 64 q 1011 306 981 211 q 1039 508 1042 401 l 571 508 l 571 369 z "},"Ĝ":{"ha":1099,"x_min":53,"x_max":1042,"o":"m 571 369 l 869 369 q 832 278 857 321 q 769 201 807 235 q 681 150 732 168 q 564 132 629 132 q 392 176 468 132 q 271 301 315 221 q 226 486 226 381 q 272 672 226 593 q 394 794 317 750 q 564 838 471 838 q 737 796 665 838 q 849 685 808 754 l 982 774 q 878 890 939 842 q 738 964 817 938 q 564 990 660 990 q 361 953 454 990 q 199 849 268 917 q 91 690 129 782 q 53 486 53 597 q 90 282 53 375 q 197 121 128 189 q 358 16 265 53 q 561 -21 451 -21 q 768 22 678 -21 q 919 138 858 64 q 1011 306 981 211 q 1039 508 1042 401 l 571 508 l 571 369 m 564 1200 l 707 1074 l 807 1146 l 564 1340 l 321 1146 l 422 1074 l 564 1200 z "},"Ğ":{"ha":1099,"x_min":53,"x_max":1042,"o":"m 571 369 l 869 369 q 832 278 857 321 q 769 201 807 235 q 681 150 732 168 q 564 132 629 132 q 392 176 468 132 q 271 301 315 221 q 226 486 226 381 q 272 672 226 593 q 394 794 317 750 q 564 838 471 838 q 737 796 665 838 q 849 685 808 754 l 982 774 q 878 890 939 842 q 738 964 817 938 q 564 990 660 990 q 361 953 454 990 q 199 849 268 917 q 91 690 129 782 q 53 486 53 597 q 90 282 53 375 q 197 121 128 189 q 358 16 265 53 q 561 -21 451 -21 q 768 22 678 -21 q 919 138 858 64 q 1011 306 981 211 q 1039 508 1042 401 l 571 508 l 571 369 m 342 1271 q 367 1175 342 1221 q 442 1101 392 1129 q 564 1074 492 1074 q 688 1101 638 1074 q 763 1175 738 1129 q 788 1271 788 1221 l 674 1271 q 663 1228 674 1250 q 628 1191 653 1207 q 564 1175 604 1175 q 501 1191 525 1175 q 466 1228 476 1207 q 456 1271 456 1250 l 342 1271 z "},"Ġ":{"ha":1099,"x_min":53,"x_max":1042,"o":"m 571 369 l 869 369 q 832 278 857 321 q 769 201 807 235 q 681 150 732 168 q 564 132 629 132 q 392 176 468 132 q 271 301 315 221 q 226 486 226 381 q 272 672 226 593 q 394 794 317 750 q 564 838 471 838 q 737 796 665 838 q 849 685 808 754 l 982 774 q 878 890 939 842 q 738 964 817 938 q 564 990 660 990 q 361 953 454 990 q 199 849 268 917 q 91 690 129 782 q 53 486 53 597 q 90 282 53 375 q 197 121 128 189 q 358 16 265 53 q 561 -21 451 -21 q 768 22 678 -21 q 919 138 858 64 q 1011 306 981 211 q 1039 508 1042 401 l 571 508 l 571 369 m 469 1164 q 498 1100 469 1126 q 564 1074 526 1074 q 632 1100 604 1074 q 660 1164 660 1126 q 632 1230 660 1204 q 564 1256 604 1256 q 498 1230 526 1256 q 469 1164 469 1204 z "},"Ģ":{"ha":1099,"x_min":53,"x_max":1042,"o":"m 571 369 l 869 369 q 832 278 857 321 q 769 201 807 235 q 681 150 732 168 q 564 132 629 132 q 392 176 468 132 q 271 301 315 221 q 226 486 226 381 q 272 672 226 593 q 394 794 317 750 q 564 838 471 838 q 737 796 665 838 q 849 685 808 754 l 982 774 q 878 890 939 842 q 738 964 817 938 q 564 990 660 990 q 361 953 454 990 q 199 849 268 917 q 91 690 129 782 q 53 486 53 597 q 90 282 53 375 q 197 121 128 189 q 358 16 265 53 q 561 -21 451 -21 q 768 22 678 -21 q 919 138 858 64 q 1011 306 981 211 q 1039 508 1042 401 l 571 508 l 571 369 m 529 -104 l 407 -464 l 519 -494 l 681 -147 l 529 -104 z "},"H":{"ha":1033,"x_min":108,"x_max":925,"o":"m 174 446 l 868 446 l 868 597 l 174 597 l 174 446 m 761 972 l 761 0 l 925 0 l 925 972 l 761 972 m 108 972 l 108 0 l 272 0 l 272 972 l 108 972 z "},"Ĥ":{"ha":1033,"x_min":108,"x_max":925,"o":"m 174 446 l 868 446 l 868 597 l 174 597 l 174 446 m 761 972 l 761 0 l 925 0 l 925 972 l 761 972 m 108 972 l 108 0 l 272 0 l 272 972 l 108 972 m 517 1200 l 660 1074 l 760 1146 l 517 1340 l 274 1146 l 375 1074 l 517 1200 z "},"I":{"ha":382,"x_min":108,"x_max":275,"o":"m 108 972 l 108 0 l 275 0 l 275 972 l 108 972 z "},"Ì":{"ha":382,"x_min":-11,"x_max":325,"o":"m 108 972 l 108 0 l 275 0 l 275 972 l 108 972 m -11 1285 l 239 1076 l 325 1125 l 117 1347 l -11 1285 z "},"Í":{"ha":382,"x_min":50,"x_max":383,"o":"m 108 972 l 108 0 l 275 0 l 275 972 l 108 972 m 383 1285 l 258 1347 l 50 1125 l 133 1076 l 383 1285 z "},"Î":{"ha":382,"x_min":-53,"x_max":433,"o":"m 108 972 l 108 0 l 275 0 l 275 972 l 108 972 m 190 1200 l 333 1074 l 433 1146 l 190 1340 l -53 1146 l 49 1074 l 190 1200 z "},"Ï":{"ha":382,"x_min":-54,"x_max":438,"o":"m 108 972 l 108 0 l 275 0 l 275 972 l 108 972 m 249 1164 q 276 1100 249 1126 q 342 1074 303 1074 q 410 1100 382 1074 q 438 1164 438 1126 q 410 1230 438 1204 q 342 1256 382 1256 q 276 1230 303 1256 q 249 1164 249 1204 m -54 1164 q -26 1100 -54 1126 q 40 1074 1 1074 q 108 1100 79 1074 q 136 1164 136 1126 q 108 1230 136 1204 q 40 1256 79 1256 q -26 1230 1 1256 q -54 1164 -54 1204 z "},"Ĩ":{"ha":382,"x_min":-54,"x_max":439,"o":"m 108 972 l 108 0 l 275 0 l 275 972 l 108 972 m -54 1140 l 29 1075 q 35 1103 29 1086 q 55 1133 40 1119 q 97 1146 69 1146 q 156 1129 131 1146 q 209 1095 181 1113 q 275 1078 238 1078 q 347 1094 314 1078 q 403 1135 379 1110 q 439 1186 428 1161 l 361 1263 q 320 1211 340 1229 q 278 1193 300 1193 q 230 1203 249 1193 q 194 1227 211 1214 q 154 1251 176 1240 q 99 1261 132 1261 q 30 1245 63 1261 q -25 1202 -3 1229 q -54 1140 -47 1175 z "},"Ī":{"ha":382,"x_min":-57,"x_max":440,"o":"m 108 972 l 108 0 l 275 0 l 275 972 l 108 972 m -57 1074 l 440 1074 l 440 1208 l -57 1208 l -57 1074 z "},"Ĭ":{"ha":382,"x_min":-32,"x_max":414,"o":"m 108 972 l 108 0 l 275 0 l 275 972 l 108 972 m -32 1271 q -6 1175 -32 1221 q 69 1101 19 1129 q 192 1074 119 1074 q 315 1101 265 1074 q 389 1175 364 1129 q 414 1271 414 1221 l 300 1271 q 290 1228 300 1250 q 256 1191 279 1207 q 192 1175 232 1175 q 128 1191 151 1175 q 94 1228 104 1207 q 83 1271 83 1250 l -32 1271 z "},"Į":{"ha":382,"x_min":17,"x_max":313,"o":"m 108 972 l 108 0 l 275 0 l 275 972 l 108 972 m 267 -169 q 238 -190 253 -183 q 197 -197 222 -197 q 153 -182 169 -197 q 138 -135 138 -167 q 153 -85 138 -110 q 197 -38 169 -61 q 260 1 224 -15 l 203 36 q 112 -19 154 11 q 43 -86 69 -50 q 17 -165 17 -122 q 37 -239 17 -207 q 94 -287 57 -271 q 183 -304 131 -304 q 265 -287 233 -304 q 313 -249 297 -269 l 267 -169 z "},"İ":{"ha":382,"x_min":96,"x_max":285,"o":"m 108 972 l 108 0 l 275 0 l 275 972 l 108 972 m 96 1164 q 124 1100 96 1126 q 190 1074 151 1074 q 258 1100 231 1074 q 285 1164 285 1126 q 258 1230 285 1204 q 190 1256 231 1256 q 124 1230 151 1256 q 96 1164 96 1204 z "},"J":{"ha":383,"x_min":-183,"x_max":276,"o":"m -96 -122 l -183 -243 q -135 -275 -165 -258 q -63 -303 -104 -292 q 21 -315 -22 -315 q 122 -302 75 -315 q 204 -260 169 -289 q 258 -186 239 -231 q 276 -79 276 -142 l 276 972 l 108 972 l 108 -50 q 78 -142 108 -115 q 15 -169 47 -169 q -49 -156 -19 -169 q -96 -122 -78 -143 z "},"Ĵ":{"ha":383,"x_min":-183,"x_max":435,"o":"m -96 -122 l -183 -243 q -135 -275 -165 -258 q -63 -303 -104 -292 q 21 -315 -22 -315 q 122 -302 75 -315 q 204 -260 169 -289 q 258 -186 239 -231 q 276 -79 276 -142 l 276 972 l 108 972 l 108 -50 q 78 -142 108 -115 q 15 -169 47 -169 q -49 -156 -19 -169 q -96 -122 -78 -143 m 192 1200 l 335 1074 l 435 1146 l 192 1340 l -51 1146 l 50 1074 l 192 1200 z "},"K":{"ha":860,"x_min":108,"x_max":857,"o":"m 108 972 l 108 0 l 276 0 l 276 972 l 108 972 m 638 972 l 228 513 l 654 0 l 857 0 l 425 517 l 836 972 l 638 972 z "},"Ķ":{"ha":860,"x_min":108,"x_max":857,"o":"m 108 972 l 108 0 l 276 0 l 276 972 l 108 972 m 638 972 l 228 513 l 654 0 l 857 0 l 425 517 l 836 972 l 638 972 m 454 -83 l 332 -443 l 443 -474 l 606 -126 l 454 -83 z "},"L":{"ha":668,"x_min":108,"x_max":658,"o":"m 108 972 l 108 0 l 658 0 l 658 147 l 272 147 l 272 972 l 108 972 z "},"Ĺ":{"ha":668,"x_min":108,"x_max":658,"o":"m 108 972 l 108 0 l 658 0 l 658 147 l 272 147 l 272 972 l 108 972 m 581 1282 l 454 1344 l 246 1122 l 331 1074 l 581 1282 z "},"Ļ":{"ha":668,"x_min":108,"x_max":658,"o":"m 108 972 l 108 0 l 658 0 l 658 147 l 272 147 l 272 972 l 108 972 m 368 -83 l 246 -443 l 358 -474 l 519 -126 l 368 -83 z "},"Ľ":{"ha":668,"x_min":108,"x_max":658,"o":"m 108 972 l 108 0 l 658 0 l 658 147 l 272 147 l 272 972 l 108 972 m 503 990 l 381 631 l 492 600 l 654 947 l 503 990 z "},"M":{"ha":1171,"x_min":53,"x_max":1118,"o":"m 289 592 l 585 90 l 882 592 l 949 0 l 1118 0 l 985 1021 l 585 361 l 186 1021 l 53 0 l 222 0 l 289 592 z "},"N":{"ha":1088,"x_min":108,"x_max":979,"o":"m 818 972 l 818 319 l 108 1021 l 108 0 l 269 0 l 269 653 l 979 -49 l 979 972 l 818 972 z "},"Ñ":{"ha":1088,"x_min":108,"x_max":979,"o":"m 818 972 l 818 319 l 108 1021 l 108 0 l 269 0 l 269 653 l 979 -49 l 979 972 l 818 972 m 275 1124 l 358 1058 q 364 1086 358 1069 q 384 1116 369 1103 q 426 1129 399 1129 q 485 1112 460 1129 q 538 1077 510 1094 q 604 1060 567 1060 q 676 1076 643 1060 q 733 1118 708 1093 q 768 1168 757 1143 l 690 1246 q 649 1194 669 1213 q 607 1176 629 1176 q 559 1186 578 1176 q 523 1210 540 1196 q 483 1234 506 1224 q 428 1244 461 1244 q 359 1228 392 1244 q 304 1185 326 1211 q 275 1124 282 1158 z "},"Ń":{"ha":1088,"x_min":108,"x_max":979,"o":"m 818 972 l 818 319 l 108 1021 l 108 0 l 269 0 l 269 653 l 979 -49 l 979 972 l 818 972 m 771 1261 l 644 1324 l 436 1101 l 521 1053 l 771 1261 z "},"Ņ":{"ha":1088,"x_min":108,"x_max":979,"o":"m 535 -58 l 413 -418 l 524 -449 l 685 -101 l 535 -58 m 818 972 l 818 319 l 108 1021 l 108 0 l 269 0 l 269 653 l 979 -49 l 979 972 l 818 972 z "},"Ň":{"ha":1088,"x_min":108,"x_max":979,"o":"m 542 1235 l 400 1361 l 299 1289 l 542 1094 l 785 1289 l 685 1361 l 542 1235 m 818 972 l 818 319 l 108 1021 l 108 0 l 269 0 l 269 653 l 979 -49 l 979 972 l 818 972 z "},"O":{"ha":1115,"x_min":53,"x_max":1063,"o":"m 226 486 q 269 665 226 586 q 387 788 313 743 q 557 832 461 832 q 730 788 656 832 q 846 665 804 743 q 888 486 888 586 q 845 308 888 386 q 728 185 803 231 q 557 140 654 140 q 387 185 461 140 q 269 308 313 231 q 226 486 226 386 m 53 486 q 90 285 53 378 q 196 124 128 192 q 356 17 264 56 q 557 -21 449 -21 q 760 17 668 -21 q 919 124 851 56 q 1025 285 988 192 q 1063 486 1063 378 q 1025 688 1063 596 q 919 847 988 779 q 758 952 850 914 q 557 990 667 990 q 358 952 450 990 q 197 847 265 914 q 90 688 128 779 q 53 486 53 596 z "},"Ò":{"ha":1115,"x_min":53,"x_max":1063,"o":"m 226 486 q 269 665 226 586 q 387 788 313 743 q 557 832 461 832 q 730 788 656 832 q 846 665 804 743 q 888 486 888 586 q 845 308 888 386 q 728 185 803 231 q 557 140 654 140 q 387 185 461 140 q 269 308 313 231 q 226 486 226 386 m 53 486 q 90 285 53 378 q 196 124 128 192 q 356 17 264 56 q 557 -21 449 -21 q 760 17 668 -21 q 919 124 851 56 q 1025 285 988 192 q 1063 486 1063 378 q 1025 688 1063 596 q 919 847 988 779 q 758 952 850 914 q 557 990 667 990 q 358 952 450 990 q 197 847 265 914 q 90 688 128 779 q 53 486 53 596 m 375 1285 l 625 1076 l 710 1125 l 501 1347 l 375 1285 z "},"Ó":{"ha":1115,"x_min":53,"x_max":1063,"o":"m 226 486 q 269 665 226 586 q 387 788 313 743 q 557 832 461 832 q 730 788 656 832 q 846 665 804 743 q 888 486 888 586 q 845 308 888 386 q 728 185 803 231 q 557 140 654 140 q 387 185 461 140 q 269 308 313 231 q 226 486 226 386 m 53 486 q 90 285 53 378 q 196 124 128 192 q 356 17 264 56 q 557 -21 449 -21 q 760 17 668 -21 q 919 124 851 56 q 1025 285 988 192 q 1063 486 1063 378 q 1025 688 1063 596 q 919 847 988 779 q 758 952 850 914 q 557 990 667 990 q 358 952 450 990 q 197 847 265 914 q 90 688 128 779 q 53 486 53 596 m 749 1285 l 622 1347 l 414 1125 l 499 1076 l 749 1285 z "},"Ô":{"ha":1115,"x_min":53,"x_max":1063,"o":"m 226 486 q 269 665 226 586 q 387 788 313 743 q 557 832 461 832 q 730 788 656 832 q 846 665 804 743 q 888 486 888 586 q 845 308 888 386 q 728 185 803 231 q 557 140 654 140 q 387 185 461 140 q 269 308 313 231 q 226 486 226 386 m 53 486 q 90 285 53 378 q 196 124 128 192 q 356 17 264 56 q 557 -21 449 -21 q 760 17 668 -21 q 919 124 851 56 q 1025 285 988 192 q 1063 486 1063 378 q 1025 688 1063 596 q 919 847 988 779 q 758 952 850 914 q 557 990 667 990 q 358 952 450 990 q 197 847 265 914 q 90 688 128 779 q 53 486 53 596 m 563 1200 l 706 1074 l 806 1146 l 563 1340 l 319 1146 l 421 1074 l 563 1200 z "},"Õ":{"ha":1115,"x_min":53,"x_max":1063,"o":"m 226 486 q 269 665 226 586 q 387 788 313 743 q 557 832 461 832 q 730 788 656 832 q 846 665 804 743 q 888 486 888 586 q 845 308 888 386 q 728 185 803 231 q 557 140 654 140 q 387 185 461 140 q 269 308 313 231 q 226 486 226 386 m 53 486 q 90 285 53 378 q 196 124 128 192 q 356 17 264 56 q 557 -21 449 -21 q 760 17 668 -21 q 919 124 851 56 q 1025 285 988 192 q 1063 486 1063 378 q 1025 688 1063 596 q 919 847 988 779 q 758 952 850 914 q 557 990 667 990 q 358 952 450 990 q 197 847 265 914 q 90 688 128 779 q 53 486 53 596 m 314 1139 l 399 1074 q 404 1101 399 1085 q 424 1131 410 1118 q 467 1144 439 1144 q 524 1127 499 1144 q 578 1092 550 1110 q 644 1075 607 1075 q 716 1092 683 1075 q 772 1133 749 1108 q 807 1183 796 1158 l 729 1261 q 689 1210 708 1228 q 647 1192 669 1192 q 599 1202 618 1192 q 563 1226 581 1213 q 524 1249 546 1239 q 468 1260 501 1260 q 399 1243 432 1260 q 343 1200 365 1226 q 314 1139 321 1174 z "},"Ö":{"ha":1115,"x_min":53,"x_max":1063,"o":"m 226 486 q 269 665 226 586 q 387 788 313 743 q 557 832 461 832 q 730 788 656 832 q 846 665 804 743 q 888 486 888 586 q 845 308 888 386 q 728 185 803 231 q 557 140 654 140 q 387 185 461 140 q 269 308 313 231 q 226 486 226 386 m 53 486 q 90 285 53 378 q 196 124 128 192 q 356 17 264 56 q 557 -21 449 -21 q 760 17 668 -21 q 919 124 851 56 q 1025 285 988 192 q 1063 486 1063 378 q 1025 688 1063 596 q 919 847 988 779 q 758 952 850 914 q 557 990 667 990 q 358 952 450 990 q 197 847 265 914 q 90 688 128 779 q 53 486 53 596 m 614 1164 q 642 1100 614 1126 q 708 1074 669 1074 q 776 1100 749 1074 q 803 1164 803 1126 q 776 1230 803 1204 q 708 1256 749 1256 q 642 1230 669 1256 q 614 1164 614 1204 m 311 1164 q 340 1100 311 1126 q 407 1074 368 1074 q 474 1100 446 1074 q 501 1164 501 1126 q 474 1230 501 1204 q 407 1256 446 1256 q 340 1230 368 1256 q 311 1164 311 1204 z "},"Ō":{"ha":1115,"x_min":53,"x_max":1063,"o":"m 226 486 q 269 665 226 586 q 387 788 313 743 q 557 832 461 832 q 730 788 656 832 q 846 665 804 743 q 888 486 888 586 q 845 308 888 386 q 728 185 803 231 q 557 140 654 140 q 387 185 461 140 q 269 308 313 231 q 226 486 226 386 m 53 486 q 90 285 53 378 q 196 124 128 192 q 356 17 264 56 q 557 -21 449 -21 q 760 17 668 -21 q 919 124 851 56 q 1025 285 988 192 q 1063 486 1063 378 q 1025 688 1063 596 q 919 847 988 779 q 758 952 850 914 q 557 990 667 990 q 358 952 450 990 q 197 847 265 914 q 90 688 128 779 q 53 486 53 596 m 308 1074 l 807 1074 l 807 1208 l 308 1208 l 308 1074 z "},"Ŏ":{"ha":1115,"x_min":53,"x_max":1063,"o":"m 226 486 q 269 665 226 586 q 387 788 313 743 q 557 832 461 832 q 730 788 656 832 q 846 665 804 743 q 888 486 888 586 q 845 308 888 386 q 728 185 803 231 q 557 140 654 140 q 387 185 461 140 q 269 308 313 231 q 226 486 226 386 m 53 486 q 90 285 53 378 q 196 124 128 192 q 356 17 264 56 q 557 -21 449 -21 q 760 17 668 -21 q 919 124 851 56 q 1025 285 988 192 q 1063 486 1063 378 q 1025 688 1063 596 q 919 847 988 779 q 758 952 850 914 q 557 990 667 990 q 358 952 450 990 q 197 847 265 914 q 90 688 128 779 q 53 486 53 596 m 335 1271 q 360 1175 335 1221 q 435 1101 385 1129 q 557 1074 485 1074 q 681 1101 631 1074 q 756 1175 731 1129 q 781 1271 781 1221 l 667 1271 q 656 1228 667 1250 q 622 1191 646 1207 q 557 1175 597 1175 q 494 1191 518 1175 q 459 1228 469 1207 q 449 1271 449 1250 l 335 1271 z "},"Ő":{"ha":1115,"x_min":53,"x_max":1063,"o":"m 438 1074 l 631 1335 l 493 1368 l 343 1101 l 438 1074 m 678 1074 l 872 1335 l 733 1368 l 585 1101 l 678 1074 m 226 486 q 269 665 226 586 q 387 788 313 743 q 557 832 461 832 q 730 788 656 832 q 846 665 804 743 q 888 486 888 586 q 845 308 888 386 q 728 185 803 231 q 557 140 654 140 q 387 185 461 140 q 269 308 313 231 q 226 486 226 386 m 53 486 q 90 285 53 378 q 196 124 128 192 q 356 17 264 56 q 557 -21 449 -21 q 760 17 668 -21 q 919 124 851 56 q 1025 285 988 192 q 1063 486 1063 378 q 1025 688 1063 596 q 919 847 988 779 q 758 952 850 914 q 557 990 667 990 q 358 952 450 990 q 197 847 265 914 q 90 688 128 779 q 53 486 53 596 z "},"P":{"ha":803,"x_min":108,"x_max":751,"o":"m 108 972 l 108 0 l 272 0 l 272 972 l 108 972 m 206 828 l 401 828 q 538 788 486 828 q 589 671 589 749 q 538 553 589 593 q 401 513 486 513 l 206 513 l 206 368 l 401 368 q 586 405 508 368 q 708 510 664 442 q 751 671 751 578 q 708 831 751 764 q 586 935 664 899 q 401 972 508 972 l 206 972 l 206 828 z "},"Q":{"ha":1139,"x_min":53,"x_max":1140,"o":"m 226 486 q 269 665 226 586 q 388 788 313 743 q 560 832 463 832 q 737 785 661 832 q 856 657 813 738 q 899 476 899 576 q 856 299 899 376 q 738 177 813 221 q 567 133 664 133 q 393 178 469 133 q 272 303 317 224 q 226 486 226 383 m 53 486 q 90 285 53 378 q 197 124 128 192 q 358 17 265 56 q 560 -21 450 -21 q 761 17 669 -21 q 921 124 853 56 q 1026 285 989 192 q 1063 486 1063 378 q 1025 688 1063 596 q 919 847 988 779 q 760 952 851 914 q 560 990 668 990 q 359 952 451 990 q 198 847 267 914 q 91 688 129 779 q 53 486 53 596 m 514 417 l 949 -7 l 1140 -7 l 703 417 l 514 417 z "},"R":{"ha":826,"x_min":108,"x_max":817,"o":"m 310 464 l 618 0 l 817 0 l 486 464 l 310 464 m 108 972 l 108 0 l 272 0 l 272 972 l 108 972 m 206 831 l 401 831 q 500 811 458 831 q 565 756 542 792 q 589 667 589 719 q 565 578 589 615 q 500 523 542 542 q 401 504 458 504 l 206 504 l 206 368 l 408 368 q 593 406 515 368 q 715 511 671 443 q 758 671 758 579 q 715 830 758 763 q 593 935 671 897 q 408 972 515 972 l 206 972 l 206 831 z "},"Ŕ":{"ha":826,"x_min":108,"x_max":817,"o":"m 310 464 l 618 0 l 817 0 l 486 464 l 310 464 m 108 972 l 108 0 l 272 0 l 272 972 l 108 972 m 206 831 l 401 831 q 500 811 458 831 q 565 756 542 792 q 589 667 589 719 q 565 578 589 615 q 500 523 542 542 q 401 504 458 504 l 206 504 l 206 368 l 408 368 q 593 406 515 368 q 715 511 671 443 q 758 671 758 579 q 715 830 758 763 q 593 935 671 897 q 408 972 515 972 l 206 972 l 206 831 m 599 1282 l 472 1344 l 264 1122 l 349 1074 l 599 1282 z "},"Ŗ":{"ha":826,"x_min":108,"x_max":817,"o":"m 310 464 l 618 0 l 817 0 l 486 464 l 310 464 m 108 972 l 108 0 l 272 0 l 272 972 l 108 972 m 206 831 l 401 831 q 500 811 458 831 q 565 756 542 792 q 589 667 589 719 q 565 578 589 615 q 500 523 542 542 q 401 504 458 504 l 206 504 l 206 368 l 408 368 q 593 406 515 368 q 715 511 671 443 q 758 671 758 579 q 715 830 758 763 q 593 935 671 897 q 408 972 515 972 l 206 972 l 206 831 m 447 -83 l 325 -443 l 438 -474 l 599 -126 l 447 -83 z "},"Ř":{"ha":826,"x_min":108,"x_max":817,"o":"m 310 464 l 618 0 l 817 0 l 486 464 l 310 464 m 108 972 l 108 0 l 272 0 l 272 972 l 108 972 m 206 831 l 401 831 q 500 811 458 831 q 565 756 542 792 q 589 667 589 719 q 565 578 589 615 q 500 523 542 542 q 401 504 458 504 l 206 504 l 206 368 l 408 368 q 593 406 515 368 q 715 511 671 443 q 758 671 758 579 q 715 830 758 763 q 593 935 671 897 q 408 972 515 972 l 206 972 l 206 831 m 386 1214 l 244 1340 l 143 1268 l 386 1074 l 629 1268 l 529 1340 l 386 1214 z "},"Ȓ":{"ha":826,"x_min":108,"x_max":817,"o":"m 310 464 l 618 0 l 817 0 l 486 464 l 310 464 m 108 972 l 108 0 l 272 0 l 272 972 l 108 972 m 206 831 l 401 831 q 500 811 458 831 q 565 756 542 792 q 589 667 589 719 q 565 578 589 615 q 500 523 542 542 q 401 504 458 504 l 206 504 l 206 368 l 408 368 q 593 406 515 368 q 715 511 671 443 q 758 671 758 579 q 715 830 758 763 q 593 935 671 897 q 408 972 515 972 l 206 972 l 206 831 m 188 1074 q 213 1170 188 1125 q 289 1243 239 1215 q 411 1271 339 1271 q 534 1243 485 1271 q 608 1170 583 1215 q 633 1074 633 1125 l 519 1074 q 509 1116 519 1094 q 475 1153 499 1138 q 411 1168 451 1168 q 347 1153 371 1168 q 313 1116 324 1138 q 303 1074 303 1094 l 188 1074 z "},"S":{"ha":804,"x_min":50,"x_max":746,"o":"m 172 314 l 50 228 q 137 104 82 161 q 265 13 192 47 q 422 -21 338 -21 q 542 -1 485 -21 q 646 56 600 19 q 719 147 692 93 q 746 269 746 201 q 724 381 746 333 q 666 464 701 429 q 587 522 631 499 q 499 561 543 546 q 372 615 421 589 q 301 672 324 642 q 278 739 278 701 q 310 812 278 781 q 410 843 342 843 q 495 824 458 843 q 560 774 532 806 q 607 707 588 743 l 739 782 q 671 881 715 833 q 563 959 626 928 q 413 990 499 990 q 256 957 325 990 q 147 865 188 924 q 107 728 107 806 q 133 612 107 660 q 200 531 160 564 q 285 477 240 499 q 365 443 329 456 q 474 398 426 421 q 547 342 521 375 q 572 257 572 310 q 531 163 572 199 q 422 126 489 126 q 323 150 368 126 q 241 215 278 174 q 172 314 204 257 z "},"Ś":{"ha":804,"x_min":53,"x_max":746,"o":"m 179 328 l 53 246 q 138 106 83 165 q 264 13 192 46 q 419 -21 336 -21 q 596 14 524 -21 q 707 114 668 49 q 746 268 746 179 q 724 381 746 333 q 665 463 701 429 q 585 521 629 497 q 499 560 542 544 q 390 604 440 582 q 307 656 339 626 q 275 726 275 685 q 292 788 275 763 q 340 828 308 814 q 415 843 372 843 q 497 824 463 843 q 558 772 532 804 q 604 700 583 739 l 732 779 q 671 878 713 829 q 565 958 629 926 q 410 990 500 990 q 253 958 322 990 q 144 869 183 926 q 104 735 104 811 q 130 620 104 668 q 194 540 156 572 q 277 485 233 507 q 356 450 321 463 q 460 406 411 429 q 541 348 510 382 q 572 260 572 314 q 556 188 572 218 q 506 143 539 158 q 425 128 474 128 q 347 142 382 128 q 283 181 313 156 q 228 243 253 206 q 179 328 203 281 m 660 1282 l 533 1344 l 325 1122 l 410 1074 l 660 1282 z "},"Ŝ":{"ha":804,"x_min":53,"x_max":746,"o":"m 179 328 l 53 246 q 138 106 83 165 q 264 13 192 46 q 419 -21 336 -21 q 596 14 524 -21 q 707 114 668 49 q 746 268 746 179 q 724 381 746 333 q 665 463 701 429 q 585 521 629 497 q 499 560 542 544 q 390 604 440 582 q 307 656 339 626 q 275 726 275 685 q 292 788 275 763 q 340 828 308 814 q 415 843 372 843 q 497 824 463 843 q 558 772 532 804 q 604 700 583 739 l 732 779 q 671 878 713 829 q 565 958 629 926 q 410 990 500 990 q 253 958 322 990 q 144 869 183 926 q 104 735 104 811 q 130 620 104 668 q 194 540 156 572 q 277 485 233 507 q 356 450 321 463 q 460 406 411 429 q 541 348 510 382 q 572 260 572 314 q 556 188 572 218 q 506 143 539 158 q 425 128 474 128 q 347 142 382 128 q 283 181 313 156 q 228 243 253 206 q 179 328 203 281 m 410 1200 l 553 1074 l 653 1146 l 410 1340 l 167 1146 l 268 1074 l 410 1200 z "},"Ş":{"ha":804,"x_min":53,"x_max":746,"o":"m 179 328 l 53 246 q 138 106 83 165 q 264 13 192 46 q 419 -21 336 -21 q 591 14 518 -21 q 705 114 664 49 q 746 268 746 179 q 724 381 746 333 q 665 463 701 429 q 585 521 629 497 q 499 560 542 544 q 390 604 440 582 q 307 656 339 626 q 275 726 275 685 q 290 788 275 763 q 333 828 304 814 q 404 843 363 843 q 490 824 453 843 q 555 772 526 804 q 604 700 583 739 l 732 779 q 667 883 708 835 q 563 960 625 931 q 410 990 500 990 q 248 957 317 990 q 142 865 179 924 q 104 729 104 807 q 130 612 104 660 q 194 533 156 564 q 277 483 233 503 q 356 450 321 463 q 460 406 411 429 q 541 348 510 382 q 572 260 572 314 q 556 188 572 218 q 506 143 539 158 q 425 128 474 128 q 347 142 382 128 q 283 181 313 156 q 228 243 253 206 q 179 328 203 281 m 413 83 l 292 -165 q 348 -146 319 -150 q 386 -142 376 -142 q 441 -152 421 -142 q 461 -189 461 -162 q 443 -228 461 -214 q 389 -242 425 -242 q 343 -233 365 -242 q 299 -208 321 -225 l 244 -279 q 318 -322 282 -310 q 400 -333 354 -333 q 478 -317 442 -333 q 538 -270 514 -301 q 561 -194 561 -239 q 544 -129 561 -154 q 501 -91 526 -104 q 450 -78 476 -78 q 436 -78 443 -78 q 422 -81 429 -79 l 524 81 l 413 83 z "},"Š":{"ha":804,"x_min":53,"x_max":746,"o":"m 179 328 l 53 246 q 138 106 83 165 q 264 13 192 46 q 419 -21 336 -21 q 596 14 524 -21 q 707 114 668 49 q 746 268 746 179 q 724 381 746 333 q 665 463 701 429 q 585 521 629 497 q 499 560 542 544 q 390 604 440 582 q 307 656 339 626 q 275 726 275 685 q 292 788 275 763 q 340 828 308 814 q 415 843 372 843 q 497 824 463 843 q 558 772 532 804 q 604 700 583 739 l 732 779 q 671 878 713 829 q 565 958 629 926 q 410 990 500 990 q 253 958 322 990 q 144 869 183 926 q 104 735 104 811 q 130 620 104 668 q 194 540 156 572 q 277 485 233 507 q 356 450 321 463 q 460 406 411 429 q 541 348 510 382 q 572 260 572 314 q 556 188 572 218 q 506 143 539 158 q 425 128 474 128 q 347 142 382 128 q 283 181 313 156 q 228 243 253 206 q 179 328 203 281 m 410 1214 l 268 1340 l 167 1268 l 410 1074 l 653 1268 l 553 1340 l 410 1214 z "},"Ș":{"ha":804,"x_min":53,"x_max":746,"o":"m 179 328 l 53 246 q 138 106 83 165 q 264 13 192 46 q 419 -21 336 -21 q 596 14 524 -21 q 707 114 668 49 q 746 268 746 179 q 724 381 746 333 q 665 463 701 429 q 585 521 629 497 q 499 560 542 544 q 390 604 440 582 q 307 656 339 626 q 275 726 275 685 q 292 788 275 763 q 340 828 308 814 q 415 843 372 843 q 497 824 463 843 q 558 772 532 804 q 604 700 583 739 l 732 779 q 671 878 713 829 q 565 958 629 926 q 410 990 500 990 q 253 958 322 990 q 144 869 183 926 q 104 735 104 811 q 130 620 104 668 q 194 540 156 572 q 277 485 233 507 q 356 450 321 463 q 460 406 411 429 q 541 348 510 382 q 572 260 572 314 q 556 188 572 218 q 506 143 539 158 q 425 128 474 128 q 347 142 382 128 q 283 181 313 156 q 228 243 253 206 q 179 328 203 281 m 390 -97 l 268 -457 l 381 -487 l 542 -140 l 390 -97 z "},"T":{"ha":700,"x_min":11,"x_max":689,"o":"m 11 821 l 268 821 l 268 0 l 432 0 l 432 821 l 689 821 l 689 972 l 11 972 l 11 821 z "},"Ţ":{"ha":700,"x_min":11,"x_max":689,"o":"m 294 14 l 175 -235 q 231 -215 203 -219 q 268 -211 258 -211 q 323 -222 303 -211 q 343 -258 343 -233 q 326 -297 343 -283 q 272 -311 308 -311 q 226 -303 247 -311 q 182 -278 204 -296 l 129 -349 q 201 -391 165 -379 q 283 -403 236 -403 q 360 -387 324 -403 q 421 -340 397 -371 q 444 -264 444 -308 q 427 -199 444 -225 q 384 -160 410 -174 q 333 -147 358 -147 q 319 -148 326 -147 q 306 -150 311 -149 l 407 11 l 294 14 m 11 821 l 268 821 l 268 0 l 432 0 l 432 821 l 689 821 l 689 972 l 11 972 l 11 821 z "},"Ť":{"ha":700,"x_min":11,"x_max":689,"o":"m 11 821 l 268 821 l 268 0 l 432 0 l 432 821 l 689 821 l 689 972 l 11 972 l 11 821 m 350 1214 l 208 1340 l 107 1268 l 350 1074 l 593 1268 l 493 1340 l 350 1214 z "},"Ț":{"ha":700,"x_min":11,"x_max":689,"o":"m 11 821 l 268 821 l 268 0 l 432 0 l 432 821 l 689 821 l 689 972 l 11 972 l 11 821 m 336 -83 l 214 -443 l 326 -474 l 488 -126 l 336 -83 z "},"U":{"ha":911,"x_min":101,"x_max":811,"o":"m 101 972 l 101 319 q 127 176 101 239 q 200 68 153 113 q 313 0 247 24 q 456 -24 378 -24 q 599 0 533 -24 q 712 68 664 24 q 785 176 760 113 q 811 319 811 239 l 811 972 l 646 972 l 646 326 q 598 182 646 238 q 456 126 550 126 q 314 182 363 126 q 265 326 265 238 l 265 972 l 101 972 z "},"Ù":{"ha":911,"x_min":101,"x_max":811,"o":"m 101 972 l 101 319 q 127 176 101 239 q 200 68 153 113 q 313 0 247 24 q 456 -24 378 -24 q 599 0 533 -24 q 712 68 664 24 q 785 176 760 113 q 811 319 811 239 l 811 972 l 646 972 l 646 326 q 598 182 646 238 q 456 126 550 126 q 314 182 363 126 q 265 326 265 238 l 265 972 l 101 972 m 258 1282 l 508 1074 l 593 1122 l 385 1344 l 258 1282 z "},"Ú":{"ha":911,"x_min":101,"x_max":811,"o":"m 101 972 l 101 319 q 127 176 101 239 q 200 68 153 113 q 313 0 247 24 q 456 -24 378 -24 q 599 0 533 -24 q 712 68 664 24 q 785 176 760 113 q 811 319 811 239 l 811 972 l 646 972 l 646 326 q 598 182 646 238 q 456 126 550 126 q 314 182 363 126 q 265 326 265 238 l 265 972 l 101 972 m 654 1282 l 526 1344 l 318 1122 l 404 1074 l 654 1282 z "},"Û":{"ha":911,"x_min":101,"x_max":811,"o":"m 101 972 l 101 319 q 127 176 101 239 q 200 68 153 113 q 313 0 247 24 q 456 -24 378 -24 q 599 0 533 -24 q 712 68 664 24 q 785 176 760 113 q 811 319 811 239 l 811 972 l 646 972 l 646 326 q 598 182 646 238 q 456 126 550 126 q 314 182 363 126 q 265 326 265 238 l 265 972 l 101 972 m 456 1200 l 599 1074 l 699 1146 l 456 1340 l 213 1146 l 314 1074 l 456 1200 z "},"Ü":{"ha":911,"x_min":101,"x_max":811,"o":"m 101 972 l 101 319 q 127 176 101 239 q 200 68 153 113 q 313 0 247 24 q 456 -24 378 -24 q 599 0 533 -24 q 712 68 664 24 q 785 176 760 113 q 811 319 811 239 l 811 972 l 646 972 l 646 326 q 598 182 646 238 q 456 126 550 126 q 314 182 363 126 q 265 326 265 238 l 265 972 l 101 972 m 522 1164 q 551 1100 522 1126 q 617 1074 579 1074 q 685 1100 657 1074 q 713 1164 713 1126 q 685 1230 713 1204 q 617 1256 657 1256 q 551 1230 579 1256 q 522 1164 522 1204 m 200 1164 q 228 1100 200 1126 q 294 1074 256 1074 q 361 1100 333 1074 q 389 1164 389 1126 q 361 1230 389 1204 q 294 1256 333 1256 q 228 1230 256 1256 q 200 1164 200 1204 z "},"Ũ":{"ha":911,"x_min":101,"x_max":811,"o":"m 101 972 l 101 319 q 127 176 101 239 q 200 68 153 113 q 313 0 247 24 q 456 -24 378 -24 q 599 0 533 -24 q 712 68 664 24 q 785 176 760 113 q 811 319 811 239 l 811 972 l 646 972 l 646 326 q 598 182 646 238 q 456 126 550 126 q 314 182 363 126 q 265 326 265 238 l 265 972 l 101 972 m 210 1140 l 293 1075 q 299 1103 293 1086 q 319 1133 304 1119 q 361 1146 333 1146 q 419 1129 394 1146 q 473 1095 444 1113 q 539 1078 501 1078 q 610 1094 578 1078 q 667 1135 643 1110 q 703 1186 692 1161 l 625 1263 q 584 1211 604 1229 q 542 1193 564 1193 q 494 1203 513 1193 q 458 1227 475 1214 q 418 1251 440 1240 q 363 1261 396 1261 q 294 1245 326 1261 q 239 1202 261 1229 q 210 1140 217 1175 z "},"Ū":{"ha":911,"x_min":101,"x_max":811,"o":"m 101 972 l 101 319 q 127 176 101 239 q 200 68 153 113 q 313 0 247 24 q 456 -24 378 -24 q 599 0 533 -24 q 712 68 664 24 q 785 176 760 113 q 811 319 811 239 l 811 972 l 646 972 l 646 326 q 598 182 646 238 q 456 126 550 126 q 314 182 363 126 q 265 326 265 238 l 265 972 l 101 972 m 207 1074 l 706 1074 l 706 1208 l 207 1208 l 207 1074 z "},"Ŭ":{"ha":911,"x_min":101,"x_max":811,"o":"m 101 972 l 101 319 q 127 176 101 239 q 200 68 153 113 q 313 0 247 24 q 456 -24 378 -24 q 599 0 533 -24 q 712 68 664 24 q 785 176 760 113 q 811 319 811 239 l 811 972 l 646 972 l 646 326 q 598 182 646 238 q 456 126 550 126 q 314 182 363 126 q 265 326 265 238 l 265 972 l 101 972 m 233 1271 q 258 1175 233 1221 q 333 1101 283 1129 q 456 1074 383 1074 q 578 1101 529 1074 q 653 1175 628 1129 q 679 1271 679 1221 l 564 1271 q 553 1228 564 1250 q 519 1191 543 1207 q 456 1175 496 1175 q 392 1191 415 1175 q 358 1228 368 1207 q 347 1271 347 1250 l 233 1271 z "},"Ů":{"ha":911,"x_min":101,"x_max":811,"o":"m 101 972 l 101 319 q 127 176 101 239 q 200 68 153 113 q 313 0 247 24 q 456 -24 378 -24 q 599 0 533 -24 q 712 68 664 24 q 785 176 760 113 q 811 319 811 239 l 811 972 l 646 972 l 646 326 q 598 182 646 238 q 456 126 550 126 q 314 182 363 126 q 265 326 265 238 l 265 972 l 101 972 m 301 1221 q 348 1114 301 1154 q 456 1074 394 1074 q 563 1114 517 1074 q 610 1221 610 1154 q 563 1328 610 1288 q 456 1368 517 1368 q 348 1328 394 1368 q 301 1221 301 1288 m 388 1221 q 408 1273 388 1254 q 456 1292 429 1292 q 503 1273 482 1292 q 524 1221 524 1254 q 503 1169 524 1188 q 456 1150 482 1150 q 408 1169 429 1150 q 388 1221 388 1188 z "},"Ű":{"ha":911,"x_min":101,"x_max":811,"o":"m 335 1074 l 528 1335 l 390 1368 l 240 1101 l 335 1074 m 575 1074 l 769 1335 l 631 1368 l 482 1101 l 575 1074 m 101 972 l 101 319 q 127 176 101 239 q 200 68 153 113 q 313 0 247 24 q 456 -24 378 -24 q 599 0 533 -24 q 712 68 664 24 q 785 176 760 113 q 811 319 811 239 l 811 972 l 646 972 l 646 326 q 598 182 646 238 q 456 126 550 126 q 314 182 363 126 q 265 326 265 238 l 265 972 l 101 972 z "},"Ų":{"ha":911,"x_min":101,"x_max":811,"o":"m 518 -182 q 489 -203 504 -196 q 449 -210 474 -210 q 405 -195 421 -210 q 389 -147 389 -181 q 405 -99 389 -124 q 448 -52 421 -75 q 511 -12 475 -29 l 454 22 q 363 -33 406 -3 q 294 -100 321 -64 q 268 -179 268 -136 q 288 -253 268 -221 q 344 -301 307 -285 q 435 -318 382 -318 q 517 -301 485 -318 q 564 -262 549 -283 l 518 -182 m 101 972 l 101 319 q 127 176 101 239 q 200 68 153 113 q 313 0 247 24 q 456 -24 378 -24 q 599 0 533 -24 q 712 68 664 24 q 785 176 760 113 q 811 319 811 239 l 811 972 l 646 972 l 646 326 q 598 182 646 238 q 456 126 550 126 q 314 182 363 126 q 265 326 265 238 l 265 972 l 101 972 z "},"V":{"ha":958,"x_min":4,"x_max":956,"o":"m 479 289 l 193 972 l 4 972 l 479 -54 l 956 972 l 765 972 l 479 289 z "},"W":{"ha":1417,"x_min":11,"x_max":1407,"o":"m 989 322 l 708 1021 l 433 322 l 201 972 l 11 972 l 408 -51 l 708 636 l 1008 -51 l 1407 972 l 1215 972 l 989 322 z "},"Ŵ":{"ha":1417,"x_min":11,"x_max":1407,"o":"m 989 304 l 708 1021 l 428 304 l 201 972 l 11 972 l 408 -51 l 708 636 l 1008 -51 l 1407 972 l 1215 972 l 989 304 m 708 1231 l 851 1104 l 951 1178 l 708 1372 l 465 1178 l 567 1104 l 708 1231 z "},"Ẁ":{"ha":1417,"x_min":11,"x_max":1407,"o":"m 708 1104 l 793 1153 l 585 1375 l 458 1313 l 708 1104 m 989 322 l 708 1021 l 433 322 l 201 972 l 11 972 l 408 -51 l 708 636 l 1008 -51 l 1407 972 l 1215 972 l 989 322 z "},"Ẃ":{"ha":1417,"x_min":11,"x_max":1407,"o":"m 708 1106 l 958 1314 l 832 1376 l 624 1154 l 708 1106 m 989 322 l 708 1021 l 433 322 l 201 972 l 11 972 l 408 -51 l 708 636 l 1008 -51 l 1407 972 l 1215 972 l 989 322 z "},"Ẅ":{"ha":1417,"x_min":11,"x_max":1407,"o":"m 765 1196 q 793 1131 765 1157 q 860 1104 821 1104 q 927 1131 900 1104 q 954 1196 954 1157 q 927 1261 954 1235 q 860 1288 900 1288 q 793 1261 821 1288 q 765 1196 765 1235 m 463 1196 q 491 1131 463 1157 q 558 1104 519 1104 q 625 1131 597 1104 q 653 1196 653 1157 q 625 1261 653 1235 q 558 1288 597 1288 q 491 1261 519 1288 q 463 1196 463 1235 m 989 322 l 708 1021 l 433 322 l 201 972 l 11 972 l 408 -51 l 708 636 l 1008 -51 l 1407 972 l 1215 972 l 989 322 z "},"Ẇ":{"ha":1417,"x_min":11,"x_max":1407,"o":"m 614 1196 q 642 1132 614 1158 q 708 1106 669 1106 q 776 1132 749 1106 q 803 1196 803 1158 q 776 1262 803 1236 q 708 1288 749 1288 q 642 1262 669 1288 q 614 1196 614 1236 m 989 322 l 708 1021 l 433 322 l 201 972 l 11 972 l 408 -51 l 708 636 l 1008 -51 l 1407 972 l 1215 972 l 989 322 z "},"Ẉ":{"ha":1417,"x_min":11,"x_max":1407,"o":"m 614 -226 q 642 -290 614 -264 q 708 -317 669 -317 q 776 -290 749 -317 q 803 -226 803 -264 q 776 -160 803 -186 q 708 -135 749 -135 q 642 -160 669 -135 q 614 -226 614 -186 m 989 322 l 708 1021 l 433 322 l 201 972 l 11 972 l 408 -51 l 708 636 l 1008 -51 l 1407 972 l 1215 972 l 989 322 z "},"X":{"ha":844,"x_min":11,"x_max":833,"o":"m 613 972 l 426 644 l 244 972 l 46 972 l 335 506 l 11 0 l 210 0 l 425 374 l 633 0 l 833 0 l 518 506 l 813 972 l 613 972 z "},"Y":{"ha":835,"x_min":4,"x_max":831,"o":"m 643 972 l 417 557 l 192 972 l 4 972 l 335 408 l 335 0 l 501 0 l 501 410 l 831 972 l 643 972 z "},"Ý":{"ha":835,"x_min":4,"x_max":831,"o":"m 615 1282 l 489 1344 l 281 1122 l 365 1074 l 615 1282 m 643 972 l 417 557 l 192 972 l 4 972 l 335 408 l 335 0 l 501 0 l 501 410 l 831 972 l 643 972 z "},"Ŷ":{"ha":835,"x_min":4,"x_max":831,"o":"m 643 972 l 417 557 l 192 972 l 4 972 l 335 408 l 335 0 l 501 0 l 501 410 l 831 972 l 643 972 m 418 1200 l 560 1074 l 661 1146 l 418 1340 l 175 1146 l 275 1074 l 418 1200 z "},"Ÿ":{"ha":835,"x_min":4,"x_max":831,"o":"m 161 1171 q 189 1106 161 1132 q 256 1079 217 1079 q 323 1106 294 1079 q 351 1171 351 1132 q 323 1235 351 1210 q 256 1261 294 1261 q 189 1235 217 1261 q 161 1171 161 1210 m 485 1171 q 513 1106 485 1132 q 578 1079 540 1079 q 646 1106 618 1079 q 674 1171 674 1132 q 646 1235 674 1210 q 578 1261 618 1261 q 513 1235 540 1261 q 485 1171 485 1210 m 643 972 l 417 557 l 192 972 l 4 972 l 335 408 l 335 0 l 501 0 l 501 410 l 831 972 l 643 972 z "},"Ỳ":{"ha":835,"x_min":4,"x_max":831,"o":"m 418 1072 l 503 1121 l 294 1343 l 168 1281 l 418 1072 m 643 972 l 417 557 l 192 972 l 4 972 l 335 408 l 335 0 l 501 0 l 501 410 l 831 972 l 643 972 z "},"Z":{"ha":799,"x_min":18,"x_max":775,"o":"m 61 821 l 506 821 l 18 0 l 738 0 l 738 147 l 285 147 l 775 972 l 61 972 l 61 821 z "},"Ź":{"ha":799,"x_min":18,"x_max":775,"o":"m 61 821 l 506 821 l 18 0 l 738 0 l 738 147 l 285 147 l 775 972 l 61 972 l 61 821 m 647 1282 l 519 1344 l 311 1122 l 397 1074 l 647 1282 z "},"Ż":{"ha":799,"x_min":18,"x_max":775,"o":"m 61 821 l 506 821 l 18 0 l 738 0 l 738 147 l 285 147 l 775 972 l 61 972 l 61 821 m 322 1164 q 351 1100 322 1126 q 418 1074 379 1074 q 485 1100 457 1074 q 513 1164 513 1126 q 485 1230 513 1204 q 418 1256 457 1256 q 351 1230 379 1256 q 322 1164 322 1204 z "},"Ž":{"ha":799,"x_min":18,"x_max":775,"o":"m 61 821 l 506 821 l 18 0 l 738 0 l 738 147 l 285 147 l 775 972 l 61 972 l 61 821 m 418 1214 l 275 1340 l 175 1268 l 418 1074 l 661 1268 l 560 1340 l 418 1214 z "},"Æ":{"ha":1403,"x_min":13,"x_max":1306,"o":"m 331 258 l 751 258 l 751 411 l 335 411 l 331 258 m 606 972 l 13 0 l 210 0 l 754 917 l 606 972 m 799 0 l 1306 0 l 1306 144 l 799 144 l 799 0 m 810 828 l 1306 828 l 1306 972 l 606 972 l 810 828 m 799 450 l 1278 450 l 1278 592 l 799 592 l 799 450 m 714 972 l 714 0 l 886 0 l 886 972 l 714 972 z "},"Ð":{"ha":974,"x_min":7,"x_max":922,"o":"m 7 426 l 451 426 l 451 544 l 7 544 l 7 426 m 108 972 l 108 0 l 276 0 l 276 972 l 108 972 m 422 0 q 683 60 571 0 q 859 230 796 121 q 922 486 922 339 q 859 742 922 633 q 683 912 796 851 q 422 972 571 972 l 210 972 l 210 818 l 418 818 q 551 797 490 818 q 658 735 613 776 q 728 631 703 693 q 754 486 754 568 q 728 342 754 404 q 658 238 703 279 q 551 176 613 197 q 418 154 490 154 l 210 154 l 210 0 l 422 0 z "},"Ø":{"ha":1097,"x_min":53,"x_max":1063,"o":"m 226 486 q 269 665 226 588 q 387 788 313 743 q 557 832 461 832 q 728 788 654 832 q 845 665 803 743 q 888 486 888 588 q 845 307 888 385 q 728 185 803 229 q 557 140 654 140 q 387 185 461 140 q 269 307 313 229 q 226 486 226 385 m 53 486 q 90 285 53 378 q 196 124 128 192 q 356 17 264 56 q 557 -21 449 -21 q 758 17 667 -21 q 919 124 850 56 q 1025 285 988 192 q 1063 486 1063 378 q 1025 688 1063 596 q 919 847 988 779 q 758 952 850 914 q 557 990 667 990 q 356 952 449 990 q 196 847 264 914 q 90 688 128 779 q 53 486 53 596 m 961 1046 l 61 -10 l 149 -72 l 1050 983 l 961 1046 z "},"Þ":{"ha":799,"x_min":111,"x_max":747,"o":"m 111 972 l 111 0 l 264 0 l 264 972 l 111 972 m 203 647 l 397 647 q 501 631 457 647 q 569 578 544 614 q 593 488 593 543 q 569 398 593 433 q 501 345 544 363 q 397 328 457 328 l 203 328 l 203 188 l 397 188 q 583 224 504 188 q 704 328 661 260 q 747 488 747 396 q 704 649 747 582 q 583 753 661 717 q 397 789 504 789 l 203 789 l 203 647 z "},"Đ":{"ha":974,"x_min":7,"x_max":922,"o":"m 7 424 l 449 424 l 449 542 l 7 542 l 7 424 m 108 972 l 108 0 l 276 0 l 276 972 l 108 972 m 422 0 q 683 60 571 0 q 859 230 796 121 q 922 486 922 339 q 859 742 922 633 q 683 912 796 851 q 422 972 571 972 l 210 972 l 210 818 l 418 818 q 551 797 490 818 q 658 735 613 776 q 728 631 703 693 q 754 486 754 568 q 728 342 754 404 q 658 238 703 279 q 551 176 613 197 q 418 154 490 154 l 210 154 l 210 0 l 422 0 z "},"Ħ":{"ha":1033,"x_min":7,"x_max":1026,"o":"m 174 446 l 868 446 l 868 597 l 174 597 l 174 446 m 761 972 l 761 0 l 925 0 l 925 972 l 761 972 m 108 972 l 108 0 l 272 0 l 272 972 l 108 972 m 7 749 l 1026 749 l 1026 869 l 7 869 l 7 749 z "},"Ĳ":{"ha":756,"x_min":108,"x_max":647,"o":"m 276 -122 l 188 -243 q 237 -275 206 -258 q 308 -303 268 -292 q 392 -315 349 -315 q 494 -302 447 -315 q 576 -260 542 -289 q 628 -186 610 -231 q 647 -79 647 -142 l 647 972 l 479 972 l 479 -50 q 449 -142 479 -115 q 386 -169 418 -169 q 322 -156 351 -169 q 276 -122 293 -143 m 108 972 l 108 0 l 275 0 l 275 972 l 108 972 z "},"Ŀ":{"ha":668,"x_min":108,"x_max":658,"o":"m 108 972 l 108 0 l 658 0 l 658 147 l 272 147 l 272 972 l 108 972 m 393 585 q 422 517 393 546 q 490 488 450 488 q 561 517 533 488 q 589 585 589 546 q 561 653 589 625 q 490 682 533 682 q 422 653 450 682 q 393 585 393 625 z "},"Ł":{"ha":672,"x_min":-31,"x_max":658,"o":"m 7 456 l 435 733 l 396 819 l -31 542 l 7 456 m 108 972 l 108 0 l 658 0 l 658 147 l 272 147 l 272 972 l 108 972 z "},"Ŋ":{"ha":1088,"x_min":108,"x_max":979,"o":"m 772 -303 q 884 -276 838 -303 q 955 -198 931 -249 q 979 -76 979 -147 l 979 972 l 818 972 l 818 319 l 108 1021 l 108 0 l 269 0 l 269 653 l 832 89 l 832 -47 q 824 -112 832 -86 q 802 -149 817 -137 q 765 -160 788 -160 q 728 -151 744 -160 q 699 -125 711 -142 l 628 -242 q 692 -287 657 -272 q 772 -303 726 -303 z "},"Œ":{"ha":1368,"x_min":53,"x_max":1292,"o":"m 781 450 l 1263 450 l 1263 592 l 781 592 l 781 450 m 699 931 l 699 42 l 860 42 l 860 931 l 699 931 m 1292 144 l 794 144 l 761 150 l 560 150 q 419 173 481 150 q 313 240 357 196 q 244 346 268 283 q 221 486 221 408 q 244 627 221 564 q 311 734 267 690 q 418 801 356 778 q 560 824 481 824 l 765 824 l 789 828 l 1290 828 l 1290 972 l 542 972 q 346 938 436 972 q 190 838 256 903 q 89 684 125 774 q 53 486 53 594 q 89 288 53 378 q 191 134 125 199 q 347 35 257 69 q 542 0 436 0 l 1292 0 l 1292 144 z "},"Ŧ":{"ha":700,"x_min":11,"x_max":689,"o":"m 115 485 l 586 485 l 586 619 l 115 619 l 115 485 m 11 821 l 268 821 l 268 0 l 432 0 l 432 821 l 689 821 l 689 972 l 11 972 l 11 821 z "},"ẞ":{"ha":1050,"x_min":111,"x_max":994,"o":"m 653 -17 q 492 6 564 -17 q 361 64 419 28 l 417 200 q 520 152 469 171 q 633 133 571 133 q 725 145 682 133 q 794 183 768 157 q 821 253 821 210 q 797 322 821 297 q 736 360 772 346 q 665 390 700 375 q 605 431 629 406 q 581 499 581 456 q 597 559 581 535 q 636 600 613 583 q 683 633 660 617 q 723 670 707 650 q 739 721 739 690 q 722 774 739 747 q 665 816 704 800 q 565 832 626 832 q 417 798 482 832 q 315 693 351 764 q 278 513 278 622 l 281 -3 l 111 -3 l 111 528 q 145 728 111 642 q 241 873 179 815 q 388 960 303 931 q 578 989 474 989 q 761 959 685 989 q 877 877 838 929 q 917 758 917 825 q 902 676 917 710 q 865 617 888 642 q 819 573 842 592 q 781 538 796 554 q 767 506 767 522 q 790 469 767 483 q 847 442 813 456 q 915 406 881 428 q 972 347 949 383 q 994 249 994 310 q 952 110 994 169 q 833 17 910 50 q 653 -17 756 -17 z "},"Δ":{"ha":833,"x_min":25,"x_max":807,"o":"m 25 0 l 417 1111 l 807 0 l 25 0 m 219 128 l 614 128 l 417 754 l 219 128 z "},"Ω":{"ha":833,"x_min":92,"x_max":740,"o":"m 92 0 l 92 129 l 213 122 q 149 222 175 169 q 109 331 122 275 q 96 440 96 386 q 138 612 96 536 q 253 732 181 688 q 417 776 325 776 q 581 732 508 776 q 694 612 653 688 q 736 440 736 536 q 723 331 736 386 q 683 222 710 275 q 619 122 657 169 l 740 129 l 740 0 l 464 0 l 464 122 q 530 200 501 153 q 575 302 558 247 q 592 410 592 357 q 571 518 592 474 q 511 586 550 563 q 417 610 472 610 q 322 586 361 610 q 261 518 282 563 q 240 410 240 474 q 257 302 240 357 q 303 200 274 247 q 368 122 332 153 l 368 0 l 92 0 z "},"А":{"ha":958,"x_min":4,"x_max":956,"o":"m 225 250 l 739 250 l 708 389 l 257 389 l 225 250 m 479 697 l 635 336 l 638 296 l 769 0 l 956 0 l 479 1026 l 4 0 l 189 0 l 324 304 l 326 340 l 479 697 z "},"Б":{"ha":831,"x_min":111,"x_max":775,"o":"m 176 450 l 424 450 q 521 433 479 450 q 585 383 563 417 q 608 297 608 349 q 585 212 608 246 q 521 161 563 178 q 424 144 479 144 l 176 144 l 176 0 l 444 0 q 613 37 539 0 q 731 141 688 74 q 775 297 775 208 q 731 453 775 388 q 613 556 688 519 q 444 592 539 592 l 176 592 l 176 450 m 111 972 l 111 0 l 278 0 l 278 828 l 701 828 l 701 972 l 111 972 z "},"В":{"ha":835,"x_min":108,"x_max":768,"o":"m 233 501 l 401 501 q 564 528 494 501 q 673 605 633 554 q 713 728 713 656 q 673 865 713 811 q 564 946 633 919 q 401 972 494 972 l 108 972 l 108 0 l 418 0 q 601 30 522 0 q 724 122 679 60 q 768 281 768 185 q 740 400 768 350 q 664 482 713 450 q 552 530 615 514 q 418 546 489 546 l 233 546 l 233 454 l 408 454 q 485 445 450 454 q 546 416 519 436 q 586 367 572 396 q 600 297 600 338 q 575 208 600 243 q 507 154 550 172 q 408 136 464 136 l 272 136 l 272 838 l 390 838 q 502 804 460 838 q 544 710 544 771 q 525 641 544 669 q 471 597 506 613 q 390 582 436 582 l 233 582 l 233 501 z "},"Г":{"ha":644,"x_min":111,"x_max":631,"o":"m 111 972 l 111 0 l 276 0 l 276 821 l 631 821 l 631 972 l 111 972 z "},"Ѓ":{"ha":644,"x_min":111,"x_max":631,"o":"m 111 972 l 111 0 l 276 0 l 276 821 l 631 821 l 631 972 l 111 972 m 621 1282 l 494 1344 l 286 1122 l 371 1074 l 621 1282 z "},"Д":{"ha":1153,"x_min":56,"x_max":1090,"o":"m 574 690 l 817 42 l 1000 42 l 574 1021 l 146 42 l 331 42 l 574 690 m 935 0 l 935 -153 l 1090 -153 l 1090 147 l 56 147 l 56 -153 l 213 -153 l 213 0 l 935 0 z "},"Е":{"ha":793,"x_min":108,"x_max":700,"o":"m 210 0 l 700 0 l 700 144 l 210 144 l 210 0 m 210 828 l 700 828 l 700 972 l 210 972 l 210 828 m 210 450 l 672 450 l 672 592 l 210 592 l 210 450 m 108 972 l 108 0 l 269 0 l 269 972 l 108 972 z "},"Ѐ":{"ha":793,"x_min":108,"x_max":700,"o":"m 210 0 l 700 0 l 700 144 l 210 144 l 210 0 m 210 828 l 700 828 l 700 972 l 210 972 l 210 828 m 210 450 l 672 450 l 672 592 l 210 592 l 210 450 m 108 972 l 108 0 l 269 0 l 269 972 l 108 972 m 154 1282 l 404 1074 l 489 1122 l 281 1344 l 154 1282 z "},"Ё":{"ha":793,"x_min":108,"x_max":700,"o":"m 210 0 l 700 0 l 700 144 l 210 144 l 210 0 m 210 828 l 700 828 l 700 972 l 210 972 l 210 828 m 210 450 l 672 450 l 672 592 l 210 592 l 210 450 m 108 972 l 108 0 l 269 0 l 269 972 l 108 972 m 460 1164 q 488 1100 460 1126 q 556 1074 517 1074 q 622 1100 594 1074 q 650 1164 650 1126 q 622 1230 650 1204 q 556 1256 594 1256 q 488 1230 517 1256 q 460 1164 460 1204 m 158 1164 q 186 1100 158 1126 q 253 1074 214 1074 q 320 1100 293 1074 q 347 1164 347 1126 q 320 1230 347 1204 q 253 1256 293 1256 q 186 1230 214 1256 q 158 1164 158 1204 z "},"Ж":{"ha":1349,"x_min":4,"x_max":1346,"o":"m 222 972 l 25 972 l 439 517 l 4 0 l 201 0 l 633 514 l 222 972 m 596 972 l 596 0 l 764 0 l 764 972 l 596 972 m 1124 972 l 726 514 l 1144 0 l 1346 0 l 911 517 l 1325 972 l 1124 972 z "},"З":{"ha":876,"x_min":76,"x_max":822,"o":"m 406 476 q 561 494 490 476 q 685 544 632 511 q 766 624 738 578 q 794 725 794 669 q 755 856 794 797 q 640 951 715 915 q 458 988 565 988 q 277 952 354 988 q 159 856 200 917 q 118 714 118 794 l 272 714 q 296 783 272 753 q 362 831 319 814 q 458 849 404 849 q 553 832 515 849 q 610 784 592 815 q 629 714 629 753 q 603 638 629 672 q 528 584 578 604 q 406 564 478 564 l 406 476 m 457 -17 q 657 18 575 -17 q 781 115 739 53 q 822 261 822 178 q 767 418 822 358 q 618 506 713 478 q 406 535 524 535 l 406 442 q 540 422 483 442 q 626 367 596 403 q 657 278 657 331 q 606 165 657 206 q 454 125 554 125 q 342 144 388 125 q 271 197 296 163 q 242 278 246 232 l 76 278 q 100 165 76 218 q 172 70 124 111 q 290 6 219 29 q 457 -17 361 -17 z "},"И":{"ha":1088,"x_min":108,"x_max":979,"o":"m 972 796 l 979 1021 l 115 178 l 108 -49 l 972 796 m 269 972 l 108 972 l 108 -49 l 269 136 l 269 972 m 979 1021 l 818 833 l 818 0 l 979 0 l 979 1021 z "},"Ѝ":{"ha":1088,"x_min":108,"x_max":979,"o":"m 972 796 l 979 1021 l 115 178 l 108 -49 l 972 796 m 269 972 l 108 972 l 108 -49 l 269 136 l 269 972 m 979 1021 l 818 833 l 818 0 l 979 0 l 979 1021 m 351 1250 l 601 1042 l 686 1090 l 478 1313 l 351 1250 z "},"Й":{"ha":1088,"x_min":108,"x_max":979,"o":"m 972 796 l 979 1021 l 115 178 l 108 -49 l 972 796 m 269 972 l 108 972 l 108 -49 l 269 136 l 269 972 m 979 1021 l 818 833 l 818 0 l 979 0 l 979 1021 m 357 1264 q 382 1168 357 1214 q 458 1094 407 1122 q 581 1067 508 1067 q 703 1094 654 1067 q 778 1168 753 1122 q 803 1264 803 1214 l 689 1264 q 678 1222 689 1243 q 644 1184 668 1200 q 581 1168 619 1168 q 516 1184 540 1168 q 481 1222 492 1200 q 471 1264 471 1243 l 357 1264 z "},"К":{"ha":860,"x_min":108,"x_max":857,"o":"m 108 972 l 108 0 l 276 0 l 276 972 l 108 972 m 638 972 l 228 513 l 654 0 l 857 0 l 425 517 l 836 972 l 638 972 z "},"Ќ":{"ha":860,"x_min":108,"x_max":857,"o":"m 108 972 l 108 0 l 276 0 l 276 972 l 108 972 m 638 972 l 228 513 l 654 0 l 857 0 l 425 517 l 836 972 l 638 972 m 722 1282 l 596 1344 l 388 1122 l 472 1074 l 722 1282 z "},"Л":{"ha":976,"x_min":14,"x_max":865,"o":"m 865 972 l 150 972 l 150 376 q 141 282 150 325 q 115 207 132 239 q 72 158 97 175 q 14 140 47 140 l 14 0 q 181 46 115 0 q 279 174 247 92 q 311 365 311 257 l 311 821 l 699 821 l 699 0 l 865 0 l 865 972 z "},"М":{"ha":1171,"x_min":53,"x_max":1118,"o":"m 289 592 l 585 90 l 882 592 l 949 0 l 1118 0 l 985 1021 l 585 361 l 186 1021 l 53 0 l 222 0 l 289 592 z "},"Н":{"ha":1033,"x_min":108,"x_max":925,"o":"m 174 446 l 868 446 l 868 597 l 174 597 l 174 446 m 761 972 l 761 0 l 925 0 l 925 972 l 761 972 m 108 972 l 108 0 l 272 0 l 272 972 l 108 972 z "},"О":{"ha":1115,"x_min":53,"x_max":1063,"o":"m 226 486 q 269 665 226 586 q 387 788 313 743 q 557 832 461 832 q 730 788 656 832 q 846 665 804 743 q 888 486 888 586 q 845 308 888 386 q 728 185 803 231 q 557 140 654 140 q 387 185 461 140 q 269 308 313 231 q 226 486 226 386 m 53 486 q 90 285 53 378 q 196 124 128 192 q 356 17 264 56 q 557 -21 449 -21 q 760 17 668 -21 q 919 124 851 56 q 1025 285 988 192 q 1063 486 1063 378 q 1025 688 1063 596 q 919 847 988 779 q 758 952 850 914 q 557 990 667 990 q 358 952 450 990 q 197 847 265 914 q 90 688 128 779 q 53 486 53 596 z "},"П":{"ha":1025,"x_min":111,"x_max":914,"o":"m 747 821 l 747 0 l 914 0 l 914 972 l 111 972 l 111 0 l 278 0 l 278 821 l 747 821 z "},"Р":{"ha":803,"x_min":108,"x_max":751,"o":"m 108 972 l 108 0 l 272 0 l 272 972 l 108 972 m 206 828 l 401 828 q 538 788 486 828 q 589 671 589 749 q 538 553 589 593 q 401 513 486 513 l 206 513 l 206 368 l 401 368 q 586 405 508 368 q 708 510 664 442 q 751 671 751 578 q 708 831 751 764 q 586 935 664 899 q 401 972 508 972 l 206 972 l 206 828 z "},"С":{"ha":960,"x_min":53,"x_max":867,"o":"m 231 486 q 277 667 231 590 q 399 787 324 744 q 563 829 474 829 q 688 811 632 829 q 789 762 744 793 q 867 692 833 731 l 867 886 q 735 964 807 938 q 557 990 664 990 q 358 953 450 990 q 197 849 265 917 q 91 690 129 782 q 53 486 53 597 q 91 284 53 376 q 197 124 129 192 q 358 19 265 56 q 557 -17 450 -17 q 735 10 664 -17 q 867 86 807 36 l 867 282 q 789 210 833 242 q 688 161 744 179 q 563 143 632 143 q 399 186 474 143 q 277 306 324 229 q 231 486 231 383 z "},"Т":{"ha":700,"x_min":11,"x_max":689,"o":"m 11 821 l 268 821 l 268 0 l 432 0 l 432 821 l 689 821 l 689 972 l 11 972 l 11 821 z "},"У":{"ha":814,"x_min":-6,"x_max":819,"o":"m 819 972 l 643 972 l 363 353 l 447 349 l 188 972 l -6 972 l 315 292 l 188 0 l 363 0 l 819 972 z "},"Ў":{"ha":807,"x_min":-6,"x_max":813,"o":"m 813 972 l 639 972 l 360 353 l 444 349 l 185 972 l -6 972 l 311 292 l 183 0 l 356 0 l 813 972 m 183 1271 q 208 1175 183 1221 q 284 1101 233 1129 q 407 1074 335 1074 q 530 1101 481 1074 q 604 1175 579 1129 q 629 1271 629 1221 l 515 1271 q 505 1228 515 1250 q 470 1191 494 1207 q 407 1175 446 1175 q 342 1191 367 1175 q 308 1228 318 1207 q 297 1271 297 1250 l 183 1271 z "},"Ф":{"ha":1171,"x_min":56,"x_max":1115,"o":"m 503 972 l 503 0 l 669 0 l 669 972 l 503 972 m 949 486 q 911 360 949 410 q 806 288 874 311 q 650 264 739 264 l 521 264 q 365 288 432 264 q 260 360 297 311 q 222 486 222 410 q 260 613 222 564 q 365 685 297 661 q 521 708 432 708 l 650 708 q 806 685 739 708 q 911 613 874 661 q 949 486 949 564 m 1115 486 q 1057 688 1115 604 q 897 816 999 771 q 668 861 796 861 l 504 861 q 274 816 376 861 q 114 688 172 771 q 56 486 56 604 q 114 285 56 369 q 274 156 172 201 q 504 111 376 111 l 668 111 q 897 156 796 111 q 1057 285 999 201 q 1115 486 1115 369 z "},"Х":{"ha":844,"x_min":11,"x_max":833,"o":"m 613 972 l 426 644 l 244 972 l 46 972 l 335 506 l 11 0 l 210 0 l 425 374 l 633 0 l 833 0 l 518 506 l 813 972 l 613 972 z "},"Ц":{"ha":1111,"x_min":108,"x_max":1060,"o":"m 275 151 l 275 972 l 108 972 l 108 0 l 907 0 l 907 -167 l 1060 -167 l 1060 151 l 928 151 l 928 972 l 761 972 l 761 151 l 275 151 z "},"Ч":{"ha":911,"x_min":108,"x_max":800,"o":"m 414 356 l 715 356 l 715 501 l 442 501 l 414 356 m 632 972 l 632 0 l 800 0 l 800 972 l 632 972 m 269 972 l 108 972 l 108 692 q 143 522 108 599 q 246 401 178 446 q 414 356 314 356 l 442 501 q 348 528 386 501 q 290 599 310 554 q 269 704 269 644 l 269 972 z "},"Ш":{"ha":1422,"x_min":111,"x_max":1311,"o":"m 1146 151 l 792 151 l 792 972 l 631 972 l 631 151 l 276 151 l 276 972 l 111 972 l 111 0 l 1311 0 l 1311 972 l 1146 972 l 1146 151 z "},"Щ":{"ha":1499,"x_min":111,"x_max":1443,"o":"m 1146 151 l 792 151 l 792 972 l 631 972 l 631 151 l 276 151 l 276 972 l 111 972 l 111 0 l 1290 0 l 1290 -167 l 1443 -167 l 1443 151 l 1311 151 l 1311 972 l 1146 972 l 1146 151 z "},"Ъ":{"ha":957,"x_min":14,"x_max":906,"o":"m 361 460 l 556 460 q 655 442 613 460 q 721 390 697 425 q 744 303 744 354 q 721 215 744 250 q 655 162 697 179 q 556 144 613 144 l 361 144 l 361 0 l 556 0 q 740 37 663 0 q 862 142 818 74 q 906 303 906 210 q 862 463 906 396 q 740 567 818 531 q 556 604 663 604 l 361 604 l 361 460 m 264 822 l 264 0 l 429 0 l 429 972 l 14 972 l 14 822 l 264 822 z "},"Ы":{"ha":1143,"x_min":108,"x_max":1035,"o":"m 868 972 l 868 0 l 1035 0 l 1035 972 l 868 972 m 108 972 l 108 0 l 272 0 l 272 972 l 108 972 m 206 460 l 401 460 q 500 442 458 460 q 565 390 542 425 q 589 303 589 354 q 565 215 589 250 q 500 162 542 179 q 401 144 458 144 l 206 144 l 206 0 l 401 0 q 586 37 508 0 q 708 142 664 74 q 751 303 751 210 q 708 463 751 396 q 586 567 664 531 q 401 604 508 604 l 206 604 l 206 460 z "},"Ь":{"ha":803,"x_min":108,"x_max":751,"o":"m 108 972 l 108 0 l 272 0 l 272 972 l 108 972 m 206 460 l 401 460 q 500 442 458 460 q 565 390 542 425 q 589 303 589 354 q 565 215 589 250 q 500 162 542 179 q 401 144 458 144 l 206 144 l 206 0 l 401 0 q 586 37 508 0 q 708 142 664 74 q 751 303 751 210 q 708 463 751 396 q 586 567 664 531 q 401 604 508 604 l 206 604 l 206 460 z "},"Э":{"ha":960,"x_min":94,"x_max":908,"o":"m 186 415 l 746 415 l 746 557 l 186 557 l 186 415 m 740 486 q 692 306 740 383 q 565 184 643 228 q 397 140 486 140 q 272 158 329 140 q 171 205 215 175 q 94 271 126 235 l 94 86 q 226 10 154 36 q 403 -17 297 -17 q 603 19 511 -17 q 763 124 694 56 q 870 284 832 192 q 908 486 908 376 q 870 690 908 597 q 763 849 832 782 q 603 953 694 917 q 403 990 511 990 q 226 964 297 990 q 94 886 154 938 l 94 701 q 171 767 126 738 q 272 815 215 797 q 397 833 329 833 q 565 790 486 833 q 692 668 643 746 q 740 486 740 590 z "},"Ю":{"ha":1493,"x_min":108,"x_max":1442,"o":"m 174 446 l 544 446 l 544 597 l 174 597 l 174 446 m 108 972 l 108 0 l 272 0 l 272 972 l 108 972 m 606 486 q 648 665 606 586 q 765 788 690 743 q 936 832 840 832 q 1108 788 1035 832 q 1224 665 1182 743 q 1267 486 1267 586 q 1224 308 1267 386 q 1108 185 1182 231 q 936 140 1033 140 q 765 185 840 140 q 648 308 690 231 q 606 486 606 386 m 431 486 q 468 285 431 378 q 574 124 506 192 q 734 17 642 56 q 936 -21 826 -21 q 1138 17 1046 -21 q 1299 124 1231 56 q 1404 285 1367 192 q 1442 486 1442 378 q 1403 688 1442 596 q 1297 847 1365 779 q 1138 952 1229 914 q 936 990 1046 990 q 735 952 828 990 q 575 847 643 914 q 469 688 507 779 q 431 486 431 596 z "},"Я":{"ha":826,"x_min":11,"x_max":719,"o":"m 518 464 l 340 464 l 11 0 l 208 0 l 518 464 m 719 972 l 554 972 l 554 0 l 719 0 l 719 972 m 621 831 l 621 972 l 418 972 q 235 935 314 972 q 113 830 156 897 q 69 671 69 763 q 113 511 69 579 q 235 406 156 443 q 418 368 314 368 l 621 368 l 621 504 l 425 504 q 327 523 369 504 q 261 578 285 542 q 238 667 238 615 q 261 756 238 719 q 327 811 285 792 q 425 831 369 831 l 621 831 z "},"a":{"ha":700,"x_min":39,"x_max":621,"o":"m 190 199 q 205 250 190 229 q 249 283 219 271 q 325 294 278 294 q 428 281 379 294 q 519 236 476 267 l 519 313 q 476 347 507 328 q 399 379 446 365 q 289 393 353 393 q 104 338 169 393 q 39 190 39 283 q 69 79 39 125 q 151 10 100 33 q 263 -14 203 -14 q 372 6 318 -14 q 460 68 425 26 q 496 171 496 110 l 474 254 q 451 171 474 206 q 392 117 429 136 q 310 99 356 99 q 248 110 275 99 q 206 144 221 121 q 190 199 190 167 m 143 472 q 186 497 158 482 q 253 522 214 511 q 338 532 293 532 q 392 526 367 532 q 435 508 417 521 q 464 476 454 496 q 474 426 474 457 l 474 0 l 621 0 l 621 456 q 587 564 621 519 q 492 631 553 608 q 353 654 431 654 q 194 629 263 654 q 82 578 126 604 l 143 472 z "},"à":{"ha":707,"x_min":39,"x_max":626,"o":"m 190 189 q 207 247 190 222 q 256 284 224 271 q 335 297 288 297 q 438 283 393 297 q 525 236 482 268 l 525 315 q 485 347 514 329 q 412 379 456 365 q 313 393 368 393 q 172 368 235 393 q 74 295 110 343 q 39 175 39 247 q 67 74 39 117 q 145 9 94 32 q 263 -14 196 -14 q 383 9 329 -14 q 469 76 438 32 q 501 181 501 119 l 479 254 q 457 164 479 197 q 396 115 435 131 q 308 100 357 100 q 244 110 271 100 q 204 140 218 121 q 190 189 190 160 m 158 471 q 202 495 174 481 q 269 521 231 510 q 353 532 307 532 q 442 508 406 532 q 479 439 479 483 l 479 0 l 626 0 l 626 456 q 592 564 626 519 q 499 631 558 608 q 360 654 439 654 q 207 629 274 654 q 97 578 140 604 l 158 471 m 131 946 l 381 738 l 467 786 l 258 1008 l 131 946 z "},"á":{"ha":707,"x_min":39,"x_max":626,"o":"m 190 189 q 207 247 190 222 q 256 284 224 271 q 335 297 288 297 q 438 283 393 297 q 525 236 482 268 l 525 315 q 485 347 514 329 q 412 379 456 365 q 313 393 368 393 q 172 368 235 393 q 74 295 110 343 q 39 175 39 247 q 67 74 39 117 q 145 9 94 32 q 263 -14 196 -14 q 383 9 329 -14 q 469 76 438 32 q 501 181 501 119 l 479 254 q 457 164 479 197 q 396 115 435 131 q 308 100 357 100 q 244 110 271 100 q 204 140 218 121 q 190 189 190 160 m 158 471 q 202 495 174 481 q 269 521 231 510 q 353 532 307 532 q 442 508 406 532 q 479 439 479 483 l 479 0 l 626 0 l 626 456 q 592 564 626 519 q 499 631 558 608 q 360 654 439 654 q 207 629 274 654 q 97 578 140 604 l 158 471 m 589 946 l 463 1008 l 254 786 l 339 738 l 589 946 z "},"â":{"ha":707,"x_min":39,"x_max":626,"o":"m 190 189 q 207 247 190 222 q 256 284 224 271 q 335 297 288 297 q 438 283 393 297 q 525 236 482 268 l 525 315 q 485 347 514 329 q 412 379 456 365 q 313 393 368 393 q 172 368 235 393 q 74 295 110 343 q 39 175 39 247 q 67 74 39 117 q 145 9 94 32 q 263 -14 196 -14 q 383 9 329 -14 q 469 76 438 32 q 501 181 501 119 l 479 254 q 457 164 479 197 q 396 115 435 131 q 308 100 357 100 q 244 110 271 100 q 204 140 218 121 q 190 189 190 160 m 158 471 q 202 495 174 481 q 269 521 231 510 q 353 532 307 532 q 442 508 406 532 q 479 439 479 483 l 479 0 l 626 0 l 626 456 q 592 564 626 519 q 499 631 558 608 q 360 654 439 654 q 207 629 274 654 q 97 578 140 604 l 158 471 m 360 865 l 503 738 l 603 811 l 360 1006 l 117 811 l 218 738 l 360 865 z "},"ã":{"ha":707,"x_min":39,"x_max":626,"o":"m 190 189 q 207 247 190 222 q 256 284 224 271 q 335 297 288 297 q 438 283 393 297 q 525 236 482 268 l 525 315 q 485 347 514 329 q 412 379 456 365 q 313 393 368 393 q 172 368 235 393 q 74 295 110 343 q 39 175 39 247 q 67 74 39 117 q 145 9 94 32 q 263 -14 196 -14 q 383 9 329 -14 q 469 76 438 32 q 501 181 501 119 l 479 254 q 457 164 479 197 q 396 115 435 131 q 308 100 357 100 q 244 110 271 100 q 204 140 218 121 q 190 189 190 160 m 158 471 q 202 495 174 481 q 269 521 231 510 q 353 532 307 532 q 442 508 406 532 q 479 439 479 483 l 479 0 l 626 0 l 626 456 q 592 564 626 519 q 499 631 558 608 q 360 654 439 654 q 207 629 274 654 q 97 578 140 604 l 158 471 m 114 806 l 197 740 q 203 768 197 751 q 224 798 208 785 q 265 811 239 811 q 324 794 299 811 q 378 759 350 776 q 444 742 407 742 q 515 758 482 742 q 572 800 547 775 q 607 850 596 825 l 529 928 q 488 876 508 894 q 446 858 468 858 q 399 869 418 858 q 363 892 379 879 q 323 916 346 906 q 267 926 300 926 q 198 910 231 926 q 143 867 165 893 q 114 806 121 840 z "},"ä":{"ha":707,"x_min":39,"x_max":626,"o":"m 190 189 q 207 247 190 222 q 256 284 224 271 q 335 297 288 297 q 438 283 393 297 q 525 236 482 268 l 525 315 q 485 347 514 329 q 412 379 456 365 q 313 393 368 393 q 172 368 235 393 q 74 295 110 343 q 39 175 39 247 q 67 74 39 117 q 145 9 94 32 q 263 -14 196 -14 q 383 9 329 -14 q 469 76 438 32 q 501 181 501 119 l 479 254 q 457 164 479 197 q 396 115 435 131 q 308 100 357 100 q 244 110 271 100 q 204 140 218 121 q 190 189 190 160 m 158 471 q 202 495 174 481 q 269 521 231 510 q 353 532 307 532 q 442 508 406 532 q 479 439 479 483 l 479 0 l 626 0 l 626 456 q 592 564 626 519 q 499 631 558 608 q 360 654 439 654 q 207 629 274 654 q 97 578 140 604 l 158 471 m 417 829 q 444 765 417 792 q 511 738 472 738 q 578 765 551 738 q 606 829 606 792 q 578 894 606 868 q 511 921 551 921 q 444 894 472 921 q 417 829 417 868 m 114 829 q 142 765 114 792 q 210 738 171 738 q 276 765 249 738 q 304 829 304 792 q 276 894 304 868 q 210 921 249 921 q 142 894 171 921 q 114 829 114 868 z "},"å":{"ha":707,"x_min":39,"x_max":626,"o":"m 190 189 q 207 247 190 222 q 256 284 224 271 q 335 297 288 297 q 438 283 393 297 q 525 236 482 268 l 525 315 q 485 347 514 329 q 412 379 456 365 q 313 393 368 393 q 172 368 235 393 q 74 295 110 343 q 39 175 39 247 q 67 74 39 117 q 145 9 94 32 q 263 -14 196 -14 q 383 9 329 -14 q 469 76 438 32 q 501 181 501 119 l 479 254 q 457 164 479 197 q 396 115 435 131 q 308 100 357 100 q 244 110 271 100 q 204 140 218 121 q 190 189 190 160 m 158 471 q 202 495 174 481 q 269 521 231 510 q 353 532 307 532 q 442 508 406 532 q 479 439 479 483 l 479 0 l 626 0 l 626 456 q 592 564 626 519 q 499 631 558 608 q 360 654 439 654 q 207 629 274 654 q 97 578 140 604 l 158 471 m 206 886 q 252 778 206 819 q 360 738 299 738 q 468 778 421 738 q 515 886 515 819 q 468 992 515 951 q 360 1033 421 1033 q 252 992 299 1033 q 206 886 206 951 m 292 886 q 313 938 292 919 q 360 957 333 957 q 407 938 386 957 q 428 886 428 919 q 407 834 428 853 q 360 815 386 815 q 313 834 333 815 q 292 886 292 853 z "},"ā":{"ha":707,"x_min":39,"x_max":626,"o":"m 190 189 q 207 247 190 222 q 256 284 224 271 q 335 297 288 297 q 438 283 393 297 q 525 236 482 268 l 525 315 q 485 347 514 329 q 412 379 456 365 q 313 393 368 393 q 172 368 235 393 q 74 295 110 343 q 39 175 39 247 q 67 74 39 117 q 145 9 94 32 q 263 -14 196 -14 q 383 9 329 -14 q 469 76 438 32 q 501 181 501 119 l 479 254 q 457 164 479 197 q 396 115 435 131 q 308 100 357 100 q 244 110 271 100 q 204 140 218 121 q 190 189 190 160 m 158 471 q 202 495 174 481 q 269 521 231 510 q 353 532 307 532 q 442 508 406 532 q 479 439 479 483 l 479 0 l 626 0 l 626 456 q 592 564 626 519 q 499 631 558 608 q 360 654 439 654 q 207 629 274 654 q 97 578 140 604 l 158 471 m 111 758 l 610 758 l 610 894 l 111 894 l 111 758 z "},"ă":{"ha":707,"x_min":39,"x_max":626,"o":"m 190 189 q 207 247 190 222 q 256 284 224 271 q 335 297 288 297 q 438 283 393 297 q 525 236 482 268 l 525 315 q 485 347 514 329 q 412 379 456 365 q 313 393 368 393 q 172 368 235 393 q 74 295 110 343 q 39 175 39 247 q 67 74 39 117 q 145 9 94 32 q 263 -14 196 -14 q 383 9 329 -14 q 469 76 438 32 q 501 181 501 119 l 479 254 q 457 164 479 197 q 396 115 435 131 q 308 100 357 100 q 244 110 271 100 q 204 140 218 121 q 190 189 190 160 m 158 471 q 202 495 174 481 q 269 521 231 510 q 353 532 307 532 q 442 508 406 532 q 479 439 479 483 l 479 0 l 626 0 l 626 456 q 592 564 626 519 q 499 631 558 608 q 360 654 439 654 q 207 629 274 654 q 97 578 140 604 l 158 471 m 138 936 q 163 840 138 885 q 238 766 188 794 q 360 738 288 738 q 483 766 433 738 q 558 840 533 794 q 583 936 583 885 l 469 936 q 459 893 469 915 q 424 856 449 871 q 360 840 400 840 q 297 856 321 840 q 262 893 272 871 q 251 936 251 915 l 138 936 z "},"ą":{"ha":707,"x_min":39,"x_max":663,"o":"m 190 189 q 207 247 190 222 q 256 284 224 271 q 335 297 288 297 q 438 283 393 297 q 525 236 482 268 l 525 315 q 485 347 514 329 q 412 379 456 365 q 313 393 368 393 q 167 368 229 393 q 72 296 106 343 q 39 183 39 249 q 69 74 39 118 q 149 8 99 31 q 263 -14 200 -14 q 383 9 329 -14 q 469 76 438 32 q 501 181 501 119 l 479 254 q 457 164 479 197 q 396 115 435 131 q 308 100 357 100 q 249 110 276 100 q 206 140 222 121 q 190 189 190 160 m 158 471 q 202 495 174 481 q 269 521 231 510 q 353 532 307 532 q 442 508 406 532 q 479 439 479 483 l 479 0 l 626 0 l 626 456 q 592 564 626 519 q 499 631 558 608 q 360 654 439 654 q 207 629 274 654 q 97 578 140 604 l 158 471 m 617 -169 q 588 -190 603 -183 q 547 -197 572 -197 q 503 -183 519 -197 q 488 -135 488 -168 q 503 -87 488 -111 q 546 -40 518 -62 q 610 0 574 -17 l 553 35 q 462 -21 504 10 q 392 -87 419 -51 q 365 -167 365 -124 q 385 -240 365 -208 q 443 -289 406 -272 q 533 -306 481 -306 q 615 -288 583 -306 q 663 -250 647 -271 l 617 -169 z "},"b":{"ha":818,"x_min":90,"x_max":771,"o":"m 242 1083 l 90 1083 l 90 0 l 242 0 l 242 1083 m 771 319 q 728 499 771 425 q 614 613 685 574 q 460 653 543 653 q 319 613 381 653 q 223 498 258 572 q 188 319 188 424 q 223 142 188 217 q 319 26 258 67 q 460 -14 381 -14 q 614 26 543 -14 q 728 140 685 65 q 771 319 771 215 m 615 319 q 589 210 615 256 q 519 140 563 164 q 424 117 476 117 q 338 140 379 117 q 269 209 296 164 q 242 319 242 254 q 269 430 242 385 q 338 499 296 475 q 424 522 379 522 q 519 499 476 522 q 589 429 563 475 q 615 319 615 383 z "},"c":{"ha":672,"x_min":42,"x_max":603,"o":"m 196 319 q 222 425 196 379 q 294 497 249 471 q 394 524 339 524 q 481 510 439 524 q 555 472 522 496 q 603 415 588 447 l 603 582 q 513 633 569 614 q 388 653 456 653 q 212 610 290 653 q 88 493 133 568 q 42 319 42 418 q 88 147 42 222 q 212 28 133 71 q 388 -14 290 -14 q 513 6 456 -14 q 603 58 569 25 l 603 224 q 556 169 588 193 q 483 130 524 144 q 394 115 442 115 q 294 142 339 115 q 222 214 249 168 q 196 319 196 260 z "},"ç":{"ha":672,"x_min":42,"x_max":603,"o":"m 196 319 q 222 425 196 379 q 294 497 249 471 q 394 524 339 524 q 481 510 439 524 q 555 472 522 496 q 603 415 588 447 l 603 582 q 513 633 569 614 q 388 653 456 653 q 212 610 290 653 q 88 493 133 568 q 42 319 42 418 q 88 147 42 222 q 212 28 133 71 q 388 -14 290 -14 q 513 6 456 -14 q 603 58 569 25 l 603 224 q 556 169 588 193 q 483 130 524 144 q 394 115 442 115 q 294 142 339 115 q 222 214 249 168 q 196 319 196 260 m 347 83 l 226 -165 q 283 -146 254 -150 q 321 -142 311 -142 q 376 -152 356 -142 q 396 -189 396 -162 q 378 -228 396 -214 q 324 -242 360 -242 q 278 -233 300 -242 q 233 -208 256 -225 l 181 -279 q 253 -322 217 -310 q 335 -333 289 -333 q 413 -317 376 -333 q 473 -270 450 -301 q 496 -194 496 -239 q 479 -129 496 -154 q 437 -91 463 -104 q 386 -78 411 -78 q 371 -78 378 -78 q 358 -81 364 -79 l 458 81 l 347 83 z "},"ć":{"ha":672,"x_min":42,"x_max":603,"o":"m 196 319 q 222 425 196 379 q 294 497 249 471 q 394 524 339 524 q 481 510 439 524 q 555 472 522 496 q 603 415 588 447 l 603 582 q 513 633 569 614 q 388 653 456 653 q 212 610 290 653 q 88 493 133 568 q 42 319 42 418 q 88 147 42 222 q 212 28 133 71 q 388 -14 290 -14 q 513 6 456 -14 q 603 58 569 25 l 603 224 q 556 169 588 193 q 483 130 524 144 q 394 115 442 115 q 294 142 339 115 q 222 214 249 168 q 196 319 196 260 m 568 944 l 442 1007 l 233 785 l 318 736 l 568 944 z "},"ĉ":{"ha":672,"x_min":42,"x_max":614,"o":"m 196 319 q 222 425 196 379 q 294 497 249 471 q 394 524 339 524 q 481 510 439 524 q 555 472 522 496 q 603 415 588 447 l 603 582 q 513 633 569 614 q 388 653 456 653 q 212 610 290 653 q 88 493 133 568 q 42 319 42 418 q 88 147 42 222 q 212 28 133 71 q 388 -14 290 -14 q 513 6 456 -14 q 603 58 569 25 l 603 224 q 556 169 588 193 q 483 130 524 144 q 394 115 442 115 q 294 142 339 115 q 222 214 249 168 q 196 319 196 260 m 371 864 l 513 736 l 614 810 l 371 1004 l 128 810 l 228 736 l 371 864 z "},"ċ":{"ha":672,"x_min":42,"x_max":603,"o":"m 196 319 q 222 425 196 379 q 294 497 249 471 q 394 524 339 524 q 481 510 439 524 q 555 472 522 496 q 603 415 588 447 l 603 582 q 513 633 569 614 q 388 653 456 653 q 212 610 290 653 q 88 493 133 568 q 42 319 42 418 q 88 147 42 222 q 212 28 133 71 q 388 -14 290 -14 q 513 6 456 -14 q 603 58 569 25 l 603 224 q 556 169 588 193 q 483 130 524 144 q 394 115 442 115 q 294 142 339 115 q 222 214 249 168 q 196 319 196 260 m 279 832 q 308 767 279 793 q 374 740 336 740 q 442 767 414 740 q 469 832 469 793 q 442 897 469 871 q 374 922 414 922 q 308 897 336 922 q 279 832 279 871 z "},"č":{"ha":672,"x_min":42,"x_max":614,"o":"m 196 319 q 222 425 196 379 q 294 497 249 471 q 394 524 339 524 q 481 510 439 524 q 555 472 522 496 q 603 415 588 447 l 603 582 q 513 633 569 614 q 388 653 456 653 q 212 610 290 653 q 88 493 133 568 q 42 319 42 418 q 88 147 42 222 q 212 28 133 71 q 388 -14 290 -14 q 513 6 456 -14 q 603 58 569 25 l 603 224 q 556 169 588 193 q 483 130 524 144 q 394 115 442 115 q 294 142 339 115 q 222 214 249 168 q 196 319 196 260 m 371 878 l 228 1004 l 128 931 l 371 736 l 614 931 l 513 1004 l 371 878 z "},"d":{"ha":818,"x_min":47,"x_max":728,"o":"m 576 1083 l 576 0 l 728 0 l 728 1083 l 576 1083 m 47 319 q 90 140 47 215 q 205 26 133 65 q 358 -14 276 -14 q 499 26 439 -14 q 595 142 560 67 q 631 319 631 217 q 595 498 631 424 q 499 613 560 572 q 358 653 439 653 q 205 613 276 653 q 90 499 133 574 q 47 319 47 425 m 203 319 q 229 429 203 383 q 299 499 256 475 q 394 522 343 522 q 481 499 439 522 q 549 430 522 475 q 576 319 576 385 q 549 209 576 254 q 481 140 522 164 q 394 117 439 117 q 299 140 343 117 q 229 210 256 164 q 203 319 203 256 z "},"ď":{"ha":818,"x_min":47,"x_max":1043,"o":"m 576 1083 l 576 0 l 728 0 l 728 1083 l 576 1083 m 47 319 q 90 140 47 215 q 205 26 133 65 q 358 -14 276 -14 q 499 26 439 -14 q 595 142 560 67 q 631 319 631 217 q 595 498 631 424 q 499 613 560 572 q 358 653 439 653 q 205 613 276 653 q 90 499 133 574 q 47 319 47 425 m 203 319 q 229 429 203 383 q 299 499 256 475 q 394 522 343 522 q 481 499 439 522 q 549 430 522 475 q 576 319 576 385 q 549 209 576 254 q 481 140 522 164 q 394 117 439 117 q 299 140 343 117 q 229 210 256 164 q 203 319 203 256 m 892 1083 l 769 724 l 881 693 l 1043 1040 l 892 1083 z "},"e":{"ha":749,"x_min":47,"x_max":700,"o":"m 374 -14 q 564 30 485 -14 q 694 160 643 74 l 564 211 q 489 135 535 160 q 381 110 443 110 q 282 135 322 110 q 220 208 242 160 q 200 325 199 257 q 222 442 200 394 q 283 514 243 489 q 379 539 322 539 q 462 518 426 539 q 517 460 497 497 q 538 371 538 422 q 533 347 538 361 q 524 325 528 333 l 569 389 l 138 389 l 138 285 l 699 285 q 699 303 699 290 q 700 326 700 315 q 663 502 700 429 q 553 614 625 575 q 381 653 482 653 q 204 612 279 653 q 88 496 129 571 q 47 319 47 421 q 88 144 47 219 q 202 28 128 69 q 374 -14 276 -14 z "},"è":{"ha":749,"x_min":47,"x_max":700,"o":"m 138 285 l 699 285 q 700 308 700 297 q 700 326 700 318 q 662 501 700 428 q 552 613 624 574 q 381 653 481 653 q 221 619 290 653 q 109 526 151 586 q 53 388 67 467 q 49 354 50 371 q 47 319 47 338 q 88 148 47 224 q 202 29 128 72 q 374 -14 276 -14 q 520 8 461 -14 q 621 68 579 29 q 694 160 663 107 l 564 211 q 519 158 546 181 q 459 122 493 135 q 381 110 425 110 q 287 133 328 110 q 223 203 246 156 q 200 319 200 250 l 203 358 q 226 455 203 414 q 289 517 249 496 q 379 539 329 539 q 461 520 428 539 q 513 467 494 501 q 538 389 532 433 l 138 389 l 138 285 m 172 956 l 422 747 l 508 796 l 300 1018 l 172 956 z "},"é":{"ha":749,"x_min":47,"x_max":700,"o":"m 138 285 l 699 285 q 700 308 700 297 q 700 326 700 318 q 662 501 700 428 q 552 613 624 574 q 381 653 481 653 q 221 619 290 653 q 109 526 151 586 q 53 388 67 467 q 49 354 50 371 q 47 319 47 338 q 88 148 47 224 q 202 29 128 72 q 374 -14 276 -14 q 520 8 461 -14 q 621 68 579 29 q 694 160 663 107 l 564 211 q 519 158 546 181 q 459 122 493 135 q 381 110 425 110 q 287 133 328 110 q 223 203 246 156 q 200 319 200 250 l 203 358 q 226 455 203 414 q 289 517 249 496 q 379 539 329 539 q 461 520 428 539 q 513 467 494 501 q 538 389 532 433 l 138 389 l 138 285 m 610 956 l 483 1018 l 275 796 l 360 747 l 610 956 z "},"ê":{"ha":749,"x_min":47,"x_max":700,"o":"m 138 285 l 699 285 q 700 308 700 297 q 700 326 700 318 q 662 501 700 428 q 552 613 624 574 q 381 653 481 653 q 221 619 290 653 q 109 526 151 586 q 53 388 67 467 q 49 354 50 371 q 47 319 47 338 q 88 148 47 224 q 202 29 128 72 q 374 -14 276 -14 q 520 8 461 -14 q 621 68 579 29 q 694 160 663 107 l 564 211 q 519 158 546 181 q 459 122 493 135 q 381 110 425 110 q 287 133 328 110 q 223 203 246 156 q 200 319 200 250 l 203 358 q 226 455 203 414 q 289 517 249 496 q 379 539 329 539 q 461 520 428 539 q 513 467 494 501 q 538 389 532 433 l 138 389 l 138 285 m 381 864 l 524 736 l 624 810 l 381 1004 l 138 810 l 239 736 l 381 864 z "},"ë":{"ha":749,"x_min":47,"x_max":700,"o":"m 138 285 l 699 285 q 700 308 700 297 q 700 326 700 318 q 662 501 700 428 q 552 613 624 574 q 381 653 481 653 q 221 619 290 653 q 109 526 151 586 q 53 388 67 467 q 49 354 50 371 q 47 319 47 338 q 88 148 47 224 q 202 29 128 72 q 374 -14 276 -14 q 520 8 461 -14 q 621 68 579 29 q 694 160 663 107 l 564 211 q 519 158 546 181 q 459 122 493 135 q 381 110 425 110 q 287 133 328 110 q 223 203 246 156 q 200 319 200 250 l 203 358 q 226 455 203 414 q 289 517 249 496 q 379 539 329 539 q 461 520 428 539 q 513 467 494 501 q 538 389 532 433 l 138 389 l 138 285 m 438 828 q 465 763 438 790 q 532 736 493 736 q 599 763 572 736 q 626 828 626 790 q 599 893 626 867 q 532 919 572 919 q 465 893 493 919 q 438 828 438 867 m 135 828 q 163 763 135 790 q 231 736 192 736 q 297 763 269 736 q 325 828 325 790 q 297 893 325 867 q 231 919 269 919 q 163 893 192 919 q 135 828 135 867 z "},"ē":{"ha":749,"x_min":47,"x_max":700,"o":"m 138 285 l 699 285 q 700 308 700 297 q 700 326 700 318 q 662 501 700 428 q 552 613 624 574 q 381 653 481 653 q 221 619 290 653 q 109 526 151 586 q 53 388 67 467 q 49 354 50 371 q 47 319 47 338 q 88 148 47 224 q 202 29 128 72 q 374 -14 276 -14 q 520 8 461 -14 q 621 68 579 29 q 694 160 663 107 l 564 211 q 519 158 546 181 q 459 122 493 135 q 381 110 425 110 q 287 133 328 110 q 223 203 246 156 q 200 319 200 250 l 203 358 q 226 455 203 414 q 289 517 249 496 q 379 539 329 539 q 461 520 428 539 q 513 467 494 501 q 538 389 532 433 l 138 389 l 138 285 m 132 736 l 631 736 l 631 872 l 132 872 l 132 736 z "},"ĕ":{"ha":749,"x_min":47,"x_max":700,"o":"m 138 285 l 699 285 q 700 308 700 297 q 700 326 700 318 q 662 501 700 428 q 552 613 624 574 q 381 653 481 653 q 221 619 290 653 q 109 526 151 586 q 53 388 67 467 q 49 354 50 371 q 47 319 47 338 q 88 148 47 224 q 202 29 128 72 q 374 -14 276 -14 q 520 8 461 -14 q 621 68 579 29 q 694 160 663 107 l 564 211 q 519 158 546 181 q 459 122 493 135 q 381 110 425 110 q 287 133 328 110 q 223 203 246 156 q 200 319 200 250 l 203 358 q 226 455 203 414 q 289 517 249 496 q 379 539 329 539 q 461 520 428 539 q 513 467 494 501 q 538 389 532 433 l 138 389 l 138 285 m 158 935 q 183 838 158 883 q 258 765 208 793 q 381 736 308 736 q 504 765 454 736 q 579 838 554 793 q 604 935 604 883 l 490 935 q 480 892 490 914 q 445 854 469 869 q 381 839 421 839 q 317 854 342 839 q 283 892 293 869 q 272 935 272 914 l 158 935 z "},"ė":{"ha":749,"x_min":47,"x_max":700,"o":"m 138 285 l 699 285 q 700 308 700 297 q 700 326 700 318 q 662 501 700 428 q 552 613 624 574 q 381 653 481 653 q 221 619 290 653 q 109 526 151 586 q 53 388 67 467 q 49 354 50 371 q 47 319 47 338 q 88 148 47 224 q 202 29 128 72 q 374 -14 276 -14 q 520 8 461 -14 q 621 68 579 29 q 694 160 663 107 l 564 211 q 519 158 546 181 q 459 122 493 135 q 381 110 425 110 q 287 133 328 110 q 223 203 246 156 q 200 319 200 250 l 203 358 q 226 455 203 414 q 289 517 249 496 q 379 539 329 539 q 461 520 428 539 q 513 467 494 501 q 538 389 532 433 l 138 389 l 138 285 m 286 828 q 315 763 286 790 q 381 736 343 736 q 449 763 421 736 q 476 828 476 790 q 449 893 476 867 q 381 919 421 919 q 315 893 343 919 q 286 828 286 867 z "},"ę":{"ha":749,"x_min":47,"x_max":704,"o":"m 138 285 l 699 285 q 700 308 700 297 q 700 326 700 318 q 662 501 700 428 q 552 613 624 574 q 381 653 481 653 q 221 619 290 653 q 109 526 151 586 q 53 388 67 467 q 49 354 50 371 q 47 319 47 338 q 88 148 47 224 q 202 29 128 72 q 374 -14 276 -14 q 484 1 439 -14 q 563 40 529 15 q 628 95 597 64 q 694 160 658 126 l 564 211 q 519 158 546 181 q 459 122 493 135 q 381 110 425 110 q 287 133 328 110 q 223 203 246 156 q 200 319 200 250 l 203 358 q 226 455 203 414 q 289 517 249 496 q 379 539 329 539 q 461 520 428 539 q 513 467 494 501 q 538 389 532 433 l 138 389 l 138 285 m 658 -72 q 629 -93 644 -86 q 589 -100 614 -100 q 545 -86 561 -100 q 529 -49 529 -72 q 544 -1 529 -24 q 596 58 560 21 q 693 160 632 94 l 594 132 q 529 80 563 106 q 468 28 496 54 q 424 -27 440 1 q 407 -87 407 -56 q 430 -158 407 -131 q 489 -197 453 -185 q 564 -208 525 -208 q 651 -191 614 -208 q 704 -153 689 -174 l 658 -72 z "},"ě":{"ha":749,"x_min":47,"x_max":700,"o":"m 138 285 l 699 285 q 700 308 700 297 q 700 326 700 318 q 662 501 700 428 q 552 613 624 574 q 381 653 481 653 q 221 619 290 653 q 109 526 151 586 q 53 388 67 467 q 49 354 50 371 q 47 319 47 338 q 88 148 47 224 q 202 29 128 72 q 374 -14 276 -14 q 520 8 461 -14 q 621 68 579 29 q 694 160 663 107 l 564 211 q 519 158 546 181 q 459 122 493 135 q 381 110 425 110 q 287 133 328 110 q 223 203 246 156 q 200 319 200 250 l 203 358 q 226 455 203 414 q 289 517 249 496 q 379 539 329 539 q 461 520 428 539 q 513 467 494 501 q 538 389 532 433 l 138 389 l 138 285 m 381 878 l 239 1004 l 138 931 l 381 736 l 624 931 l 524 1004 l 381 878 z "},"f":{"ha":429,"x_min":43,"x_max":464,"o":"m 43 639 l 43 507 l 410 507 l 410 639 l 43 639 m 394 922 l 464 1039 q 433 1067 453 1053 q 386 1092 414 1082 q 321 1101 358 1101 q 207 1075 253 1101 q 137 999 161 1049 q 113 875 113 950 l 113 0 l 261 0 l 261 846 q 269 911 261 886 q 292 947 278 936 q 328 958 307 958 q 363 951 344 958 q 394 922 381 944 z "},"g":{"ha":814,"x_min":47,"x_max":724,"o":"m 60 -43 q 103 -190 63 -126 q 217 -290 143 -254 q 393 -325 290 -325 q 556 -288 481 -325 q 677 -176 631 -251 q 724 14 724 -101 l 724 639 l 576 639 l 576 14 q 549 -104 576 -58 q 479 -172 522 -150 q 390 -194 436 -194 q 296 -174 336 -194 q 233 -120 256 -154 q 210 -43 211 -86 l 60 -43 m 47 324 q 90 144 47 218 q 205 32 133 71 q 358 -7 276 -7 q 499 33 439 -7 q 595 147 560 72 q 631 324 631 221 q 595 501 631 428 q 499 613 560 574 q 358 653 439 653 q 205 614 276 653 q 90 502 133 575 q 47 324 47 429 m 203 324 q 229 432 203 388 q 299 499 256 476 q 394 522 343 522 q 460 510 428 522 q 518 472 492 497 q 560 409 544 446 q 576 324 576 372 q 549 214 576 258 q 481 147 522 169 q 394 124 439 124 q 299 147 343 124 q 229 215 256 169 q 203 324 203 260 z "},"ĝ":{"ha":814,"x_min":47,"x_max":724,"o":"m 60 -43 q 103 -190 63 -126 q 217 -290 143 -254 q 393 -325 290 -325 q 556 -288 481 -325 q 677 -176 631 -251 q 724 14 724 -101 l 724 639 l 576 639 l 576 14 q 549 -104 576 -58 q 479 -172 522 -150 q 390 -194 436 -194 q 296 -174 336 -194 q 233 -120 256 -154 q 210 -43 211 -86 l 60 -43 m 47 324 q 90 144 47 218 q 205 32 133 71 q 358 -7 276 -7 q 499 33 439 -7 q 595 147 560 72 q 631 324 631 221 q 595 501 631 428 q 499 613 560 574 q 358 653 439 653 q 205 614 276 653 q 90 502 133 575 q 47 324 47 429 m 203 324 q 229 432 203 388 q 299 499 256 476 q 394 522 343 522 q 460 510 428 522 q 518 472 492 497 q 560 409 544 446 q 576 324 576 372 q 549 214 576 258 q 481 147 522 169 q 394 124 439 124 q 299 147 343 124 q 229 215 256 169 q 203 324 203 260 m 397 864 l 539 736 l 640 810 l 397 1004 l 154 810 l 254 736 l 397 864 z "},"ğ":{"ha":814,"x_min":47,"x_max":724,"o":"m 60 -43 q 103 -190 63 -126 q 217 -290 143 -254 q 393 -325 290 -325 q 556 -288 481 -325 q 677 -176 631 -251 q 724 14 724 -101 l 724 639 l 576 639 l 576 14 q 549 -104 576 -58 q 479 -172 522 -150 q 390 -194 436 -194 q 296 -174 336 -194 q 233 -120 256 -154 q 210 -43 211 -86 l 60 -43 m 47 324 q 90 144 47 218 q 205 32 133 71 q 358 -7 276 -7 q 499 33 439 -7 q 595 147 560 72 q 631 324 631 221 q 595 501 631 428 q 499 613 560 574 q 358 653 439 653 q 205 614 276 653 q 90 502 133 575 q 47 324 47 429 m 203 324 q 229 432 203 388 q 299 499 256 476 q 394 522 343 522 q 460 510 428 522 q 518 472 492 497 q 560 409 544 446 q 576 324 576 372 q 549 214 576 258 q 481 147 522 169 q 394 124 439 124 q 299 147 343 124 q 229 215 256 169 q 203 324 203 260 m 174 935 q 199 838 174 883 q 274 765 224 793 q 397 736 325 736 q 520 765 471 736 q 594 838 569 793 q 619 935 619 883 l 506 935 q 495 892 506 914 q 460 854 485 869 q 397 839 436 839 q 333 854 357 839 q 298 892 308 869 q 288 935 288 914 l 174 935 z "},"ġ":{"ha":814,"x_min":47,"x_max":724,"o":"m 60 -43 q 103 -190 63 -126 q 217 -290 143 -254 q 393 -325 290 -325 q 556 -288 481 -325 q 677 -176 631 -251 q 724 14 724 -101 l 724 639 l 576 639 l 576 14 q 549 -104 576 -58 q 479 -172 522 -150 q 390 -194 436 -194 q 296 -174 336 -194 q 233 -120 256 -154 q 210 -43 211 -86 l 60 -43 m 47 324 q 90 144 47 218 q 205 32 133 71 q 358 -7 276 -7 q 499 33 439 -7 q 595 147 560 72 q 631 324 631 221 q 595 501 631 428 q 499 613 560 574 q 358 653 439 653 q 205 614 276 653 q 90 502 133 575 q 47 324 47 429 m 203 324 q 229 432 203 388 q 299 499 256 476 q 394 522 343 522 q 460 510 428 522 q 518 472 492 497 q 560 409 544 446 q 576 324 576 372 q 549 214 576 258 q 481 147 522 169 q 394 124 439 124 q 299 147 343 124 q 229 215 256 169 q 203 324 203 260 m 313 869 q 340 805 313 832 q 407 778 368 778 q 474 805 447 778 q 501 869 501 832 q 474 935 501 908 q 407 961 447 961 q 340 935 368 961 q 313 869 313 908 z "},"ģ":{"ha":792,"x_min":47,"x_max":724,"o":"m 60 -43 q 103 -190 63 -126 q 217 -290 143 -254 q 393 -325 290 -325 q 556 -288 481 -325 q 677 -176 631 -251 q 724 14 724 -101 l 724 639 l 576 639 l 576 14 q 549 -104 576 -58 q 479 -172 522 -150 q 390 -194 436 -194 q 296 -174 336 -194 q 233 -120 256 -154 q 210 -43 211 -86 l 60 -43 m 47 324 q 90 144 47 218 q 205 32 133 71 q 358 -7 276 -7 q 499 33 439 -7 q 595 147 560 72 q 631 324 631 221 q 595 501 631 428 q 499 613 560 574 q 358 653 439 653 q 205 614 276 653 q 90 502 133 575 q 47 324 47 429 m 203 324 q 229 432 203 388 q 299 499 256 476 q 394 522 343 522 q 460 510 428 522 q 518 472 492 497 q 560 409 544 446 q 576 324 576 372 q 549 214 576 258 q 481 147 522 169 q 394 124 439 124 q 299 147 343 124 q 229 215 256 169 q 203 324 203 260 m 407 756 l 583 1092 l 478 1140 l 265 822 l 407 756 z "},"h":{"ha":754,"x_min":96,"x_max":658,"o":"m 247 1083 l 96 1083 l 96 0 l 247 0 l 247 1083 m 507 389 l 507 0 l 658 0 l 658 410 q 633 547 658 492 q 560 629 608 601 q 439 657 511 657 q 316 622 367 657 q 238 526 265 586 q 211 389 211 465 l 247 389 q 265 464 247 432 q 314 514 282 496 q 389 532 346 532 q 478 496 450 532 q 507 389 507 460 z "},"ĥ":{"ha":754,"x_min":-64,"x_max":658,"o":"m 247 1083 l 96 1083 l 96 0 l 247 0 l 247 1083 m 507 389 l 507 0 l 658 0 l 658 410 q 633 547 658 492 q 560 629 608 601 q 439 657 511 657 q 313 622 367 657 q 230 526 260 586 q 200 389 200 465 l 247 389 q 265 464 247 432 q 314 514 282 496 q 389 532 346 532 q 478 496 450 532 q 507 389 507 460 m 179 1293 l 321 1167 l 422 1240 l 179 1435 l -64 1240 l 36 1167 l 179 1293 z "},"i":{"ha":371,"x_min":90,"x_max":281,"o":"m 90 893 q 119 828 90 856 q 185 801 147 801 q 253 828 225 801 q 281 893 281 856 q 253 958 281 932 q 185 985 225 985 q 119 958 147 985 q 90 893 90 932 m 111 639 l 111 0 l 260 0 l 260 639 l 111 639 z "},"ì":{"ha":371,"x_min":-49,"x_max":286,"o":"m 111 639 l 111 0 l 260 0 l 260 639 l 111 639 m -49 965 l 201 757 l 286 806 l 78 1028 l -49 965 z "},"í":{"ha":371,"x_min":79,"x_max":414,"o":"m 111 639 l 111 0 l 260 0 l 260 639 l 111 639 m 414 965 l 288 1028 l 79 806 l 164 757 l 414 965 z "},"î":{"ha":371,"x_min":-58,"x_max":428,"o":"m 111 639 l 111 0 l 260 0 l 260 639 l 111 639 m 185 874 l 328 747 l 428 819 l 185 1014 l -58 819 l 43 747 l 185 874 z "},"ï":{"ha":371,"x_min":-61,"x_max":431,"o":"m 111 639 l 111 0 l 260 0 l 260 639 l 111 639 m 242 860 q 269 794 242 821 q 336 768 297 768 q 403 794 376 768 q 431 860 431 821 q 403 924 431 899 q 336 950 376 950 q 269 924 297 950 q 242 860 242 899 m -61 860 q -33 794 -61 821 q 35 768 -4 768 q 101 794 74 768 q 129 860 129 821 q 101 924 129 899 q 35 950 74 950 q -33 924 -4 950 q -61 860 -61 899 z "},"ĩ":{"ha":371,"x_min":-61,"x_max":432,"o":"m 111 639 l 111 0 l 260 0 l 260 639 l 111 639 m -61 804 l 22 739 q 28 767 22 750 q 49 797 33 783 q 90 810 64 810 q 149 792 124 810 q 203 758 175 775 q 268 740 231 740 q 340 757 307 740 q 397 799 372 774 q 432 849 421 824 l 354 926 q 313 875 333 893 q 271 857 293 857 q 223 867 242 857 q 187 891 204 878 q 147 915 169 904 q 92 925 125 925 q 23 908 56 925 q -32 865 -10 892 q -61 804 -54 839 z "},"ī":{"ha":371,"x_min":-64,"x_max":435,"o":"m 111 639 l 111 0 l 260 0 l 260 639 l 111 639 m -64 736 l 435 736 l 435 872 l -64 872 l -64 736 z "},"ĭ":{"ha":371,"x_min":-37,"x_max":408,"o":"m 111 639 l 111 0 l 260 0 l 260 639 l 111 639 m -37 935 q -12 838 -37 883 q 63 765 13 793 q 185 736 113 736 q 308 765 258 736 q 383 838 357 793 q 408 935 408 883 l 293 935 q 283 892 293 914 q 249 854 272 869 q 185 839 225 839 q 121 854 144 839 q 87 892 97 869 q 76 935 76 914 l -37 935 z "},"į":{"ha":371,"x_min":1,"x_max":299,"o":"m 90 893 q 119 828 90 856 q 185 801 147 801 q 253 828 225 801 q 281 893 281 856 q 253 958 281 932 q 185 985 225 985 q 119 958 147 985 q 90 893 90 932 m 111 639 l 111 0 l 260 0 l 260 639 l 111 639 m 253 -169 q 224 -190 239 -183 q 183 -197 208 -197 q 139 -183 154 -197 q 124 -135 124 -168 q 139 -87 124 -111 q 182 -40 154 -62 q 246 0 210 -17 l 189 35 q 97 -21 140 10 q 28 -87 54 -51 q 1 -167 1 -124 q 22 -240 1 -208 q 78 -289 42 -272 q 169 -306 115 -306 q 251 -288 218 -306 q 299 -250 283 -271 l 253 -169 z "},"j":{"ha":360,"x_min":-103,"x_max":264,"o":"m 76 893 q 104 829 76 856 q 171 803 132 803 q 237 829 210 803 q 264 893 264 856 q 237 958 264 932 q 171 983 210 983 q 104 958 132 983 q 76 893 76 932 m -32 -137 l -103 -254 q -67 -285 -87 -271 q -21 -308 -47 -300 q 42 -315 6 -315 q 155 -288 108 -315 q 225 -210 201 -261 q 249 -90 249 -160 l 249 639 l 101 639 l 101 -61 q 94 -125 101 -100 q 72 -162 86 -150 q 35 -174 57 -174 q -4 -164 13 -174 q -32 -137 -21 -154 z "},"ĵ":{"ha":360,"x_min":-103,"x_max":418,"o":"m -32 -137 l -103 -254 q -71 -282 -90 -268 q -23 -306 -51 -296 q 42 -315 6 -315 q 155 -290 108 -315 q 225 -214 201 -264 q 249 -90 249 -164 l 249 639 l 101 639 l 101 -61 q 94 -126 101 -101 q 71 -162 86 -150 q 35 -174 56 -174 q -1 -167 17 -174 q -32 -137 -18 -160 m 175 864 l 317 736 l 418 810 l 175 1004 l -68 810 l 32 736 l 175 864 z "},"k":{"ha":688,"x_min":90,"x_max":685,"o":"m 90 1083 l 90 0 l 238 0 l 238 1083 l 90 1083 m 472 639 l 197 375 l 501 0 l 685 0 l 381 375 l 657 639 l 472 639 z "},"ķ":{"ha":688,"x_min":90,"x_max":685,"o":"m 90 1083 l 90 0 l 238 0 l 238 1083 l 90 1083 m 472 639 l 197 375 l 501 0 l 685 0 l 381 375 l 657 639 l 472 639 m 358 -83 l 236 -443 l 349 -474 l 510 -126 l 358 -83 z "},"l":{"ha":342,"x_min":96,"x_max":247,"o":"m 96 1083 l 96 0 l 247 0 l 247 1083 l 96 1083 z "},"ĺ":{"ha":342,"x_min":35,"x_max":369,"o":"m 96 1083 l 96 0 l 247 0 l 247 1083 l 96 1083 m 369 1375 l 243 1438 l 35 1215 l 119 1167 l 369 1375 z "},"ļ":{"ha":342,"x_min":35,"x_max":308,"o":"m 96 1083 l 96 0 l 247 0 l 247 1083 l 96 1083 m 157 -83 l 35 -443 l 146 -474 l 308 -126 l 157 -83 z "},"ľ":{"ha":342,"x_min":96,"x_max":589,"o":"m 96 1083 l 96 0 l 247 0 l 247 1083 l 96 1083 m 439 1083 l 317 724 l 428 693 l 589 1040 l 439 1083 z "},"m":{"ha":1106,"x_min":96,"x_max":1011,"o":"m 1011 407 q 988 540 1011 485 q 921 624 965 596 q 807 653 876 653 q 692 624 743 653 q 607 539 642 596 q 540 624 586 594 q 424 653 493 653 q 317 626 361 653 q 243 546 272 599 l 243 639 l 96 639 l 96 0 l 243 0 l 243 389 q 259 467 243 435 q 303 515 275 499 q 369 532 332 532 q 451 497 425 532 q 476 389 476 461 l 476 0 l 626 0 l 626 389 q 642 467 626 435 q 687 515 658 499 q 754 532 715 532 q 834 497 808 532 q 860 389 860 461 l 860 0 l 1011 0 l 1011 407 z "},"n":{"ha":757,"x_min":96,"x_max":661,"o":"m 507 389 l 507 0 l 661 0 l 661 407 q 604 587 661 521 q 439 653 547 653 q 326 625 374 653 q 247 540 278 597 l 247 639 l 96 639 l 96 0 l 247 0 l 247 389 q 265 465 247 432 q 314 515 282 497 q 389 532 346 532 q 478 496 449 532 q 507 389 507 460 z "},"ñ":{"ha":757,"x_min":96,"x_max":661,"o":"m 247 639 l 96 639 l 96 0 l 247 0 l 247 639 m 507 389 l 507 0 l 661 0 l 661 407 q 603 590 661 528 q 439 653 546 653 q 313 617 367 653 q 230 522 260 582 q 200 386 200 463 l 247 389 q 265 464 247 432 q 314 514 282 496 q 389 532 346 532 q 478 496 450 532 q 507 389 507 460 m 133 804 l 217 739 q 222 767 217 750 q 242 797 228 783 q 285 810 257 810 q 343 792 318 810 q 397 758 368 775 q 463 740 425 740 q 534 757 501 740 q 591 799 567 774 q 626 849 615 824 l 549 926 q 508 875 528 893 q 465 857 488 857 q 417 867 436 857 q 381 891 399 878 q 342 915 364 904 q 286 925 319 925 q 217 908 250 925 q 163 865 185 892 q 133 804 140 839 z "},"ń":{"ha":757,"x_min":96,"x_max":661,"o":"m 247 639 l 96 639 l 96 0 l 247 0 l 247 639 m 507 389 l 507 0 l 661 0 l 661 407 q 603 590 661 528 q 439 653 546 653 q 316 617 367 653 q 238 522 265 582 q 211 386 211 463 l 247 389 q 265 464 247 432 q 314 514 282 496 q 389 532 346 532 q 478 496 450 532 q 507 389 507 460 m 586 944 l 461 1007 l 253 785 l 336 736 l 586 944 z "},"ņ":{"ha":757,"x_min":96,"x_max":661,"o":"m 247 639 l 96 639 l 96 0 l 247 0 l 247 639 m 507 389 l 507 0 l 661 0 l 661 407 q 603 590 661 528 q 439 653 546 653 q 313 617 367 653 q 230 522 260 582 q 200 386 200 463 l 247 389 q 265 464 247 432 q 314 514 282 496 q 389 532 346 532 q 478 496 450 532 q 507 389 507 460 m 364 -83 l 242 -443 l 353 -474 l 515 -126 l 364 -83 z "},"ň":{"ha":757,"x_min":96,"x_max":661,"o":"m 247 639 l 96 639 l 96 0 l 247 0 l 247 639 m 507 389 l 507 0 l 661 0 l 661 407 q 603 590 661 528 q 439 653 546 653 q 313 617 367 653 q 230 522 260 582 q 200 386 200 463 l 247 389 q 265 464 247 432 q 314 514 282 496 q 389 532 346 532 q 478 496 450 532 q 507 389 507 460 m 378 878 l 236 1004 l 135 931 l 378 736 l 621 931 l 521 1004 l 378 878 z "},"o":{"ha":783,"x_min":47,"x_max":736,"o":"m 47 319 q 92 147 47 222 q 216 28 138 71 q 392 -14 294 -14 q 568 28 490 -14 q 691 147 646 71 q 736 319 736 222 q 691 493 736 418 q 568 610 646 568 q 392 653 490 653 q 216 610 294 653 q 92 493 138 568 q 47 319 47 418 m 201 319 q 226 425 201 379 q 294 496 251 471 q 392 521 338 521 q 489 496 446 521 q 557 425 532 471 q 582 319 582 379 q 557 215 582 260 q 489 144 532 169 q 392 118 446 118 q 294 144 338 118 q 226 215 251 169 q 201 319 201 260 z "},"ò":{"ha":783,"x_min":47,"x_max":736,"o":"m 47 319 q 92 147 47 222 q 216 28 138 71 q 392 -14 294 -14 q 568 28 490 -14 q 691 147 646 71 q 736 319 736 222 q 691 493 736 418 q 568 610 646 568 q 392 653 490 653 q 216 610 294 653 q 92 493 138 568 q 47 319 47 418 m 201 319 q 226 425 201 379 q 294 496 251 471 q 392 521 338 521 q 489 496 446 521 q 557 425 532 471 q 582 319 582 379 q 557 215 582 260 q 489 144 532 169 q 392 118 446 118 q 294 144 338 118 q 226 215 251 169 q 201 319 201 260 m 169 965 l 419 757 l 504 806 l 296 1028 l 169 965 z "},"ó":{"ha":783,"x_min":47,"x_max":736,"o":"m 47 319 q 92 147 47 222 q 216 28 138 71 q 392 -14 294 -14 q 568 28 490 -14 q 691 147 646 71 q 736 319 736 222 q 691 493 736 418 q 568 610 646 568 q 392 653 490 653 q 216 610 294 653 q 92 493 138 568 q 47 319 47 418 m 201 319 q 226 425 201 379 q 294 496 251 471 q 392 521 338 521 q 489 496 446 521 q 557 425 532 471 q 582 319 582 379 q 557 215 582 260 q 489 144 532 169 q 392 118 446 118 q 294 144 338 118 q 226 215 251 169 q 201 319 201 260 m 614 965 l 488 1028 l 279 806 l 364 757 l 614 965 z "},"ô":{"ha":783,"x_min":47,"x_max":736,"o":"m 47 319 q 92 147 47 222 q 216 28 138 71 q 392 -14 294 -14 q 568 28 490 -14 q 691 147 646 71 q 736 319 736 222 q 691 493 736 418 q 568 610 646 568 q 392 653 490 653 q 216 610 294 653 q 92 493 138 568 q 47 319 47 418 m 201 319 q 226 425 201 379 q 294 496 251 471 q 392 521 338 521 q 489 496 446 521 q 557 425 532 471 q 582 319 582 379 q 557 215 582 260 q 489 144 532 169 q 392 118 446 118 q 294 144 338 118 q 226 215 251 169 q 201 319 201 260 m 392 885 l 533 757 l 635 831 l 392 1025 l 149 831 l 249 757 l 392 885 z "},"õ":{"ha":783,"x_min":47,"x_max":736,"o":"m 47 319 q 92 147 47 222 q 216 28 138 71 q 392 -14 294 -14 q 568 28 490 -14 q 691 147 646 71 q 736 319 736 222 q 691 493 736 418 q 568 610 646 568 q 392 653 490 653 q 216 610 294 653 q 92 493 138 568 q 47 319 47 418 m 201 319 q 226 425 201 379 q 294 496 251 471 q 392 521 338 521 q 489 496 446 521 q 557 425 532 471 q 582 319 582 379 q 557 215 582 260 q 489 144 532 169 q 392 118 446 118 q 294 144 338 118 q 226 215 251 169 q 201 319 201 260 m 144 804 l 229 739 q 235 767 229 750 q 255 797 240 783 q 297 810 269 810 q 355 792 329 810 q 409 758 381 775 q 475 740 438 740 q 547 757 514 740 q 603 799 579 774 q 638 849 626 824 l 560 926 q 519 875 539 893 q 478 857 500 857 q 430 867 449 857 q 394 891 411 878 q 354 915 376 904 q 299 925 332 925 q 229 908 263 925 q 174 865 196 892 q 144 804 151 839 z "},"ö":{"ha":783,"x_min":47,"x_max":736,"o":"m 47 319 q 92 147 47 222 q 216 28 138 71 q 392 -14 294 -14 q 568 28 490 -14 q 691 147 646 71 q 736 319 736 222 q 691 493 736 418 q 568 610 646 568 q 392 653 490 653 q 216 610 294 653 q 92 493 138 568 q 47 319 47 418 m 201 319 q 226 425 201 379 q 294 496 251 471 q 392 521 338 521 q 489 496 446 521 q 557 425 532 471 q 582 319 582 379 q 557 215 582 260 q 489 144 532 169 q 392 118 446 118 q 294 144 338 118 q 226 215 251 169 q 201 319 201 260 m 447 860 q 476 794 447 821 q 543 768 504 768 q 610 794 582 768 q 638 860 638 821 q 610 924 638 899 q 543 950 582 950 q 476 924 504 950 q 447 860 447 899 m 146 860 q 174 794 146 821 q 240 768 201 768 q 308 794 281 768 q 335 860 335 821 q 308 924 335 899 q 240 950 281 950 q 174 924 201 950 q 146 860 146 899 z "},"ō":{"ha":783,"x_min":47,"x_max":736,"o":"m 47 319 q 92 147 47 222 q 216 28 138 71 q 392 -14 294 -14 q 568 28 490 -14 q 691 147 646 71 q 736 319 736 222 q 691 493 736 418 q 568 610 646 568 q 392 653 490 653 q 216 610 294 653 q 92 493 138 568 q 47 319 47 418 m 201 319 q 226 425 201 379 q 294 496 251 471 q 392 521 338 521 q 489 496 446 521 q 557 425 532 471 q 582 319 582 379 q 557 215 582 260 q 489 144 532 169 q 392 118 446 118 q 294 144 338 118 q 226 215 251 169 q 201 319 201 260 m 143 736 l 640 736 l 640 872 l 143 872 l 143 736 z "},"ŏ":{"ha":783,"x_min":47,"x_max":736,"o":"m 47 319 q 92 147 47 222 q 216 28 138 71 q 392 -14 294 -14 q 568 28 490 -14 q 691 147 646 71 q 736 319 736 222 q 691 493 736 418 q 568 610 646 568 q 392 653 490 653 q 216 610 294 653 q 92 493 138 568 q 47 319 47 418 m 201 319 q 226 425 201 379 q 294 496 251 471 q 392 521 338 521 q 489 496 446 521 q 557 425 532 471 q 582 319 582 379 q 557 215 582 260 q 489 144 532 169 q 392 118 446 118 q 294 144 338 118 q 226 215 251 169 q 201 319 201 260 m 168 935 q 194 838 168 883 q 269 765 219 793 q 392 736 319 736 q 515 765 465 736 q 589 838 564 793 q 614 935 614 883 l 500 935 q 490 892 500 914 q 456 854 479 869 q 392 839 432 839 q 328 854 351 839 q 294 892 304 869 q 283 935 283 914 l 168 935 z "},"ő":{"ha":783,"x_min":47,"x_max":736,"o":"m 271 738 l 464 999 l 326 1032 l 176 765 l 271 738 m 511 738 l 706 999 l 567 1032 l 418 765 l 511 738 m 47 319 q 92 147 47 222 q 216 28 138 71 q 392 -14 294 -14 q 568 28 490 -14 q 691 147 646 71 q 736 319 736 222 q 691 493 736 418 q 568 610 646 568 q 392 653 490 653 q 216 610 294 653 q 92 493 138 568 q 47 319 47 418 m 201 319 q 226 425 201 379 q 294 496 251 471 q 392 521 338 521 q 489 496 446 521 q 557 425 532 471 q 582 319 582 379 q 557 215 582 260 q 489 144 532 169 q 392 118 446 118 q 294 144 338 118 q 226 215 251 169 q 201 319 201 260 z "},"p":{"ha":818,"x_min":90,"x_max":771,"o":"m 242 -306 l 242 639 l 90 639 l 90 -306 l 242 -306 m 771 319 q 728 502 771 428 q 614 617 685 576 q 460 657 543 657 q 319 615 379 657 q 225 499 258 574 q 192 319 192 424 q 225 141 192 217 q 319 24 258 65 q 460 -17 379 -17 q 614 23 543 -17 q 728 138 685 63 q 771 319 771 214 m 615 319 q 589 211 615 256 q 519 143 563 167 q 424 119 476 119 q 338 142 379 119 q 269 210 296 165 q 242 319 242 254 q 269 429 242 385 q 338 497 296 474 q 424 519 379 519 q 519 497 476 519 q 589 428 563 474 q 615 319 615 383 z "},"q":{"ha":818,"x_min":47,"x_max":728,"o":"m 576 -306 l 728 -306 l 728 639 l 576 639 l 576 -306 m 47 319 q 90 138 47 214 q 205 23 133 63 q 358 -17 276 -17 q 500 24 440 -17 q 593 141 560 65 q 626 319 626 217 q 593 499 626 424 q 500 615 560 574 q 358 657 440 657 q 205 617 276 657 q 90 502 133 576 q 47 319 47 428 m 203 319 q 229 428 203 383 q 299 497 256 474 q 394 519 343 519 q 481 497 439 519 q 549 429 522 474 q 576 319 576 385 q 549 210 576 254 q 481 142 522 165 q 394 119 439 119 q 299 143 343 119 q 229 211 256 167 q 203 319 203 256 z "},"r":{"ha":515,"x_min":96,"x_max":508,"o":"m 244 639 l 96 639 l 96 0 l 244 0 l 244 639 m 435 479 l 508 606 q 456 643 486 632 q 390 654 425 654 q 297 619 342 654 q 223 524 251 583 q 194 389 194 465 l 244 360 q 255 440 244 406 q 289 493 265 474 q 350 513 313 513 q 397 504 378 513 q 435 479 415 496 z "},"ŕ":{"ha":515,"x_min":96,"x_max":508,"o":"m 244 639 l 96 639 l 96 0 l 244 0 l 244 639 m 435 479 l 508 606 q 456 643 486 632 q 390 654 425 654 q 297 619 342 654 q 223 524 251 583 q 194 389 194 465 l 244 360 q 255 440 244 406 q 289 493 265 474 q 350 513 313 513 q 397 504 378 513 q 435 479 415 496 m 499 946 l 374 1008 l 165 786 l 249 738 l 499 946 z "},"ŗ":{"ha":515,"x_min":33,"x_max":508,"o":"m 244 639 l 96 639 l 96 0 l 244 0 l 244 639 m 435 479 l 508 606 q 456 643 486 632 q 390 654 425 654 q 297 619 342 654 q 223 524 251 583 q 194 389 194 465 l 244 360 q 255 440 244 406 q 289 493 265 474 q 350 513 313 513 q 397 504 378 513 q 435 479 415 496 m 156 -83 l 33 -443 l 146 -474 l 307 -126 l 156 -83 z "},"ř":{"ha":515,"x_min":58,"x_max":544,"o":"m 244 639 l 96 639 l 96 0 l 244 0 l 244 639 m 435 479 l 508 606 q 456 643 486 632 q 390 654 425 654 q 297 619 342 654 q 223 524 251 583 q 194 389 194 465 l 244 360 q 255 440 244 406 q 289 493 265 474 q 350 513 313 513 q 397 504 378 513 q 435 479 415 496 m 301 878 l 158 1004 l 58 932 l 301 738 l 544 932 l 443 1004 l 301 878 z "},"ȓ":{"ha":515,"x_min":79,"x_max":525,"o":"m 244 639 l 96 639 l 96 0 l 244 0 l 244 639 m 435 479 l 508 606 q 456 643 486 632 q 390 654 425 654 q 297 619 342 654 q 223 524 251 583 q 194 389 194 465 l 244 360 q 255 440 244 406 q 289 493 265 474 q 350 513 313 513 q 397 504 378 513 q 435 479 415 496 m 79 738 q 104 834 79 789 q 180 907 129 879 q 303 935 231 935 q 426 907 376 935 q 500 834 475 879 q 525 738 525 789 l 411 738 q 401 780 411 758 q 366 817 390 801 q 303 832 342 832 q 238 817 263 832 q 203 780 214 801 q 193 738 193 758 l 79 738 z "},"s":{"ha":589,"x_min":38,"x_max":551,"o":"m 125 211 l 38 122 q 107 53 65 86 q 203 1 149 21 q 324 -19 257 -19 q 490 35 428 -19 q 551 181 551 90 q 525 275 551 239 q 454 336 499 311 q 356 382 410 361 q 285 411 317 397 q 235 442 254 425 q 217 482 217 460 q 238 522 217 508 q 292 536 258 536 q 383 513 339 536 q 458 451 428 489 l 542 540 q 478 597 515 572 q 394 638 440 622 q 294 653 347 653 q 185 634 236 653 q 105 576 135 615 q 75 479 75 538 q 102 385 75 422 q 172 324 129 347 q 257 285 214 301 q 332 255 300 269 q 382 220 364 240 q 400 172 400 200 q 377 122 400 140 q 314 104 354 104 q 250 117 282 104 q 188 153 218 129 q 125 211 157 176 z "},"ś":{"ha":589,"x_min":32,"x_max":551,"o":"m 122 232 l 32 144 q 95 61 53 99 q 194 2 138 24 q 313 -19 251 -19 q 486 28 421 -19 q 551 181 551 75 q 526 267 551 232 q 461 328 501 303 q 375 371 421 353 q 301 401 338 386 q 240 432 264 415 q 215 471 215 449 q 239 515 215 501 q 301 528 263 528 q 357 518 328 528 q 413 492 386 508 q 458 451 440 475 l 542 540 q 483 597 521 572 q 396 638 444 622 q 294 653 347 653 q 185 633 236 653 q 101 574 133 613 q 68 478 68 535 q 94 388 68 424 q 160 330 119 353 q 243 289 200 307 q 316 258 281 274 q 374 224 351 243 q 397 174 397 204 q 373 124 397 139 q 306 108 349 108 q 240 123 274 108 q 176 165 207 138 q 122 232 146 192 m 544 944 l 418 1007 l 210 785 l 294 736 l 544 944 z "},"ŝ":{"ha":589,"x_min":32,"x_max":551,"o":"m 122 232 l 32 144 q 95 61 53 99 q 194 2 138 24 q 313 -19 251 -19 q 486 28 421 -19 q 551 181 551 75 q 526 267 551 232 q 461 328 501 303 q 375 371 421 353 q 301 401 338 386 q 240 432 264 415 q 215 471 215 449 q 239 515 215 501 q 301 528 263 528 q 357 518 328 528 q 413 492 386 508 q 458 451 440 475 l 542 540 q 483 597 521 572 q 396 638 444 622 q 294 653 347 653 q 185 633 236 653 q 101 574 133 613 q 68 478 68 535 q 94 388 68 424 q 160 330 119 353 q 243 289 200 307 q 316 258 281 274 q 374 224 351 243 q 397 174 397 204 q 373 124 397 139 q 306 108 349 108 q 240 123 274 108 q 176 165 207 138 q 122 232 146 192 m 301 864 l 443 736 l 544 810 l 301 1004 l 58 810 l 158 736 l 301 864 z "},"ş":{"ha":589,"x_min":32,"x_max":551,"o":"m 119 233 l 32 146 q 108 62 64 99 q 207 3 153 25 q 324 -18 261 -18 q 488 29 424 -18 q 551 182 551 76 q 526 274 551 238 q 461 334 501 310 q 375 376 421 358 q 301 404 338 392 q 241 433 265 417 q 217 478 217 450 q 242 522 217 508 q 304 535 267 535 q 387 510 343 535 q 458 453 431 486 l 542 542 q 438 622 503 589 q 294 654 374 654 q 186 635 236 654 q 106 576 136 615 q 75 478 75 538 q 102 381 75 417 q 171 324 129 344 q 257 286 213 303 q 326 258 294 272 q 377 223 357 243 q 397 174 397 203 q 373 124 397 140 q 311 107 349 107 q 253 122 285 107 q 188 164 222 136 q 119 233 153 192 m 311 86 l 193 -162 q 248 -143 221 -147 q 285 -139 275 -139 q 340 -149 319 -139 q 361 -186 361 -160 q 343 -225 361 -211 q 289 -239 325 -239 q 243 -231 265 -239 q 199 -206 221 -222 l 147 -276 q 218 -319 183 -307 q 300 -331 253 -331 q 378 -315 340 -331 q 439 -267 415 -299 q 463 -192 463 -236 q 445 -126 463 -151 q 401 -88 428 -101 q 350 -75 375 -75 q 336 -76 343 -75 q 324 -78 329 -76 l 425 83 l 311 86 z "},"š":{"ha":589,"x_min":32,"x_max":551,"o":"m 122 232 l 32 144 q 95 61 53 99 q 194 2 138 24 q 313 -19 251 -19 q 486 28 421 -19 q 551 181 551 75 q 526 267 551 232 q 461 328 501 303 q 375 371 421 353 q 301 401 338 386 q 240 432 264 415 q 215 471 215 449 q 239 515 215 501 q 301 528 263 528 q 357 518 328 528 q 413 492 386 508 q 458 451 440 475 l 542 540 q 483 597 521 572 q 396 638 444 622 q 294 653 347 653 q 185 633 236 653 q 101 574 133 613 q 68 478 68 535 q 94 388 68 424 q 160 330 119 353 q 243 289 200 307 q 316 258 281 274 q 374 224 351 243 q 397 174 397 204 q 373 124 397 139 q 306 108 349 108 q 240 123 274 108 q 176 165 207 138 q 122 232 146 192 m 294 871 l 151 997 l 51 924 l 294 729 l 538 924 l 436 997 l 294 871 z "},"ș":{"ha":589,"x_min":32,"x_max":551,"o":"m 122 232 l 32 144 q 95 61 53 99 q 194 2 138 24 q 313 -19 251 -19 q 486 28 421 -19 q 551 181 551 75 q 526 267 551 232 q 461 328 501 303 q 375 371 421 353 q 301 401 338 386 q 240 432 264 415 q 215 471 215 449 q 239 515 215 501 q 301 528 263 528 q 357 518 328 528 q 413 492 386 508 q 458 451 440 475 l 542 540 q 483 597 521 572 q 396 638 444 622 q 294 653 347 653 q 185 633 236 653 q 101 574 133 613 q 68 478 68 535 q 94 388 68 424 q 160 330 119 353 q 243 289 200 307 q 316 258 281 274 q 374 224 351 243 q 397 174 397 204 q 373 124 397 139 q 306 108 349 108 q 240 123 274 108 q 176 165 207 138 q 122 232 146 192 m 285 -96 l 163 -456 l 274 -486 l 435 -139 l 285 -96 z "},"t":{"ha":376,"x_min":7,"x_max":369,"o":"m 7 639 l 7 507 l 369 507 l 369 639 l 7 639 m 115 861 l 115 0 l 263 0 l 263 861 l 115 861 z "},"ţ":{"ha":376,"x_min":-33,"x_max":369,"o":"m 133 14 l 14 -235 q 69 -215 42 -219 q 107 -211 97 -211 q 162 -222 142 -211 q 182 -258 182 -233 q 165 -297 182 -283 q 111 -311 147 -311 q 65 -303 86 -311 q 21 -278 43 -296 l -32 -349 q 40 -391 4 -379 q 122 -403 75 -403 q 199 -387 163 -403 q 260 -340 236 -371 q 283 -264 283 -308 q 266 -199 283 -225 q 223 -160 249 -174 q 172 -147 197 -147 q 158 -148 165 -147 q 144 -150 150 -149 l 246 11 l 133 14 m 7 639 l 7 507 l 369 507 l 369 639 l 7 639 m 115 861 l 115 0 l 263 0 l 263 861 l 115 861 z "},"ť":{"ha":561,"x_min":7,"x_max":608,"o":"m 7 639 l 7 507 l 369 507 l 369 639 l 7 639 m 115 861 l 115 0 l 263 0 l 263 861 l 115 861 m 457 1113 l 335 753 l 447 722 l 608 1069 l 457 1113 z "},"ț":{"ha":376,"x_min":7,"x_max":369,"o":"m 7 639 l 7 507 l 369 507 l 369 639 l 7 639 m 115 861 l 115 0 l 263 0 l 263 861 l 115 861 m 174 -83 l 51 -443 l 164 -474 l 325 -126 l 174 -83 z "},"u":{"ha":757,"x_min":96,"x_max":661,"o":"m 250 250 l 250 639 l 96 639 l 96 233 q 153 53 96 119 q 318 -14 211 -14 q 433 15 385 -14 q 511 99 481 43 l 511 0 l 661 0 l 661 639 l 511 639 l 511 250 q 493 175 511 207 q 443 125 475 143 q 369 107 411 107 q 279 144 308 107 q 250 250 250 182 z "},"ù":{"ha":757,"x_min":96,"x_max":661,"o":"m 511 0 l 661 0 l 661 639 l 511 639 l 511 0 m 250 250 l 250 639 l 96 639 l 96 233 q 154 49 96 111 q 318 -14 213 -14 q 444 22 390 -14 q 527 117 497 57 q 557 254 557 178 l 511 250 q 493 176 511 208 q 443 125 475 143 q 369 107 411 107 q 278 144 307 107 q 250 250 250 181 m 197 965 l 447 757 l 533 806 l 325 1028 l 197 965 z "},"ú":{"ha":757,"x_min":96,"x_max":661,"o":"m 511 0 l 661 0 l 661 639 l 511 639 l 511 0 m 250 250 l 250 639 l 96 639 l 96 233 q 154 49 96 111 q 318 -14 213 -14 q 444 22 390 -14 q 527 117 497 57 q 557 254 557 178 l 511 250 q 493 176 511 208 q 443 125 475 143 q 369 107 411 107 q 278 144 307 107 q 250 250 250 181 m 558 965 l 433 1028 l 225 806 l 308 757 l 558 965 z "},"û":{"ha":757,"x_min":96,"x_max":661,"o":"m 511 0 l 661 0 l 661 639 l 511 639 l 511 0 m 250 250 l 250 639 l 96 639 l 96 233 q 154 49 96 111 q 318 -14 213 -14 q 444 22 390 -14 q 527 117 497 57 q 557 254 557 178 l 511 250 q 493 176 511 208 q 443 125 475 143 q 369 107 411 107 q 278 144 307 107 q 250 250 250 181 m 378 885 l 521 757 l 621 831 l 378 1025 l 135 831 l 236 757 l 378 885 z "},"ü":{"ha":757,"x_min":96,"x_max":661,"o":"m 511 0 l 661 0 l 661 639 l 511 639 l 511 0 m 250 250 l 250 639 l 96 639 l 96 233 q 154 49 96 111 q 318 -14 213 -14 q 444 22 390 -14 q 527 117 497 57 q 557 254 557 178 l 511 250 q 493 176 511 208 q 443 125 475 143 q 369 107 411 107 q 278 144 307 107 q 250 250 250 181 m 436 849 q 463 784 436 811 q 529 757 490 757 q 597 784 569 757 q 625 849 625 811 q 597 914 625 888 q 529 940 569 940 q 463 914 490 940 q 436 849 436 888 m 133 849 q 161 784 133 811 q 228 757 189 757 q 295 784 267 757 q 324 849 324 811 q 295 914 324 888 q 228 940 267 940 q 161 914 189 940 q 133 849 133 888 z "},"ũ":{"ha":757,"x_min":96,"x_max":661,"o":"m 511 0 l 661 0 l 661 639 l 511 639 l 511 0 m 250 250 l 250 639 l 96 639 l 96 233 q 154 49 96 111 q 318 -14 213 -14 q 441 22 390 -14 q 519 117 492 57 q 547 254 547 178 l 511 250 q 493 176 511 208 q 443 125 475 143 q 369 107 411 107 q 278 144 307 107 q 250 250 250 181 m 133 804 l 217 739 q 222 767 217 750 q 242 797 228 783 q 285 810 257 810 q 343 792 318 810 q 397 758 368 775 q 463 740 425 740 q 534 757 501 740 q 591 799 567 774 q 626 849 615 824 l 549 926 q 508 875 528 893 q 465 857 488 857 q 417 867 436 857 q 381 891 399 878 q 342 915 364 904 q 286 925 319 925 q 217 908 250 925 q 163 865 185 892 q 133 804 140 839 z "},"ū":{"ha":757,"x_min":96,"x_max":661,"o":"m 511 0 l 661 0 l 661 639 l 511 639 l 511 0 m 250 250 l 250 639 l 96 639 l 96 233 q 154 49 96 111 q 318 -14 213 -14 q 441 22 390 -14 q 519 117 492 57 q 547 254 547 178 l 511 250 q 493 176 511 208 q 443 125 475 143 q 369 107 411 107 q 278 144 307 107 q 250 250 250 181 m 131 736 l 628 736 l 628 872 l 131 872 l 131 736 z "},"ŭ":{"ha":757,"x_min":96,"x_max":661,"o":"m 511 0 l 661 0 l 661 639 l 511 639 l 511 0 m 250 250 l 250 639 l 96 639 l 96 233 q 154 49 96 111 q 318 -14 213 -14 q 441 22 390 -14 q 519 117 492 57 q 547 254 547 178 l 511 250 q 493 176 511 208 q 443 125 475 143 q 369 107 411 107 q 278 144 307 107 q 250 250 250 181 m 157 935 q 182 838 157 883 q 257 765 207 793 q 379 736 307 736 q 502 765 453 736 q 577 838 551 793 q 603 935 603 883 l 488 935 q 477 892 488 914 q 443 854 467 869 q 379 839 419 839 q 315 854 339 839 q 281 892 292 869 q 271 935 271 914 l 157 935 z "},"ů":{"ha":757,"x_min":96,"x_max":661,"o":"m 511 0 l 661 0 l 661 639 l 511 639 l 511 0 m 250 250 l 250 639 l 96 639 l 96 233 q 154 49 96 111 q 318 -14 213 -14 q 441 22 390 -14 q 519 117 492 57 q 547 254 547 178 l 511 250 q 493 176 511 208 q 443 125 475 143 q 369 107 411 107 q 278 144 307 107 q 250 250 250 181 m 225 885 q 272 777 225 818 q 379 736 318 736 q 487 777 440 736 q 533 885 533 818 q 487 991 533 950 q 379 1032 440 1032 q 272 991 318 1032 q 225 885 225 950 m 311 885 q 332 937 311 918 q 379 956 353 956 q 426 937 406 956 q 447 885 447 918 q 426 833 447 851 q 379 814 406 814 q 332 833 353 814 q 311 885 311 851 z "},"ű":{"ha":757,"x_min":96,"x_max":693,"o":"m 258 738 l 451 999 l 314 1032 l 164 765 l 258 738 m 499 738 l 693 999 l 554 1032 l 406 765 l 499 738 m 250 250 l 250 639 l 96 639 l 96 233 q 153 53 96 119 q 318 -14 211 -14 q 433 15 385 -14 q 511 99 481 43 l 511 0 l 661 0 l 661 639 l 511 639 l 511 250 q 493 175 511 207 q 443 125 475 143 q 369 107 411 107 q 279 144 308 107 q 250 250 250 182 z "},"ų":{"ha":757,"x_min":96,"x_max":708,"o":"m 663 -169 q 633 -190 649 -183 q 593 -197 618 -197 q 549 -183 565 -197 q 533 -135 533 -168 q 549 -87 533 -111 q 592 -40 565 -62 q 656 0 619 -17 l 599 35 q 508 -21 550 10 q 439 -87 465 -51 q 413 -167 413 -124 q 432 -240 413 -208 q 489 -289 451 -272 q 579 -306 526 -306 q 661 -288 629 -306 q 708 -250 693 -271 l 663 -169 m 250 250 l 250 639 l 96 639 l 96 233 q 153 53 96 119 q 318 -14 211 -14 q 433 15 385 -14 q 511 99 481 43 l 511 0 l 661 0 l 661 639 l 511 639 l 511 250 q 493 175 511 207 q 443 125 475 143 q 369 107 411 107 q 279 144 308 107 q 250 250 250 182 z "},"v":{"ha":660,"x_min":-1,"x_max":661,"o":"m -1 639 l 331 -58 l 661 639 l 497 639 l 331 226 l 164 639 l -1 639 z "},"w":{"ha":990,"x_min":0,"x_max":990,"o":"m 0 639 l 299 -44 l 490 386 l 692 -44 l 990 639 l 826 639 l 676 257 l 490 688 l 313 260 l 164 639 l 0 639 z "},"ŵ":{"ha":990,"x_min":0,"x_max":990,"o":"m 0 639 l 299 -44 l 490 386 l 692 -44 l 990 639 l 826 639 l 676 257 l 490 688 l 313 260 l 164 639 l 0 639 m 490 897 l 632 771 l 733 844 l 490 1039 l 247 844 l 347 771 l 490 897 z "},"ẁ":{"ha":990,"x_min":0,"x_max":990,"o":"m 490 771 l 575 819 l 367 1042 l 240 979 l 490 771 m 0 639 l 299 -44 l 490 386 l 692 -44 l 990 639 l 826 639 l 676 257 l 490 688 l 313 260 l 164 639 l 0 639 z "},"ẃ":{"ha":990,"x_min":0,"x_max":990,"o":"m 489 772 l 739 981 l 613 1043 l 404 821 l 489 772 m 0 639 l 299 -44 l 490 386 l 692 -44 l 990 639 l 826 639 l 676 257 l 490 688 l 313 260 l 164 639 l 0 639 z "},"ẅ":{"ha":990,"x_min":0,"x_max":990,"o":"m 546 863 q 574 797 546 824 q 640 771 601 771 q 708 797 681 771 q 735 863 735 824 q 708 928 735 901 q 640 954 681 954 q 574 928 601 954 q 546 863 546 901 m 243 863 q 272 797 243 824 q 339 771 300 771 q 406 797 378 771 q 433 863 433 824 q 406 928 433 901 q 339 954 378 954 q 272 928 300 954 q 243 863 243 901 m 0 639 l 299 -44 l 490 386 l 692 -44 l 990 639 l 826 639 l 676 257 l 490 688 l 313 260 l 164 639 l 0 639 z "},"ẇ":{"ha":990,"x_min":0,"x_max":990,"o":"m 396 863 q 424 799 396 825 q 490 772 451 772 q 558 799 531 772 q 585 863 585 825 q 558 928 585 903 q 490 954 531 954 q 424 928 451 954 q 396 863 396 903 m 0 639 l 299 -44 l 490 386 l 692 -44 l 990 639 l 826 639 l 676 257 l 490 688 l 313 260 l 164 639 l 0 639 z "},"ẉ":{"ha":990,"x_min":0,"x_max":990,"o":"m 400 -219 q 428 -283 400 -257 q 494 -310 456 -310 q 562 -283 535 -310 q 589 -219 589 -257 q 562 -153 589 -179 q 494 -128 535 -128 q 428 -153 456 -128 q 400 -219 400 -179 m 0 639 l 299 -44 l 490 386 l 692 -44 l 990 639 l 826 639 l 676 257 l 490 688 l 313 260 l 164 639 l 0 639 z "},"x":{"ha":646,"x_min":0,"x_max":646,"o":"m 464 639 l 325 439 l 186 639 l 14 639 l 244 329 l 0 0 l 172 0 l 325 219 l 478 0 l 646 0 l 403 329 l 632 639 l 464 639 z "},"y":{"ha":657,"x_min":-6,"x_max":661,"o":"m 661 639 l 500 639 l 300 138 l 371 133 l 167 639 l -6 639 l 253 75 l 85 -306 l 244 -306 l 661 639 z "},"ý":{"ha":657,"x_min":-6,"x_max":661,"o":"m 661 639 l 500 639 l 300 138 l 371 133 l 167 639 l -6 639 l 253 75 l 85 -306 l 244 -306 l 661 639 m 526 965 l 400 1028 l 192 806 l 276 757 l 526 965 z "},"ÿ":{"ha":657,"x_min":-6,"x_max":661,"o":"m 661 639 l 500 639 l 300 138 l 371 133 l 167 639 l -6 639 l 253 75 l 85 -306 l 244 -306 l 661 639 m 385 828 q 413 763 385 790 q 479 736 440 736 q 547 763 519 736 q 574 828 574 790 q 547 893 574 867 q 479 919 519 919 q 413 893 440 919 q 385 828 385 867 m 82 828 q 110 763 82 790 q 178 736 139 736 q 244 763 217 736 q 272 828 272 790 q 244 893 272 867 q 178 919 217 919 q 110 893 139 919 q 82 828 82 867 z "},"ŷ":{"ha":657,"x_min":-6,"x_max":661,"o":"m 661 639 l 500 639 l 300 138 l 371 133 l 167 639 l -6 639 l 253 75 l 85 -306 l 244 -306 l 661 639 m 328 864 l 471 736 l 571 810 l 328 1004 l 85 810 l 186 736 l 328 864 z "},"ỳ":{"ha":657,"x_min":-6,"x_max":661,"o":"m 328 736 l 413 785 l 204 1007 l 78 944 l 328 736 m 661 639 l 500 639 l 300 138 l 371 133 l 167 639 l -6 639 l 253 75 l 85 -306 l 244 -306 l 661 639 z "},"z":{"ha":674,"x_min":21,"x_max":653,"o":"m 393 500 l 21 0 l 618 0 l 618 139 l 288 139 l 653 639 l 69 639 l 69 500 l 393 500 z "},"ź":{"ha":674,"x_min":21,"x_max":653,"o":"m 393 500 l 21 0 l 618 0 l 618 139 l 288 139 l 653 639 l 69 639 l 69 500 l 393 500 m 590 965 l 464 1028 l 256 806 l 340 757 l 590 965 z "},"ż":{"ha":674,"x_min":21,"x_max":653,"o":"m 393 500 l 21 0 l 618 0 l 618 139 l 288 139 l 653 639 l 69 639 l 69 500 l 393 500 m 267 860 q 294 794 267 821 q 361 768 322 768 q 428 794 401 768 q 456 860 456 821 q 428 924 456 899 q 361 950 401 950 q 294 924 322 950 q 267 860 267 899 z "},"ž":{"ha":671,"x_min":21,"x_max":653,"o":"m 361 878 l 219 1004 l 118 931 l 361 736 l 604 931 l 504 1004 l 361 878 m 393 500 l 21 0 l 618 0 l 618 139 l 288 139 l 653 639 l 69 639 l 69 500 l 393 500 z "},"ß":{"ha":806,"x_min":86,"x_max":782,"o":"m 493 -17 q 603 5 551 -17 q 696 64 656 26 q 759 152 736 101 q 782 260 782 203 q 766 344 782 310 q 725 404 750 379 q 672 448 700 429 q 618 483 643 467 q 577 517 593 499 q 561 558 561 535 q 575 613 561 589 q 610 662 589 638 q 651 715 631 686 q 687 781 672 743 q 701 875 701 819 q 664 1003 701 953 q 561 1079 626 1054 q 414 1104 496 1104 q 239 1069 313 1104 q 126 968 165 1033 q 86 814 86 903 l 86 -3 l 238 -3 l 236 796 q 257 895 236 857 q 315 951 278 933 q 400 968 351 968 q 472 957 439 968 q 524 921 504 946 q 543 853 543 896 q 528 781 543 813 q 492 722 514 749 q 449 669 471 694 q 413 614 428 643 q 399 550 399 585 q 415 487 399 514 q 457 439 432 460 q 511 399 482 418 q 566 360 540 381 q 608 313 592 340 q 625 250 625 286 q 608 182 625 213 q 560 133 590 151 q 490 115 529 115 q 440 123 465 115 q 392 144 415 131 q 350 176 369 158 l 292 63 q 348 21 317 39 q 415 -7 379 3 q 493 -17 451 -17 z "},"æ":{"ha":1186,"x_min":39,"x_max":1138,"o":"m 294 -14 q 474 30 403 -14 q 561 149 544 74 l 546 149 q 649 25 585 64 q 811 -14 713 -14 q 999 29 919 -14 q 1132 160 1079 72 l 1001 211 q 926 135 972 161 q 818 110 879 110 q 722 133 763 110 q 660 202 682 157 q 638 311 639 247 l 608 285 l 1135 285 q 1137 302 1136 290 q 1138 326 1138 314 q 1101 499 1138 426 q 997 613 1064 572 q 839 653 929 653 q 726 635 779 653 q 633 582 674 617 q 565 497 592 547 l 579 497 q 514 615 569 575 q 360 654 458 654 q 226 635 292 654 q 97 578 160 615 l 158 471 q 218 503 185 489 q 287 525 251 518 q 353 532 322 532 q 447 500 415 532 q 479 407 479 468 l 479 317 l 554 317 q 424 376 476 360 q 313 393 371 393 q 169 366 231 393 q 74 290 108 339 q 39 175 39 240 q 107 38 39 89 q 294 -14 175 -14 m 308 100 q 219 122 247 100 q 190 189 190 144 q 227 269 190 242 q 335 297 264 297 q 422 286 381 297 q 499 256 463 275 l 479 293 l 486 171 l 489 264 q 436 140 479 181 q 308 100 393 100 m 638 331 q 659 441 638 394 q 720 513 681 488 q 815 539 760 539 q 901 518 865 539 q 956 460 936 497 q 976 369 976 422 q 976 358 976 363 q 974 347 976 353 l 1007 389 l 608 389 l 638 331 z "},"ð":{"ha":828,"x_min":69,"x_max":760,"o":"m 413 -17 q 592 28 514 -17 q 715 150 669 72 q 760 328 760 228 q 743 448 760 386 q 692 575 726 510 q 606 712 658 640 q 483 863 554 783 q 324 1026 413 942 l 221 939 q 340 833 286 885 q 438 728 393 781 q 518 623 482 676 q 582 514 554 569 l 644 513 q 360 644 507 644 q 210 603 275 644 q 107 492 144 563 q 69 328 69 421 q 113 150 69 228 q 235 28 157 72 q 413 -17 313 -17 m 414 121 q 315 147 358 121 q 248 217 272 172 q 224 319 224 263 q 249 424 224 378 q 317 495 274 469 q 414 521 360 521 q 512 495 469 521 q 579 424 554 469 q 604 319 604 378 q 580 217 604 263 q 513 147 556 172 q 414 121 469 121 m 240 701 l 668 853 l 643 922 l 217 771 l 240 701 z "},"ø":{"ha":758,"x_min":47,"x_max":736,"o":"m 47 319 q 93 145 47 221 q 217 28 139 69 q 392 -14 294 -14 q 567 28 489 -14 q 690 145 644 69 q 736 319 736 221 q 690 495 736 421 q 567 611 644 569 q 392 653 489 653 q 217 611 294 653 q 93 495 139 569 q 47 319 47 421 m 194 319 q 221 426 194 379 q 292 499 247 472 q 392 525 336 525 q 492 499 447 525 q 563 426 536 472 q 589 319 589 379 q 563 213 589 258 q 492 141 536 167 q 392 115 447 115 q 292 141 336 115 q 221 213 247 167 q 194 319 194 258 m 619 699 l 78 -29 l 147 -64 l 689 664 l 619 699 z "},"þ":{"ha":818,"x_min":90,"x_max":771,"o":"m 242 -306 l 242 1083 l 90 1083 l 90 -306 l 242 -306 m 771 319 q 728 499 771 425 q 614 613 685 574 q 460 653 543 653 q 319 613 381 653 q 223 498 258 572 q 188 319 188 424 q 223 142 188 217 q 319 26 258 67 q 460 -14 381 -14 q 614 26 543 -14 q 728 140 685 65 q 771 319 771 215 m 615 319 q 589 210 615 256 q 519 140 563 164 q 424 117 476 117 q 338 140 379 117 q 269 209 296 164 q 242 319 242 254 q 269 430 242 385 q 338 499 296 475 q 424 522 379 522 q 519 499 476 522 q 589 429 563 475 q 615 319 615 383 z "},"đ":{"ha":818,"x_min":47,"x_max":858,"o":"m 410 806 l 858 806 l 858 924 l 410 924 l 410 806 m 576 1083 l 576 0 l 728 0 l 728 1083 l 576 1083 m 47 319 q 90 140 47 215 q 205 26 133 65 q 358 -14 276 -14 q 499 26 439 -14 q 595 142 560 67 q 631 319 631 217 q 595 498 631 424 q 499 613 560 572 q 358 653 439 653 q 205 613 276 653 q 90 499 133 574 q 47 319 47 425 m 203 319 q 229 429 203 383 q 299 499 256 475 q 394 522 343 522 q 460 509 428 522 q 518 469 492 496 q 560 406 544 443 q 576 319 576 368 q 560 233 576 271 q 518 169 544 196 q 460 130 492 143 q 394 117 428 117 q 299 140 343 117 q 229 210 256 164 q 203 319 203 256 z "},"ħ":{"ha":754,"x_min":7,"x_max":658,"o":"m 247 1083 l 96 1083 l 96 0 l 247 0 l 247 1083 m 507 389 l 507 0 l 658 0 l 658 410 q 633 547 658 492 q 560 629 608 601 q 439 657 511 657 q 316 622 367 657 q 238 526 265 586 q 211 389 211 465 l 247 389 q 265 464 247 432 q 314 514 282 496 q 389 532 346 532 q 478 496 450 532 q 507 389 507 460 m 7 853 l 451 853 l 451 988 l 7 988 l 7 853 z "},"ı":{"ha":371,"x_min":111,"x_max":260,"o":"m 111 639 l 111 0 l 260 0 l 260 639 l 111 639 z "},"ĳ":{"ha":728,"x_min":90,"x_max":638,"o":"m 449 893 q 476 828 449 856 q 543 801 504 801 q 610 828 582 801 q 638 893 638 856 q 610 958 638 932 q 543 985 582 985 q 476 958 504 985 q 449 893 449 932 m 336 -137 l 265 -254 q 297 -282 278 -268 q 345 -306 317 -296 q 410 -315 374 -315 q 522 -290 476 -315 q 592 -214 568 -264 q 617 -90 617 -164 l 617 639 l 469 639 l 469 -61 q 462 -126 469 -101 q 439 -162 454 -150 q 403 -174 424 -174 q 367 -167 385 -174 q 336 -137 350 -160 m 90 893 q 119 828 90 856 q 185 801 147 801 q 253 828 225 801 q 281 893 281 856 q 253 958 281 932 q 185 985 225 985 q 119 958 147 985 q 90 893 90 932 m 111 639 l 111 0 l 260 0 l 260 639 l 111 639 z "},"ĸ":{"ha":688,"x_min":90,"x_max":685,"o":"m 90 639 l 90 0 l 238 0 l 238 639 l 90 639 m 472 639 l 197 375 l 501 0 l 685 0 l 381 375 l 657 639 l 472 639 z "},"ŀ":{"ha":574,"x_min":96,"x_max":517,"o":"m 96 1083 l 96 0 l 247 0 l 247 1083 l 96 1083 m 319 574 q 348 505 319 533 q 418 476 376 476 q 488 505 460 476 q 517 574 517 533 q 488 642 517 614 q 418 671 460 671 q 348 642 376 671 q 319 574 319 614 z "},"ł":{"ha":342,"x_min":-37,"x_max":393,"o":"m 0 456 l 393 701 l 354 789 l -37 542 l 0 456 m 96 1083 l 96 0 l 247 0 l 247 1083 l 96 1083 z "},"ŉ":{"ha":944,"x_min":90,"x_max":849,"o":"m 435 639 l 283 639 l 283 0 l 435 0 l 435 639 m 694 389 l 694 0 l 849 0 l 849 407 q 791 590 849 528 q 626 653 733 653 q 501 617 556 653 q 417 522 447 582 q 388 386 388 463 l 435 389 q 452 464 435 432 q 501 514 469 496 q 576 532 533 532 q 666 496 638 532 q 694 389 694 460 m 171 972 l 90 639 l 196 639 l 338 972 l 171 972 z "},"ŋ":{"ha":757,"x_min":96,"x_max":661,"o":"m 447 -315 q 606 -258 551 -315 q 661 -90 661 -200 l 661 407 q 604 590 661 526 q 439 653 547 653 q 327 624 376 653 q 247 542 278 594 l 247 639 l 96 639 l 96 0 l 247 0 l 247 388 q 265 463 247 431 q 314 514 282 496 q 389 532 346 532 q 478 497 449 532 q 507 389 507 461 l 507 -61 q 490 -146 507 -118 q 440 -174 474 -174 q 374 -137 399 -174 l 303 -254 q 367 -300 331 -285 q 447 -315 404 -315 z "},"œ":{"ha":1250,"x_min":49,"x_max":1201,"o":"m 1042 347 l 1042 319 l 1200 285 q 1201 305 1201 293 q 1201 325 1201 317 q 1161 499 1201 426 q 1056 613 1121 572 q 914 653 990 653 q 766 619 832 653 q 658 526 700 586 q 603 388 617 467 q 599 354 600 371 q 597 319 597 338 q 636 148 597 224 q 743 29 675 72 q 897 -14 811 -14 q 1023 8 967 -14 q 1122 69 1079 31 q 1196 160 1165 108 l 1067 213 q 992 137 1036 165 q 885 108 949 108 q 788 133 829 108 q 725 204 747 157 q 703 319 703 251 l 706 361 q 730 458 706 418 q 794 518 754 497 q 883 539 835 539 q 972 515 936 539 q 1024 447 1007 490 q 1042 347 1042 404 m 668 285 l 1200 285 l 1172 388 l 668 388 l 668 285 m 49 319 q 92 142 49 217 q 207 26 135 67 q 365 -14 279 -14 q 516 26 453 -14 q 613 142 579 67 q 647 319 647 217 q 613 498 647 424 q 516 613 579 572 q 365 653 453 653 q 207 613 279 653 q 92 498 135 572 q 49 319 49 424 m 200 319 q 226 430 200 385 q 295 498 251 475 q 390 521 339 521 q 474 498 435 521 q 536 430 513 475 q 560 319 560 385 q 536 209 560 254 q 474 141 513 164 q 390 118 435 118 q 295 141 339 118 q 226 209 251 164 q 200 319 200 254 z "},"ŧ":{"ha":333,"x_min":7,"x_max":369,"o":"m 28 269 l 313 269 l 313 404 l 28 404 l 28 269 m 7 639 l 7 507 l 369 507 l 369 639 l 7 639 m 115 861 l 115 0 l 263 0 l 263 861 l 115 861 z "},"ȷ":{"ha":360,"x_min":-103,"x_max":249,"o":"m -32 -137 l -103 -254 q -71 -282 -90 -268 q -23 -306 -51 -296 q 42 -315 6 -315 q 155 -290 108 -315 q 225 -214 201 -264 q 249 -90 249 -164 l 249 639 l 101 639 l 101 -61 q 94 -126 101 -101 q 71 -162 86 -150 q 35 -174 56 -174 q -1 -167 17 -174 q -32 -137 -18 -160 z "},"μ":{"ha":754,"x_min":96,"x_max":661,"o":"m 250 639 l 96 639 l 96 -444 l 243 -444 l 243 15 q 293 -4 268 1 q 344 -10 318 -10 q 440 15 397 -10 q 511 81 482 39 l 511 0 l 661 0 l 661 639 l 511 639 l 511 264 q 493 190 511 222 q 443 139 475 157 q 369 121 411 121 q 278 158 307 121 q 250 264 250 194 l 250 639 z "},"π":{"ha":785,"x_min":42,"x_max":729,"o":"m 125 597 l 125 0 l 271 0 l 271 597 l 125 597 m 42 639 l 42 507 l 729 507 l 729 639 l 42 639 m 472 597 l 472 168 q 498 51 472 90 q 572 0 524 13 q 692 -12 621 -12 l 692 119 q 654 125 671 119 q 628 151 638 131 q 618 217 618 171 l 618 597 l 472 597 z "},"а":{"ha":707,"x_min":39,"x_max":626,"o":"m 190 189 q 207 247 190 222 q 256 284 224 271 q 335 297 288 297 q 438 283 393 297 q 525 236 482 268 l 525 315 q 485 347 514 329 q 412 379 456 365 q 313 393 368 393 q 167 368 229 393 q 72 296 106 343 q 39 183 39 249 q 69 74 39 118 q 149 8 99 31 q 263 -14 200 -14 q 383 9 329 -14 q 469 76 438 32 q 501 181 501 119 l 479 254 q 457 164 479 197 q 396 115 435 131 q 308 100 357 100 q 249 110 276 100 q 206 140 222 121 q 190 189 190 160 m 158 471 q 202 495 174 481 q 269 521 231 510 q 353 532 307 532 q 442 508 406 532 q 479 439 479 483 l 479 0 l 626 0 l 626 456 q 592 564 626 519 q 499 631 558 608 q 360 654 439 654 q 207 629 274 654 q 97 578 140 604 l 158 471 z "},"б":{"ha":793,"x_min":49,"x_max":744,"o":"m 400 521 q 497 496 454 521 q 565 425 540 471 q 590 319 590 379 q 565 215 590 260 q 497 144 540 169 q 400 118 454 118 q 303 144 346 118 q 234 215 260 169 q 208 319 208 260 l 49 403 q 94 172 49 265 q 220 33 140 79 q 400 -14 300 -14 q 578 29 501 -14 q 700 148 656 72 q 744 319 744 224 q 701 492 744 417 q 581 610 657 567 q 407 653 506 653 l 400 521 m 142 319 l 208 319 q 226 406 208 368 q 271 469 243 443 q 333 508 299 494 q 400 521 368 521 l 407 653 q 299 630 347 653 q 215 564 250 607 q 160 459 179 521 q 142 319 142 397 m 49 403 l 194 326 l 181 472 q 199 608 181 542 q 266 728 218 675 q 399 811 314 781 q 535 877 475 838 q 633 969 596 917 q 678 1083 671 1022 l 532 1083 q 474 992 522 1033 q 331 915 425 950 q 159 804 221 875 q 73 633 97 733 q 49 403 49 533 z "},"в":{"ha":669,"x_min":104,"x_max":628,"o":"m 192 333 l 192 268 l 376 268 q 424 263 404 268 q 456 246 444 257 q 475 222 468 235 q 482 190 482 208 q 457 135 482 158 q 376 111 432 111 l 192 111 l 192 0 l 422 0 q 580 51 532 0 q 628 174 628 101 q 597 271 628 236 q 514 319 567 306 q 394 333 461 333 l 192 333 m 192 306 l 381 306 q 490 323 440 306 q 569 376 539 340 q 600 465 600 411 q 569 566 600 528 q 490 622 539 604 q 381 639 440 639 l 192 639 l 192 528 l 363 528 q 430 507 406 528 q 454 454 454 486 q 448 425 454 439 q 430 400 442 411 q 401 383 418 389 q 363 378 385 378 l 192 378 l 192 306 m 104 639 l 104 0 l 251 0 l 251 639 l 104 639 z "},"г":{"ha":474,"x_min":101,"x_max":469,"o":"m 101 639 l 101 0 l 250 0 l 250 507 l 469 507 l 469 639 l 101 639 z "},"ѓ":{"ha":474,"x_min":101,"x_max":536,"o":"m 101 639 l 101 0 l 250 0 l 250 507 l 469 507 l 469 639 l 101 639 m 536 944 l 408 1007 l 200 785 l 286 736 l 536 944 z "},"д":{"ha":938,"x_min":56,"x_max":875,"o":"m 465 424 l 639 42 l 796 60 l 465 688 l 136 60 l 292 42 l 465 424 m 729 0 l 729 -125 l 875 -125 l 875 129 l 56 129 l 56 -125 l 208 -125 l 208 0 l 729 0 z "},"е":{"ha":749,"x_min":47,"x_max":700,"o":"m 138 285 l 699 285 q 700 308 700 297 q 700 326 700 318 q 662 501 700 428 q 552 613 624 574 q 381 653 481 653 q 221 619 290 653 q 109 526 151 586 q 53 388 67 467 q 49 354 50 371 q 47 319 47 338 q 88 148 47 224 q 202 29 128 72 q 374 -14 276 -14 q 520 8 461 -14 q 621 68 579 29 q 694 160 663 107 l 564 211 q 519 158 546 181 q 459 122 493 135 q 381 110 425 110 q 287 133 328 110 q 223 203 246 156 q 200 319 200 250 l 203 358 q 226 455 203 414 q 289 517 249 496 q 379 539 329 539 q 461 520 428 539 q 513 467 494 501 q 538 389 532 433 l 138 389 l 138 285 z "},"ѐ":{"ha":749,"x_min":47,"x_max":700,"o":"m 138 285 l 699 285 q 700 308 700 297 q 700 326 700 318 q 662 501 700 428 q 552 613 624 574 q 381 653 481 653 q 221 619 290 653 q 109 526 151 586 q 53 388 67 467 q 49 354 50 371 q 47 319 47 338 q 88 148 47 224 q 202 29 128 72 q 374 -14 276 -14 q 520 8 461 -14 q 621 68 579 29 q 694 160 663 107 l 564 211 q 519 158 546 181 q 459 122 493 135 q 381 110 425 110 q 287 133 328 110 q 223 203 246 156 q 200 319 200 250 l 203 358 q 226 455 203 414 q 289 517 249 496 q 379 539 329 539 q 461 520 428 539 q 513 467 494 501 q 538 389 532 433 l 138 389 l 138 285 m 163 944 l 413 736 l 497 785 l 289 1007 l 163 944 z "},"ё":{"ha":749,"x_min":47,"x_max":700,"o":"m 138 285 l 699 285 q 700 308 700 297 q 700 326 700 318 q 662 501 700 428 q 552 613 624 574 q 381 653 481 653 q 221 619 290 653 q 109 526 151 586 q 53 388 67 467 q 49 354 50 371 q 47 319 47 338 q 88 148 47 224 q 202 29 128 72 q 374 -14 276 -14 q 520 8 461 -14 q 621 68 579 29 q 694 160 663 107 l 564 211 q 519 158 546 181 q 459 122 493 135 q 381 110 425 110 q 287 133 328 110 q 223 203 246 156 q 200 319 200 250 l 203 358 q 226 455 203 414 q 289 517 249 496 q 379 539 329 539 q 461 520 428 539 q 513 467 494 501 q 538 389 532 433 l 138 389 l 138 285 m 438 828 q 465 763 438 790 q 532 736 493 736 q 599 763 572 736 q 626 828 626 790 q 599 893 626 867 q 532 919 572 919 q 465 893 493 919 q 438 828 438 867 m 135 828 q 163 763 135 790 q 231 736 192 736 q 297 763 269 736 q 325 828 325 790 q 297 893 325 867 q 231 919 269 919 q 163 893 192 919 q 135 828 135 867 z "},"ж":{"ha":1053,"x_min":0,"x_max":1053,"o":"m 844 639 l 567 375 l 872 0 l 1053 0 l 740 365 l 1025 639 l 844 639 m 597 639 l 456 639 l 456 0 l 597 0 l 597 639 m 208 639 l 28 639 l 313 365 l 0 0 l 181 0 l 486 375 l 208 639 z "},"з":{"ha":690,"x_min":83,"x_max":628,"o":"m 350 319 q 536 362 472 317 q 600 476 600 407 q 569 565 600 525 q 485 629 539 606 q 363 653 431 653 q 234 625 290 653 q 147 550 178 597 q 115 443 115 503 l 258 443 q 270 485 258 465 q 306 519 282 506 q 364 532 329 532 q 431 513 406 532 q 456 461 456 493 q 431 408 456 429 q 350 386 406 386 l 350 319 m 360 -14 q 496 10 435 -14 q 592 80 557 35 q 628 188 628 125 q 553 320 628 276 q 350 361 479 364 l 350 288 q 423 276 393 288 q 468 245 453 265 q 483 194 483 225 q 469 147 483 168 q 426 115 454 126 q 360 104 399 104 q 270 135 300 104 q 231 208 240 165 l 83 208 q 166 48 94 110 q 360 -14 238 -14 z "},"и":{"ha":783,"x_min":101,"x_max":682,"o":"m 675 500 l 682 688 l 108 139 l 101 -49 l 675 500 m 249 639 l 101 639 l 101 -49 l 249 122 l 249 639 m 682 688 l 535 518 l 535 0 l 682 0 l 682 688 z "},"й":{"ha":783,"x_min":101,"x_max":682,"o":"m 675 500 l 682 688 l 108 139 l 101 -49 l 675 500 m 249 639 l 101 639 l 101 -49 l 249 122 l 249 639 m 682 688 l 535 518 l 535 0 l 682 0 l 682 688 m 175 965 q 200 869 175 915 q 275 796 225 824 q 397 768 325 768 q 521 796 471 768 q 596 869 571 824 q 621 965 621 915 l 507 965 q 497 923 507 944 q 462 885 486 901 q 397 869 438 869 q 334 885 358 869 q 299 923 310 901 q 289 965 289 944 l 175 965 z "},"ѝ":{"ha":783,"x_min":101,"x_max":682,"o":"m 675 500 l 682 688 l 108 139 l 101 -49 l 675 500 m 249 639 l 101 639 l 101 -49 l 249 122 l 249 639 m 682 688 l 535 518 l 535 0 l 682 0 l 682 688 m 168 979 l 418 771 l 504 819 l 296 1042 l 168 979 z "},"к":{"ha":688,"x_min":90,"x_max":685,"o":"m 90 639 l 90 0 l 238 0 l 238 639 l 90 639 m 472 639 l 197 375 l 501 0 l 685 0 l 381 375 l 657 639 l 472 639 z "},"ќ":{"ha":611,"x_min":90,"x_max":685,"o":"m 90 639 l 90 0 l 238 0 l 238 639 l 90 639 m 472 639 l 197 375 l 501 0 l 685 0 l 381 375 l 657 639 l 472 639 m 624 944 l 497 1007 l 289 785 l 374 736 l 624 944 z "},"л":{"ha":811,"x_min":14,"x_max":700,"o":"m 700 639 l 115 639 l 115 243 q 85 158 115 181 q 14 136 56 136 l 14 0 q 159 24 104 0 q 238 98 214 49 q 263 222 263 147 l 263 500 l 553 500 l 553 0 l 700 0 l 700 639 z "},"м":{"ha":871,"x_min":7,"x_max":864,"o":"m 704 0 l 864 0 l 688 688 l 607 479 l 704 0 m 392 131 l 433 -43 l 701 442 l 688 688 l 392 131 m 433 -43 l 475 131 l 185 688 l 171 442 l 433 -43 m 7 0 l 167 0 l 264 479 l 185 688 l 7 0 z "},"н":{"ha":813,"x_min":96,"x_max":717,"o":"m 161 275 l 650 275 l 650 400 l 161 400 l 161 275 m 569 639 l 569 0 l 717 0 l 717 639 l 569 639 m 96 639 l 96 0 l 243 0 l 243 639 l 96 639 z "},"о":{"ha":783,"x_min":47,"x_max":736,"o":"m 47 319 q 92 147 47 222 q 216 28 138 71 q 392 -14 294 -14 q 568 28 490 -14 q 691 147 646 71 q 736 319 736 222 q 691 493 736 418 q 568 610 646 568 q 392 653 490 653 q 216 610 294 653 q 92 493 138 568 q 47 319 47 418 m 201 319 q 226 425 201 379 q 294 496 251 471 q 392 521 338 521 q 489 496 446 521 q 557 425 532 471 q 582 319 582 379 q 557 215 582 260 q 489 144 532 169 q 392 118 446 118 q 294 144 338 118 q 226 215 251 169 q 201 319 201 260 z "},"п":{"ha":757,"x_min":96,"x_max":661,"o":"m 661 639 l 96 639 l 96 0 l 243 0 l 243 504 l 514 504 l 514 0 l 661 0 l 661 639 z "},"р":{"ha":818,"x_min":90,"x_max":771,"o":"m 242 -306 l 242 639 l 90 639 l 90 -306 l 242 -306 m 771 319 q 728 502 771 428 q 614 617 685 576 q 460 657 543 657 q 319 615 379 657 q 225 499 258 574 q 192 319 192 424 q 225 141 192 217 q 319 24 258 65 q 460 -17 379 -17 q 614 23 543 -17 q 728 138 685 63 q 771 319 771 214 m 615 319 q 589 211 615 256 q 519 143 563 167 q 424 119 476 119 q 338 142 379 119 q 269 210 296 165 q 242 319 242 254 q 269 429 242 385 q 338 497 296 474 q 424 519 379 519 q 519 497 476 519 q 589 428 563 474 q 615 319 615 383 z "},"с":{"ha":672,"x_min":42,"x_max":603,"o":"m 196 319 q 222 425 196 379 q 294 497 249 471 q 394 524 339 524 q 481 510 439 524 q 555 472 522 496 q 603 415 588 447 l 603 582 q 513 633 569 614 q 388 653 456 653 q 212 610 290 653 q 88 493 133 568 q 42 319 42 418 q 88 147 42 222 q 212 28 133 71 q 388 -14 290 -14 q 513 6 456 -14 q 603 58 569 25 l 603 224 q 556 169 588 193 q 483 130 524 144 q 394 115 442 115 q 294 142 339 115 q 222 214 249 168 q 196 319 196 260 z "},"т":{"ha":418,"x_min":7,"x_max":411,"o":"m 7 639 l 7 507 l 411 507 l 411 639 l 7 639 m 136 611 l 136 0 l 283 0 l 283 611 l 136 611 z "},"у":{"ha":657,"x_min":-6,"x_max":661,"o":"m 661 639 l 500 639 l 300 138 l 371 133 l 167 639 l -6 639 l 253 75 l 85 -306 l 244 -306 l 661 639 z "},"ў":{"ha":611,"x_min":-6,"x_max":661,"o":"m 661 639 l 500 639 l 300 138 l 371 133 l 167 639 l -6 639 l 253 75 l 85 -306 l 244 -306 l 661 639 m 106 935 q 131 838 106 883 q 206 765 156 793 q 328 736 256 736 q 451 765 401 736 q 526 838 501 793 q 551 935 551 883 l 438 935 q 427 892 438 914 q 392 854 417 869 q 328 839 368 839 q 265 854 289 839 q 230 892 240 869 q 219 935 219 914 l 106 935 z "},"ф":{"ha":860,"x_min":47,"x_max":813,"o":"m 357 778 l 357 -139 l 503 -139 l 503 778 l 357 778 m 47 319 q 94 147 47 222 q 226 28 140 71 q 429 -14 313 -14 q 633 28 547 -14 q 766 147 719 71 q 813 319 813 222 q 766 493 813 418 q 633 610 719 568 q 429 653 547 653 q 226 610 313 653 q 94 493 140 568 q 47 319 47 418 m 190 319 q 218 425 190 379 q 299 496 246 471 q 429 521 351 521 q 561 496 508 521 q 641 425 614 471 q 668 319 668 379 q 641 215 668 260 q 561 144 614 169 q 429 118 508 118 q 299 144 351 118 q 218 215 246 169 q 190 319 190 260 z "},"х":{"ha":646,"x_min":0,"x_max":646,"o":"m 464 639 l 325 439 l 186 639 l 14 639 l 244 329 l 0 0 l 172 0 l 325 219 l 478 0 l 646 0 l 403 329 l 632 639 l 464 639 z "},"ц":{"ha":817,"x_min":96,"x_max":776,"o":"m 665 132 l 665 639 l 514 639 l 514 132 l 247 132 l 247 639 l 96 639 l 96 0 l 639 0 l 639 -132 l 776 -132 l 776 132 l 665 132 z "},"ч":{"ha":708,"x_min":69,"x_max":610,"o":"m 319 181 l 538 181 l 538 313 l 344 313 l 319 181 m 458 639 l 458 0 l 610 0 l 610 639 l 458 639 m 221 639 l 69 639 l 69 456 q 92 301 69 363 q 169 210 114 240 q 319 181 224 181 l 344 313 q 272 326 299 313 q 233 370 244 340 q 221 449 221 400 l 221 639 z "},"ш":{"ha":1115,"x_min":96,"x_max":1019,"o":"m 632 132 l 632 639 l 483 639 l 483 132 l 243 132 l 243 639 l 96 639 l 96 0 l 1019 0 l 1019 639 l 872 639 l 872 132 l 632 132 z "},"щ":{"ha":1171,"x_min":96,"x_max":1131,"o":"m 632 132 l 632 639 l 483 639 l 483 132 l 243 132 l 243 639 l 96 639 l 96 0 l 993 0 l 993 -132 l 1131 -132 l 1131 132 l 1019 132 l 1019 639 l 872 639 l 872 132 l 632 132 z "},"ъ":{"ha":822,"x_min":7,"x_max":754,"o":"m 322 294 l 506 294 q 583 272 557 294 q 608 208 608 250 q 597 163 608 182 q 562 133 585 143 q 506 124 539 124 l 322 124 l 322 0 l 521 0 q 640 24 588 0 q 724 94 693 47 q 754 210 754 142 q 687 360 754 313 q 521 408 619 408 l 322 408 l 322 294 m 222 507 l 222 0 l 367 0 l 367 639 l 7 639 l 7 507 l 222 507 z "},"ы":{"ha":963,"x_min":96,"x_max":867,"o":"m 715 639 l 715 0 l 867 0 l 867 639 l 715 639 m 96 639 l 96 0 l 247 0 l 247 639 l 96 639 m 201 294 l 385 294 q 461 272 435 294 q 488 208 488 250 q 476 163 488 182 q 441 133 464 143 q 385 124 418 124 l 201 124 l 201 0 l 400 0 q 519 24 467 0 q 603 94 572 47 q 633 210 633 142 q 566 360 633 313 q 400 408 499 408 l 201 408 l 201 294 z "},"ь":{"ha":706,"x_min":99,"x_max":636,"o":"m 99 639 l 99 0 l 250 0 l 250 639 l 99 639 m 204 294 l 388 294 q 465 272 439 294 q 490 208 490 250 q 478 163 490 182 q 444 133 467 143 q 388 124 421 124 l 204 124 l 204 0 l 403 0 q 522 24 469 0 q 606 94 575 47 q 636 210 636 142 q 569 360 636 313 q 403 408 501 408 l 204 408 l 204 294 z "},"э":{"ha":672,"x_min":69,"x_max":631,"o":"m 176 378 l 176 261 l 517 261 l 590 378 l 176 378 m 476 319 q 451 206 476 254 q 380 132 425 158 q 278 106 335 106 q 190 119 232 106 q 117 158 149 133 q 69 214 86 183 l 69 58 q 160 6 103 25 q 285 -14 217 -14 q 463 28 385 -14 q 585 147 540 71 q 631 319 631 222 q 585 493 631 418 q 463 610 540 568 q 285 653 385 653 q 160 633 217 653 q 69 582 103 614 l 69 426 q 118 482 86 458 q 192 519 150 506 q 278 533 233 533 q 380 507 335 533 q 451 432 425 481 q 476 319 476 383 z "},"ю":{"ha":1078,"x_min":96,"x_max":1031,"o":"m 161 275 l 453 275 l 453 400 l 161 400 l 161 275 m 96 639 l 96 0 l 243 0 l 243 639 l 96 639 m 342 319 q 388 147 342 222 q 511 28 433 71 q 686 -14 589 -14 q 863 28 785 -14 q 985 147 940 71 q 1031 319 1031 222 q 985 493 1031 418 q 863 610 940 568 q 686 653 785 653 q 511 610 589 653 q 388 493 433 568 q 342 319 342 418 m 496 319 q 522 425 496 379 q 590 496 547 471 q 686 521 633 521 q 783 496 740 521 q 851 425 826 471 q 876 319 876 379 q 851 215 876 260 q 783 144 826 169 q 686 118 740 118 q 590 144 633 118 q 522 215 547 169 q 496 319 496 260 z "},"я":{"ha":706,"x_min":67,"x_max":642,"o":"m 228 0 l 439 317 l 286 317 l 67 0 l 228 0 m 642 0 l 642 639 l 490 639 l 490 0 l 642 0 m 547 360 l 360 360 q 301 368 325 360 q 266 393 278 376 q 254 438 254 410 q 266 481 254 464 q 301 506 278 497 q 360 514 325 514 l 547 514 l 547 639 l 349 639 q 227 619 283 639 q 138 558 171 600 q 104 444 104 515 q 138 330 104 374 q 227 266 171 286 q 349 246 283 246 l 547 246 l 547 360 z "},"ª":{"ha":349,"x_min":26,"x_max":321,"o":"m 103 738 q 122 781 103 763 q 175 799 142 799 q 227 791 204 799 q 269 768 250 783 l 269 808 q 233 831 261 817 q 164 846 206 846 q 68 816 110 846 q 26 736 26 786 q 60 659 26 686 q 140 632 94 632 q 224 658 190 632 q 258 729 258 683 l 247 765 q 221 707 247 724 q 163 690 194 690 q 117 704 131 690 q 103 738 103 718 m 86 886 q 124 905 97 893 q 185 917 150 917 q 229 904 211 917 q 247 868 247 892 l 247 639 l 321 639 l 321 879 q 284 953 321 928 q 189 979 247 979 q 112 967 146 979 q 57 942 78 954 l 86 886 z "},"º":{"ha":386,"x_min":28,"x_max":372,"o":"m 28 806 q 76 685 28 732 q 199 639 125 639 q 323 685 274 639 q 372 806 372 732 q 323 926 372 881 q 199 972 274 972 q 76 926 125 972 q 28 806 28 881 m 104 806 q 131 878 104 850 q 199 906 158 906 q 267 878 240 906 q 294 806 294 850 q 267 733 294 761 q 199 706 240 706 q 131 733 158 706 q 104 806 104 761 z "},"̀":{"ha":0,"x_min":0,"x_max":335,"o":"m 250 751 l 335 800 l 126 1022 l 0 960 l 250 751 z "},"́":{"ha":0,"x_min":21,"x_max":356,"o":"m 106 754 l 356 963 l 229 1025 l 21 803 l 106 754 z "},"̂":{"ha":0,"x_min":0,"x_max":442,"o":"m 71 761 l 246 908 l 197 908 l 371 761 l 442 849 l 221 1026 l 0 849 l 71 761 z "},"̃":{"ha":0,"x_min":0,"x_max":493,"o":"m 85 810 q 91 840 85 824 q 113 868 97 856 q 156 881 129 881 q 211 864 188 881 q 262 830 235 847 q 326 813 289 813 q 397 828 364 813 q 456 870 431 844 q 493 921 482 896 l 415 997 q 374 946 394 964 q 329 928 353 928 q 283 938 301 928 q 250 962 265 949 q 213 985 235 975 q 157 996 190 996 q 88 980 122 996 q 31 937 54 964 q 0 875 7 910 l 85 810 z "},"̄":{"ha":0,"x_min":0,"x_max":499,"o":"m 0 814 l 499 814 l 499 938 l 0 938 l 0 814 z "},"̆":{"ha":0,"x_min":0,"x_max":446,"o":"m 224 754 q 339 779 289 754 q 417 849 389 804 q 446 951 446 894 l 322 951 q 309 903 322 925 q 274 868 296 881 q 224 856 251 856 q 172 869 194 856 q 137 903 150 882 q 124 951 124 925 l 0 951 q 28 849 0 894 q 107 779 57 804 q 224 754 157 754 z "},"̇":{"ha":0,"x_min":0,"x_max":190,"o":"m 94 771 q 163 798 135 771 q 190 863 190 825 q 163 926 190 900 q 94 953 135 953 q 28 926 56 953 q 0 863 0 900 q 28 798 0 825 q 94 771 56 771 z "},"̈":{"ha":0,"x_min":0,"x_max":492,"o":"m 94 810 q 164 835 138 810 q 190 901 190 860 q 164 968 190 943 q 94 993 138 993 q 26 968 51 993 q 0 901 0 943 q 26 835 0 860 q 94 810 51 810 m 397 810 q 466 835 440 810 q 492 901 492 860 q 466 968 492 943 q 397 993 440 993 q 328 968 354 993 q 303 901 303 943 q 328 835 303 860 q 397 810 354 810 z "},"̊":{"ha":0,"x_min":0,"x_max":331,"o":"m 165 722 q 249 744 211 722 q 308 801 286 765 q 331 881 331 836 q 308 960 331 925 q 249 1017 286 996 q 165 1039 211 1039 q 48 993 96 1039 q 0 881 0 947 q 48 768 0 814 q 165 722 96 722 m 165 804 q 113 826 135 804 q 92 881 92 849 q 113 935 92 913 q 165 957 135 957 q 217 935 196 957 q 239 881 239 913 q 217 826 239 849 q 165 804 196 804 z "},"̋":{"ha":0,"x_min":0,"x_max":529,"o":"m 94 717 l 288 978 l 150 1011 l 0 744 l 94 717 m 335 717 l 529 978 l 390 1011 l 242 744 l 335 717 z "},"̌":{"ha":0,"x_min":0,"x_max":442,"o":"m 221 761 l 442 940 l 371 1026 l 197 879 l 246 879 l 71 1026 l 0 940 l 221 761 z "},"̒":{"ha":0,"x_min":0,"x_max":274,"o":"m 151 693 l 274 1053 l 161 1083 l 0 736 l 151 693 z "},"̦":{"ha":0,"x_min":0,"x_max":242,"o":"m 79 -297 l 242 -75 l 135 -25 l 0 -262 l 79 -297 z "},"̧":{"ha":0,"x_min":0,"x_max":299,"o":"m 144 -303 q 255 -264 211 -303 q 299 -167 299 -225 q 269 -90 299 -124 q 196 -56 240 -56 q 147 -62 167 -56 q 111 -85 128 -69 l 161 -92 l 257 88 l 158 90 l 54 -122 q 93 -119 71 -119 q 132 -119 115 -119 q 183 -131 167 -119 q 199 -165 199 -142 q 182 -204 199 -190 q 135 -218 165 -218 q 85 -212 108 -218 q 35 -192 63 -207 l 0 -264 q 67 -293 32 -283 q 144 -303 103 -303 z "},"̨":{"ha":0,"x_min":0,"x_max":297,"o":"m 168 -306 q 249 -288 217 -306 q 297 -250 282 -271 l 251 -169 q 222 -190 238 -183 q 182 -197 207 -197 q 138 -183 153 -197 q 122 -135 122 -168 q 138 -87 122 -111 q 181 -40 153 -62 q 244 0 208 -17 l 188 35 q 96 -21 139 10 q 26 -87 53 -51 q 0 -167 0 -124 q 20 -240 0 -208 q 77 -289 40 -272 q 168 -306 114 -306 z "},"０":{"ha":833,"x_min":38,"x_max":794,"o":"m 200 486 q 215 629 200 564 q 258 742 229 694 q 327 815 288 789 q 417 840 367 840 q 506 815 467 840 q 574 742 546 789 q 618 629 603 694 q 633 486 633 564 q 618 343 633 408 q 574 231 603 278 q 506 158 546 183 q 417 132 467 132 q 327 158 367 132 q 258 231 288 183 q 215 343 229 278 q 200 486 200 408 m 38 486 q 85 222 38 335 q 219 47 133 110 q 417 -15 304 -15 q 615 47 531 -15 q 747 222 700 110 q 794 486 794 335 q 747 750 794 638 q 615 925 700 863 q 417 988 531 988 q 219 925 304 988 q 85 750 133 863 q 38 486 38 638 z "},"１":{"ha":833,"x_min":157,"x_max":543,"o":"m 157 744 l 382 807 l 382 0 l 543 0 l 543 988 l 157 900 l 157 744 z "},"２":{"ha":833,"x_min":29,"x_max":771,"o":"m 29 0 l 771 0 l 771 153 l 349 153 l 625 424 q 722 545 685 479 q 758 688 758 611 q 739 792 758 739 q 680 890 719 846 q 579 962 640 935 q 433 989 518 989 q 244 942 324 989 q 123 815 165 896 q 81 629 81 733 l 243 629 q 267 742 243 693 q 333 816 292 790 q 431 842 375 842 q 501 828 471 842 q 550 793 531 815 q 579 744 569 771 q 589 689 589 717 q 576 615 589 650 q 538 546 563 581 q 478 474 513 511 l 29 0 z "},"３":{"ha":833,"x_min":90,"x_max":760,"o":"m 376 476 q 560 507 481 476 q 685 594 639 538 q 732 725 732 651 q 697 856 732 797 q 594 951 661 915 q 433 988 526 988 q 276 952 344 988 q 170 856 208 917 q 132 714 132 794 l 286 714 q 328 810 286 772 q 433 849 371 849 q 507 832 478 849 q 551 785 536 815 q 567 717 567 756 q 553 658 567 686 q 516 609 540 631 q 456 576 492 588 q 376 564 421 564 l 376 476 m 425 -17 q 601 18 526 -17 q 717 115 675 53 q 760 261 760 178 q 731 385 760 333 q 649 471 701 438 q 527 519 596 504 q 376 535 458 535 l 376 442 q 466 431 426 442 q 534 399 506 419 q 578 347 563 378 q 594 278 594 317 q 574 195 594 229 q 516 143 553 161 q 429 125 479 125 q 340 144 379 125 q 277 197 300 163 q 254 278 254 232 l 90 278 q 114 165 90 218 q 181 70 138 111 q 285 6 224 29 q 425 -17 347 -17 z "},"４":{"ha":833,"x_min":22,"x_max":799,"o":"m 22 186 l 799 186 l 799 328 l 588 328 l 564 317 l 157 317 l 22 186 m 185 214 l 494 679 l 494 251 l 485 236 l 485 0 l 653 0 l 653 972 l 554 972 l 22 186 l 185 214 z "},"５":{"ha":833,"x_min":47,"x_max":772,"o":"m 772 317 q 733 488 772 415 q 626 600 693 560 q 479 640 560 640 q 351 617 413 640 q 239 539 289 594 l 131 438 q 223 485 181 468 q 306 508 265 501 q 390 514 347 514 q 493 492 446 514 q 568 428 540 469 q 596 326 596 386 q 572 226 596 268 q 501 160 547 183 q 390 138 456 138 q 297 156 343 138 q 213 206 251 175 q 144 276 174 238 l 47 157 q 135 72 85 111 q 253 8 185 32 q 411 -15 322 -15 q 546 5 482 -15 q 661 66 610 25 q 742 169 713 107 q 772 317 772 232 m 386 828 l 763 828 l 763 972 l 263 972 l 131 438 l 310 558 l 386 828 z "},"６":{"ha":833,"x_min":60,"x_max":774,"o":"m 221 328 q 247 434 221 388 q 317 506 272 481 q 417 532 361 532 q 517 506 472 532 q 587 434 561 481 q 613 328 613 388 q 587 224 613 268 q 517 153 561 179 q 417 128 472 128 q 317 153 361 128 q 247 224 272 179 q 221 328 221 268 m 450 971 l 142 557 q 83 453 106 511 q 60 328 60 396 q 108 143 60 221 q 236 24 156 65 q 417 -17 317 -17 q 597 24 517 -17 q 726 143 678 65 q 774 328 774 221 q 749 456 774 397 q 684 556 725 514 q 590 622 643 599 q 481 644 538 644 q 394 633 431 644 q 326 585 358 621 l 350 589 l 658 971 l 450 971 z "},"７":{"ha":833,"x_min":69,"x_max":796,"o":"m 69 818 l 551 818 l 153 0 l 328 0 l 796 972 l 69 972 l 69 818 z "},"８":{"ha":833,"x_min":97,"x_max":751,"o":"m 132 738 q 155 630 132 676 q 218 551 178 583 q 311 503 258 519 q 424 486 364 486 q 536 503 483 486 q 629 551 589 519 q 693 630 669 583 q 717 738 717 676 q 677 869 717 813 q 572 958 638 925 q 424 990 506 990 q 276 958 342 990 q 171 869 210 925 q 132 738 132 813 m 288 721 q 305 793 288 761 q 353 842 322 825 q 424 860 385 860 q 494 842 464 860 q 542 793 525 825 q 560 721 560 761 q 542 649 560 679 q 492 601 524 618 q 424 583 461 583 q 356 601 386 583 q 306 649 325 618 q 288 721 288 679 m 97 264 q 122 152 97 203 q 192 63 147 101 q 297 4 238 25 q 424 -17 356 -17 q 551 4 492 -17 q 655 63 610 25 q 726 152 700 101 q 751 264 751 203 q 723 388 751 335 q 647 476 694 440 q 542 528 600 511 q 424 546 483 546 q 306 528 364 546 q 200 476 247 511 q 125 388 153 440 q 97 264 97 335 m 258 286 q 281 369 258 332 q 342 428 304 407 q 424 450 381 450 q 505 428 467 450 q 567 369 543 407 q 590 286 590 332 q 567 197 590 233 q 505 142 543 161 q 424 122 467 122 q 342 142 381 122 q 281 197 304 161 q 258 286 258 233 z "},"９":{"ha":833,"x_min":60,"x_max":774,"o":"m 613 644 q 587 539 613 585 q 517 467 561 493 q 417 440 472 440 q 317 467 361 440 q 247 539 272 493 q 221 644 221 585 q 247 749 221 704 q 317 820 272 794 q 417 846 361 846 q 517 820 472 846 q 587 749 561 794 q 613 644 613 704 m 382 1 l 692 415 q 750 519 726 463 q 774 644 774 576 q 726 830 774 753 q 597 949 678 907 q 417 990 517 990 q 236 949 317 990 q 108 830 156 907 q 60 644 60 753 q 83 517 60 575 q 149 416 107 458 q 242 351 190 374 q 353 329 294 329 q 438 340 401 329 q 507 388 475 351 l 482 383 l 174 1 l 382 1 z "},"¹":{"ha":660,"x_min":201,"x_max":433,"o":"m 201 828 l 336 865 l 336 381 l 433 381 l 433 974 l 201 921 l 201 828 z "},"²":{"ha":515,"x_min":35,"x_max":479,"o":"m 35 392 l 479 392 l 479 483 l 226 483 l 392 646 q 450 720 428 681 q 472 804 472 760 q 451 888 472 846 q 388 958 431 931 q 278 986 346 986 q 165 958 213 986 q 92 881 117 929 q 67 769 67 832 l 164 769 q 195 863 164 828 q 276 897 226 897 q 329 884 308 897 q 360 850 350 871 q 371 806 371 829 q 353 740 371 771 q 304 676 336 710 l 35 392 z "},"³":{"ha":463,"x_min":31,"x_max":433,"o":"m 203 675 q 313 694 265 675 q 389 746 361 713 q 417 824 417 779 q 369 935 417 888 q 238 982 322 982 q 106 935 157 982 q 56 818 56 889 l 149 818 q 174 876 149 853 q 238 899 200 899 q 297 877 278 899 q 317 819 317 856 q 303 774 317 794 q 265 740 290 753 q 203 728 239 728 l 203 675 m 232 379 q 378 425 322 379 q 433 546 433 471 q 403 640 433 604 q 320 693 372 676 q 203 710 268 710 l 203 654 q 272 642 243 654 q 317 609 301 631 q 333 556 333 588 q 306 488 333 513 q 235 464 279 464 q 160 489 190 464 q 131 556 131 514 l 31 556 q 55 467 31 508 q 125 403 79 426 q 232 379 171 379 z "},"¼":{"ha":1086,"x_min":39,"x_max":1039,"o":"m 865 972 l 143 0 l 251 0 l 974 972 l 865 972 m 39 828 l 174 865 l 174 381 l 271 381 l 271 974 l 39 921 l 39 828 m 558 111 l 1039 111 l 1039 197 l 908 197 l 894 190 l 639 190 l 558 111 m 660 128 l 853 408 l 853 150 l 846 142 l 846 0 l 947 0 l 947 583 l 888 583 l 558 111 l 660 128 z "},"½":{"ha":1179,"x_min":39,"x_max":1136,"o":"m 865 972 l 143 0 l 251 0 l 974 972 l 865 972 m 39 828 l 174 865 l 174 381 l 271 381 l 271 974 l 39 921 l 39 828 m 692 3 l 1136 3 l 1136 94 l 883 94 l 1049 257 q 1107 331 1085 292 q 1129 415 1129 371 q 1108 499 1129 457 q 1045 569 1088 542 q 935 597 1003 597 q 822 569 869 597 q 749 492 774 540 q 724 381 724 443 l 821 381 q 852 474 821 439 q 933 508 883 508 q 986 495 965 508 q 1017 461 1007 482 q 1028 417 1028 440 q 1010 351 1028 382 q 961 288 993 321 l 692 3 z "},"¾":{"ha":1172,"x_min":39,"x_max":1126,"o":"m 957 972 l 235 0 l 342 0 l 1064 972 l 957 972 m 213 675 q 322 694 274 675 q 397 746 369 713 q 425 824 425 779 q 378 935 425 888 q 246 982 331 982 q 115 935 165 982 q 64 818 64 889 l 157 818 q 183 876 157 853 q 246 899 208 899 q 306 877 286 899 q 326 819 326 856 q 313 774 326 794 q 273 740 299 753 q 213 728 247 728 l 213 675 m 242 379 q 386 425 331 379 q 442 546 442 471 q 411 640 442 604 q 329 693 381 676 q 213 710 278 710 l 213 654 q 281 642 251 654 q 326 609 310 631 q 343 556 343 588 q 315 488 343 513 q 243 464 288 464 q 169 489 199 464 q 139 556 139 514 l 39 556 q 64 467 39 508 q 134 403 89 426 q 242 379 179 379 m 646 111 l 1126 111 l 1126 197 l 996 197 l 982 190 l 726 190 l 646 111 m 747 128 l 940 408 l 940 150 l 933 142 l 933 0 l 1035 0 l 1035 583 l 975 583 l 646 111 l 747 128 z "},"⁰":{"ha":528,"x_min":36,"x_max":490,"o":"m 133 681 q 149 791 133 743 q 195 866 165 839 q 264 893 225 893 q 333 866 304 893 q 378 791 363 839 q 394 681 394 743 q 378 570 394 618 q 333 495 363 522 q 264 468 304 468 q 195 495 225 468 q 149 570 165 522 q 133 681 133 618 m 36 681 q 65 524 36 592 q 146 417 94 456 q 264 379 197 379 q 383 417 332 379 q 462 524 433 456 q 490 681 490 592 q 462 838 490 771 q 383 944 433 906 q 264 982 332 982 q 146 944 197 982 q 65 838 94 906 q 36 681 36 771 z "},"⁴":{"ha":558,"x_min":33,"x_max":515,"o":"m 33 500 l 515 500 l 515 586 l 383 586 l 369 579 l 115 579 l 33 500 m 136 517 l 328 797 l 328 539 l 322 531 l 322 389 l 424 389 l 424 972 l 364 972 l 33 500 l 136 517 z "},"⁵":{"ha":513,"x_min":39,"x_max":472,"o":"m 472 576 q 449 678 472 635 q 386 747 426 722 q 297 771 346 771 q 221 757 258 771 q 153 710 183 743 l 89 649 q 169 685 133 676 q 243 694 204 694 q 331 665 294 694 q 367 582 367 636 q 334 499 367 529 q 243 468 301 468 q 163 493 203 468 q 96 553 122 518 l 39 481 q 124 408 72 439 q 256 376 175 376 q 362 398 313 376 q 442 465 411 419 q 472 576 472 510 m 240 883 l 467 883 l 467 969 l 167 969 l 89 649 l 196 721 l 240 883 z "},"⁶":{"ha":501,"x_min":43,"x_max":471,"o":"m 139 583 q 155 647 139 619 q 197 690 171 675 q 257 706 224 706 q 317 690 290 706 q 359 647 344 675 q 374 583 374 619 q 341 496 374 529 q 257 463 308 463 q 173 496 207 463 q 139 583 139 529 m 276 968 l 92 721 q 57 658 71 693 q 43 583 43 624 q 72 472 43 519 q 149 401 100 425 q 257 376 197 376 q 365 401 317 376 q 442 472 414 425 q 471 583 471 519 q 446 681 471 639 q 381 748 421 724 q 296 772 342 772 q 244 766 267 772 q 203 738 222 760 l 217 740 l 403 968 l 276 968 z "},"⁷":{"ha":506,"x_min":38,"x_max":474,"o":"m 38 879 l 328 879 l 89 389 l 193 389 l 474 972 l 38 972 l 38 879 z "},"⁸":{"ha":469,"x_min":38,"x_max":431,"o":"m 58 832 q 82 751 58 785 q 147 699 106 717 q 235 681 188 681 q 323 699 283 681 q 386 751 363 717 q 410 832 410 785 q 386 910 410 876 q 323 964 363 944 q 235 983 283 983 q 145 964 185 983 q 82 910 106 944 q 58 832 58 876 m 153 822 q 176 881 153 858 q 235 904 199 904 q 292 881 269 904 q 315 822 315 858 q 305 778 315 797 q 276 749 294 760 q 235 739 257 739 q 194 749 213 739 q 164 778 175 760 q 153 822 153 797 m 38 547 q 64 461 38 500 q 135 401 90 422 q 235 379 181 379 q 333 401 289 379 q 404 461 378 422 q 431 547 431 500 q 414 622 431 590 q 369 674 397 654 q 306 706 340 694 q 235 717 271 717 q 163 706 199 717 q 99 674 128 694 q 54 622 71 654 q 38 547 38 590 m 135 561 q 149 611 135 589 q 186 646 164 633 q 235 658 208 658 q 283 646 260 658 q 319 611 306 633 q 333 561 333 589 q 303 488 333 513 q 235 463 274 463 q 165 488 196 463 q 135 561 135 513 z "},"⁹":{"ha":500,"x_min":49,"x_max":476,"o":"m 379 778 q 365 714 379 742 q 323 671 350 686 q 263 656 296 656 q 203 671 229 656 q 160 714 176 686 q 144 778 144 742 q 178 866 144 833 q 263 899 213 899 q 347 866 314 899 q 379 778 379 833 m 242 393 l 426 640 q 463 704 449 669 q 476 778 476 739 q 448 890 476 843 q 371 961 419 936 q 263 986 322 986 q 154 961 203 986 q 77 890 106 936 q 49 778 49 843 q 74 681 49 724 q 138 613 99 638 q 224 589 178 589 q 275 596 253 589 q 315 624 297 603 l 301 621 l 117 393 l 242 393 z "},"₀":{"ha":528,"x_min":36,"x_max":490,"o":"m 133 292 q 149 402 133 354 q 195 477 165 450 q 264 504 225 504 q 333 477 304 504 q 378 402 363 450 q 394 292 394 354 q 378 181 394 229 q 333 106 363 133 q 264 79 304 79 q 195 106 225 79 q 149 181 165 133 q 133 292 133 229 m 36 292 q 65 135 36 203 q 146 28 94 67 q 264 -10 197 -10 q 383 28 332 -10 q 462 135 433 67 q 490 292 490 203 q 462 449 490 382 q 383 555 433 517 q 264 593 332 593 q 146 555 197 593 q 65 449 94 517 q 36 292 36 382 z "},"₁":{"ha":463,"x_min":125,"x_max":357,"o":"m 125 449 l 261 486 l 261 1 l 357 1 l 357 594 l 125 542 l 125 449 z "},"₂":{"ha":517,"x_min":36,"x_max":481,"o":"m 36 3 l 481 3 l 481 94 l 229 94 l 393 257 q 451 331 429 292 q 474 415 474 371 q 453 499 474 457 q 390 569 432 542 q 279 597 347 597 q 166 569 214 597 q 93 492 118 540 q 68 381 68 443 l 165 381 q 197 474 165 439 q 278 508 229 508 q 331 495 311 508 q 362 461 351 482 q 372 417 372 440 q 355 351 372 382 q 306 288 338 321 l 36 3 z "},"₃":{"ha":467,"x_min":33,"x_max":436,"o":"m 206 286 q 316 305 268 286 q 392 357 364 324 q 419 435 419 390 q 372 546 419 499 q 240 593 325 593 q 109 547 160 593 q 58 429 58 500 l 151 429 q 177 487 151 464 q 240 510 203 510 q 300 488 281 510 q 319 431 319 467 q 306 385 319 406 q 267 351 292 364 q 206 339 242 339 l 206 286 m 235 -10 q 381 36 325 -10 q 436 157 436 82 q 405 251 436 215 q 322 304 374 288 q 206 321 271 321 l 206 265 q 275 253 246 265 q 320 220 304 242 q 336 167 336 199 q 309 99 336 124 q 238 75 282 75 q 163 100 193 75 q 132 167 132 125 l 33 167 q 58 78 33 119 q 128 14 82 38 q 235 -10 174 -10 z "},"₄":{"ha":561,"x_min":33,"x_max":514,"o":"m 33 111 l 514 111 l 514 197 l 383 197 l 369 190 l 114 190 l 33 111 m 135 128 l 328 408 l 328 150 l 321 142 l 321 0 l 422 0 l 422 583 l 363 583 l 33 111 l 135 128 z "},"₅":{"ha":517,"x_min":40,"x_max":474,"o":"m 474 188 q 451 290 474 246 q 388 358 428 333 q 299 382 347 382 q 223 368 260 382 q 154 321 186 354 l 90 260 q 171 297 135 288 q 244 306 207 306 q 332 276 296 306 q 368 193 368 247 q 336 110 368 140 q 244 79 304 79 q 164 104 204 79 q 97 164 124 129 l 40 92 q 125 19 74 50 q 257 -12 176 -12 q 363 9 314 -12 q 443 76 413 31 q 474 188 474 121 m 243 494 l 468 494 l 468 581 l 168 581 l 90 260 l 197 332 l 243 494 z "},"₆":{"ha":508,"x_min":43,"x_max":472,"o":"m 140 194 q 156 258 140 231 q 197 301 171 286 q 258 317 224 317 q 318 301 292 317 q 360 258 344 286 q 375 194 375 231 q 342 107 375 140 q 258 74 308 74 q 174 107 208 74 q 140 194 140 140 m 278 579 l 93 332 q 58 269 72 304 q 43 194 43 235 q 72 83 43 131 q 150 12 101 36 q 258 -12 199 -12 q 367 12 318 -12 q 444 83 415 36 q 472 194 472 131 q 447 292 472 250 q 382 359 422 335 q 296 383 342 383 q 245 377 267 383 q 204 349 224 371 l 218 351 l 404 579 l 278 579 z "},"₇":{"ha":508,"x_min":40,"x_max":475,"o":"m 40 490 l 329 490 l 90 0 l 196 0 l 475 583 l 40 583 l 40 490 z "},"₈":{"ha":474,"x_min":40,"x_max":433,"o":"m 61 443 q 85 362 61 396 q 149 310 108 328 q 236 292 189 292 q 325 310 285 292 q 389 362 365 328 q 413 443 413 396 q 389 522 413 488 q 326 575 365 556 q 236 594 286 594 q 147 575 188 594 q 84 522 107 556 q 61 443 61 488 m 156 433 q 178 492 156 469 q 236 515 201 515 q 295 492 272 515 q 318 433 318 469 q 308 390 318 408 q 278 360 297 371 q 236 350 260 350 q 196 360 214 350 q 167 390 178 371 q 156 433 156 408 m 40 158 q 67 72 40 111 q 138 12 93 33 q 236 -10 183 -10 q 336 12 292 -10 q 407 72 381 33 q 433 158 433 111 q 417 233 433 201 q 372 285 400 265 q 308 317 343 306 q 236 328 272 328 q 165 317 200 328 q 102 285 131 306 q 57 233 74 265 q 40 158 40 201 m 138 172 q 151 222 138 200 q 188 257 165 244 q 236 269 211 269 q 285 257 263 269 q 322 222 307 244 q 336 172 336 200 q 306 99 336 124 q 236 74 276 74 q 168 99 199 74 q 138 172 138 124 z "},"₉":{"ha":510,"x_min":35,"x_max":464,"o":"m 367 389 q 351 325 367 353 q 310 282 336 297 q 249 267 283 267 q 189 282 215 267 q 147 325 163 297 q 132 389 132 353 q 165 477 132 444 q 249 510 199 510 q 333 477 300 510 q 367 389 367 444 m 229 4 l 414 251 q 449 315 435 281 q 464 389 464 350 q 435 501 464 454 q 358 572 406 547 q 249 597 310 597 q 142 572 190 597 q 64 501 93 547 q 35 389 35 454 q 60 291 35 333 q 125 224 85 249 q 210 200 165 200 q 261 207 239 200 q 303 235 283 214 l 289 232 l 103 4 l 229 4 z "},"⅐":{"ha":1225,"x_min":39,"x_max":1188,"o":"m 810 972 l 88 0 l 210 0 l 932 972 l 810 972 m 39 828 l 174 865 l 174 381 l 271 381 l 271 974 l 39 921 l 39 828 m 753 490 l 1042 490 l 803 0 l 908 0 l 1188 583 l 753 583 l 753 490 z "},"⅑":{"ha":1144,"x_min":39,"x_max":1117,"o":"m 807 972 l 85 0 l 206 0 l 928 972 l 807 972 m 39 828 l 174 865 l 174 381 l 271 381 l 271 974 l 39 921 l 39 828 m 1021 389 q 1006 325 1021 353 q 963 282 990 297 q 903 267 936 267 q 843 282 869 267 q 801 325 817 297 q 785 389 785 353 q 819 477 785 444 q 903 510 853 510 q 988 477 954 510 q 1021 389 1021 444 m 883 4 l 1067 251 q 1103 315 1089 281 q 1117 389 1117 350 q 1088 501 1117 454 q 1012 572 1060 547 q 903 597 964 597 q 794 572 843 597 q 717 501 746 547 q 689 389 689 454 q 714 291 689 333 q 778 224 739 249 q 864 200 818 200 q 915 207 893 200 q 957 235 938 214 l 943 232 l 757 4 l 883 4 z "},"⅒":{"ha":1574,"x_min":39,"x_max":1529,"o":"m 807 972 l 85 0 l 206 0 l 928 972 l 807 972 m 39 828 l 174 865 l 174 381 l 271 381 l 271 974 l 39 921 l 39 828 m 713 449 l 849 486 l 849 1 l 944 1 l 944 594 l 713 542 l 713 449 m 1172 292 q 1188 402 1172 354 q 1234 477 1204 450 q 1303 504 1264 504 q 1372 477 1343 504 q 1417 402 1401 450 q 1433 292 1433 354 q 1417 181 1433 229 q 1372 106 1401 133 q 1303 79 1343 79 q 1234 106 1264 79 q 1188 181 1204 133 q 1172 292 1172 229 m 1075 292 q 1104 135 1075 203 q 1185 28 1133 67 q 1303 -10 1236 -10 q 1422 28 1371 -10 q 1501 135 1472 67 q 1529 292 1529 203 q 1501 449 1529 382 q 1422 555 1472 517 q 1303 593 1371 593 q 1185 555 1236 593 q 1104 449 1133 517 q 1075 292 1075 382 z "},"⅓":{"ha":1115,"x_min":39,"x_max":1079,"o":"m 806 972 l 83 0 l 206 0 l 928 972 l 806 972 m 39 828 l 174 865 l 174 381 l 271 381 l 271 974 l 39 921 l 39 828 m 849 286 q 959 305 911 286 q 1035 357 1007 324 q 1063 435 1063 390 q 1015 546 1063 499 q 883 593 968 593 q 752 547 803 593 q 701 429 701 500 l 794 429 q 820 487 794 464 q 883 510 846 510 q 943 488 924 510 q 963 431 963 467 q 949 385 963 406 q 910 351 935 364 q 849 339 885 339 l 849 286 m 878 -10 q 1024 36 968 -10 q 1079 157 1079 82 q 1048 251 1079 215 q 965 304 1017 288 q 849 321 914 321 l 849 265 q 918 253 889 265 q 963 220 947 242 q 979 167 979 199 q 952 99 979 124 q 881 75 925 75 q 806 100 836 75 q 775 167 775 125 l 676 167 q 701 78 676 119 q 771 14 725 38 q 878 -10 817 -10 z "},"⅔":{"ha":1294,"x_min":42,"x_max":1258,"o":"m 993 972 l 271 0 l 393 0 l 1115 972 l 993 972 m 42 392 l 486 392 l 486 483 l 233 483 l 399 646 q 457 720 435 681 q 479 804 479 760 q 458 888 479 846 q 395 958 438 931 q 285 986 353 986 q 172 958 219 986 q 99 881 124 929 q 74 769 74 832 l 171 769 q 202 863 171 828 q 283 897 233 897 q 336 884 315 897 q 367 850 357 871 q 378 806 378 829 q 360 740 378 771 q 311 676 343 710 l 42 392 m 1029 286 q 1138 305 1090 286 q 1214 357 1186 324 q 1242 435 1242 390 q 1194 546 1242 499 q 1063 593 1147 593 q 931 547 982 593 q 881 429 881 500 l 974 429 q 999 487 974 464 q 1063 510 1025 510 q 1123 488 1103 510 q 1143 431 1143 467 q 1129 385 1143 406 q 1090 351 1115 364 q 1029 339 1064 339 l 1029 286 m 1058 -10 q 1203 36 1147 -10 q 1258 157 1258 82 q 1228 251 1258 215 q 1146 304 1197 288 q 1029 321 1094 321 l 1029 265 q 1097 253 1068 265 q 1143 220 1126 242 q 1160 167 1160 199 q 1132 99 1160 124 q 1060 75 1104 75 q 985 100 1015 75 q 956 167 956 125 l 856 167 q 881 78 856 119 q 951 14 906 38 q 1058 -10 996 -10 z "},"⅕":{"ha":1100,"x_min":39,"x_max":1061,"o":"m 807 972 l 85 0 l 206 0 l 928 972 l 807 972 m 39 828 l 174 865 l 174 381 l 271 381 l 271 974 l 39 921 l 39 828 m 1061 188 q 1038 290 1061 246 q 975 358 1015 333 q 886 382 935 382 q 810 368 847 382 q 742 321 774 354 l 678 260 q 758 297 722 288 q 832 306 794 306 q 919 276 883 306 q 956 193 956 247 q 924 110 956 140 q 832 79 892 79 q 751 104 792 79 q 685 164 711 129 l 628 92 q 713 19 661 50 q 844 -12 764 -12 q 951 9 901 -12 q 1031 76 1000 31 q 1061 188 1061 121 m 831 494 l 1056 494 l 1056 581 l 756 581 l 678 260 l 785 332 l 831 494 z "},"⅖":{"ha":1285,"x_min":42,"x_max":1242,"o":"m 993 972 l 271 0 l 393 0 l 1115 972 l 993 972 m 42 392 l 486 392 l 486 483 l 233 483 l 399 646 q 457 720 435 681 q 479 804 479 760 q 458 888 479 846 q 395 958 438 931 q 285 986 353 986 q 172 958 219 986 q 99 881 124 929 q 74 769 74 832 l 171 769 q 202 863 171 828 q 283 897 233 897 q 336 884 315 897 q 367 850 357 871 q 378 806 378 829 q 360 740 378 771 q 311 676 343 710 l 42 392 m 1242 188 q 1218 290 1242 246 q 1155 358 1194 333 q 1067 382 1115 382 q 990 368 1028 382 q 922 321 953 354 l 858 260 q 938 297 903 288 q 1013 306 974 306 q 1100 276 1064 306 q 1136 193 1136 247 q 1103 110 1136 140 q 1013 79 1071 79 q 931 104 971 79 q 865 164 890 129 l 807 92 q 893 19 842 50 q 1025 -12 944 -12 q 1131 9 1082 -12 q 1210 76 1179 31 q 1242 188 1242 121 m 1010 494 l 1236 494 l 1236 581 l 936 581 l 858 260 l 965 332 l 1010 494 z "},"⅗":{"ha":1210,"x_min":38,"x_max":1165,"o":"m 921 972 l 199 0 l 319 0 l 1042 972 l 921 972 m 210 675 q 320 694 272 675 q 396 746 368 713 q 424 824 424 779 q 376 935 424 888 q 244 982 329 982 q 113 935 164 982 q 63 818 63 889 l 156 818 q 181 876 156 853 q 244 899 207 899 q 304 877 285 899 q 324 819 324 856 q 310 774 324 794 q 272 740 297 753 q 210 728 246 728 l 210 675 m 239 379 q 385 425 329 379 q 440 546 440 471 q 410 640 440 604 q 327 693 379 676 q 210 710 275 710 l 210 654 q 279 642 250 654 q 324 609 308 631 q 340 556 340 588 q 313 488 340 513 q 242 464 286 464 q 167 489 197 464 q 138 556 138 514 l 38 556 q 62 467 38 508 q 132 403 86 426 q 239 379 178 379 m 1165 188 q 1142 290 1165 246 q 1078 358 1118 333 q 990 382 1039 382 q 914 368 951 382 q 846 321 876 354 l 782 260 q 862 297 826 288 q 936 306 897 306 q 1024 276 988 306 q 1060 193 1060 247 q 1027 110 1060 140 q 936 79 994 79 q 854 104 894 79 q 789 164 814 129 l 731 92 q 817 19 765 50 q 949 -12 868 -12 q 1054 9 1006 -12 q 1134 76 1103 31 q 1165 188 1165 121 m 933 494 l 1160 494 l 1160 581 l 860 581 l 782 260 l 889 332 l 933 494 z "},"⅘":{"ha":1286,"x_min":38,"x_max":1244,"o":"m 983 972 l 261 0 l 382 0 l 1104 972 l 983 972 m 38 500 l 518 500 l 518 586 l 388 586 l 374 579 l 118 579 l 38 500 m 139 517 l 332 797 l 332 539 l 325 531 l 325 389 l 426 389 l 426 972 l 367 972 l 38 500 l 139 517 m 1244 186 q 1222 290 1244 246 q 1158 358 1199 333 q 1069 382 1118 382 q 994 368 1031 382 q 925 321 957 354 l 861 258 q 942 297 906 288 q 1015 306 978 306 q 1103 276 1067 306 q 1139 193 1139 247 q 1107 110 1139 140 q 1015 79 1075 79 q 935 104 975 79 q 868 163 894 129 l 811 92 q 896 18 844 49 q 1028 -12 947 -12 q 1134 9 1085 -12 q 1214 76 1183 31 q 1244 186 1244 121 m 1014 494 l 1239 494 l 1239 581 l 939 581 l 861 258 l 968 332 l 1014 494 z "},"⅙":{"ha":1096,"x_min":39,"x_max":1061,"o":"m 817 972 l 94 0 l 217 0 l 939 972 l 817 972 m 39 828 l 174 865 l 174 381 l 271 381 l 271 974 l 39 921 l 39 828 m 729 194 q 744 258 729 231 q 785 301 758 286 q 846 317 813 317 q 907 301 881 317 q 949 258 933 286 q 964 194 964 231 q 931 107 964 140 q 846 74 897 74 q 763 107 796 74 q 729 194 729 140 m 867 579 l 682 332 q 647 269 661 304 q 632 194 632 235 q 660 83 632 131 q 738 12 689 36 q 846 -12 788 -12 q 955 12 907 -12 q 1032 83 1003 36 q 1061 194 1061 131 q 1036 292 1061 250 q 971 359 1011 335 q 885 383 931 383 q 834 377 856 383 q 793 349 813 371 l 807 351 l 992 579 l 867 579 z "},"⅚":{"ha":1231,"x_min":42,"x_max":1196,"o":"m 963 972 l 240 0 l 361 0 l 1083 972 l 963 972 m 476 576 q 453 678 476 635 q 390 747 429 722 q 301 771 350 771 q 224 757 261 771 q 157 710 188 743 l 92 649 q 172 685 136 676 q 247 694 208 694 q 335 665 299 694 q 371 582 371 636 q 338 499 371 529 q 247 468 306 468 q 165 493 206 468 q 100 553 125 518 l 42 481 q 128 408 76 439 q 260 376 179 376 q 365 398 317 376 q 445 465 414 419 q 476 576 476 510 m 244 883 l 471 883 l 471 969 l 171 969 l 92 649 l 199 721 l 244 883 m 864 194 q 879 258 864 231 q 921 301 894 286 q 981 317 947 317 q 1042 301 1015 317 q 1083 258 1068 286 q 1099 194 1099 231 q 1065 107 1099 140 q 981 74 1032 74 q 897 107 931 74 q 864 194 864 140 m 1001 579 l 817 332 q 781 269 796 304 q 767 194 767 235 q 795 83 767 131 q 873 12 824 36 q 981 -12 922 -12 q 1090 12 1042 -12 q 1167 83 1138 36 q 1196 194 1196 131 q 1171 292 1196 250 q 1106 359 1146 335 q 1019 383 1065 383 q 969 377 990 383 q 928 349 947 371 l 942 351 l 1126 579 l 1001 579 z "},"⅛":{"ha":1129,"x_min":39,"x_max":1086,"o":"m 817 972 l 94 0 l 217 0 l 939 972 l 817 972 m 39 828 l 174 865 l 174 381 l 271 381 l 271 974 l 39 921 l 39 828 m 714 443 q 738 362 714 396 q 803 310 763 328 q 890 292 843 292 q 978 310 939 292 q 1042 362 1018 328 q 1065 443 1065 396 q 1042 522 1065 488 q 979 575 1019 556 q 890 594 939 594 q 802 575 842 594 q 738 522 763 556 q 714 443 714 488 m 808 433 q 831 492 808 469 q 890 515 854 515 q 949 492 926 515 q 972 433 972 469 q 961 390 972 408 q 931 360 950 371 q 890 350 913 350 q 849 360 868 350 q 819 390 831 371 q 808 433 808 408 m 693 158 q 719 72 693 111 q 791 12 746 33 q 890 -10 836 -10 q 989 12 944 -10 q 1060 72 1033 33 q 1086 158 1086 111 q 1069 233 1086 201 q 1024 285 1053 265 q 961 317 996 306 q 890 328 926 328 q 819 317 854 328 q 756 285 785 306 q 710 233 728 265 q 693 158 693 201 m 790 172 q 805 222 790 200 q 842 257 819 244 q 890 269 864 269 q 939 257 917 269 q 975 222 961 244 q 989 172 989 200 q 959 99 989 124 q 890 74 929 74 q 821 99 851 74 q 790 172 790 124 z "},"⅜":{"ha":1236,"x_min":38,"x_max":1193,"o":"m 924 972 l 201 0 l 324 0 l 1046 972 l 924 972 m 210 675 q 320 694 272 675 q 396 746 368 713 q 424 824 424 779 q 376 935 424 888 q 244 982 329 982 q 113 935 164 982 q 63 818 63 889 l 156 818 q 181 876 156 853 q 244 899 207 899 q 304 877 285 899 q 324 819 324 856 q 310 774 324 794 q 272 740 297 753 q 210 728 246 728 l 210 675 m 239 379 q 385 425 329 379 q 440 546 440 471 q 410 640 440 604 q 327 693 379 676 q 210 710 275 710 l 210 654 q 279 642 250 654 q 324 609 308 631 q 340 556 340 588 q 313 488 340 513 q 242 464 286 464 q 167 489 197 464 q 138 556 138 514 l 38 556 q 62 467 38 508 q 132 403 86 426 q 239 379 178 379 m 821 443 q 845 362 821 396 q 910 310 869 328 q 997 292 950 292 q 1085 310 1046 292 q 1149 362 1125 328 q 1172 443 1172 396 q 1149 522 1172 488 q 1086 575 1126 556 q 997 594 1046 594 q 909 575 949 594 q 845 522 869 556 q 821 443 821 488 m 915 433 q 938 492 915 469 q 997 515 961 515 q 1056 492 1033 515 q 1079 433 1079 469 q 1068 390 1079 408 q 1038 360 1057 371 q 997 350 1019 350 q 956 360 975 350 q 926 390 938 371 q 915 433 915 408 m 800 158 q 826 72 800 111 q 898 12 853 33 q 997 -10 943 -10 q 1096 12 1051 -10 q 1167 72 1140 33 q 1193 158 1193 111 q 1176 233 1193 201 q 1131 285 1160 265 q 1068 317 1103 306 q 997 328 1033 328 q 926 317 961 328 q 863 285 892 306 q 817 233 835 265 q 800 158 800 201 m 897 172 q 912 222 897 200 q 949 257 926 244 q 997 269 971 269 q 1046 257 1024 269 q 1082 222 1068 244 q 1096 172 1096 200 q 1066 99 1096 124 q 997 74 1036 74 q 928 99 958 74 q 897 172 897 124 z "},"⅝":{"ha":1274,"x_min":39,"x_max":1232,"o":"m 963 972 l 240 0 l 361 0 l 1083 972 l 963 972 m 472 576 q 449 678 472 635 q 386 747 426 722 q 297 771 346 771 q 221 757 258 771 q 153 710 183 743 l 89 649 q 169 685 133 676 q 243 694 204 694 q 331 665 294 694 q 367 582 367 636 q 334 499 367 529 q 243 468 301 468 q 163 493 203 468 q 96 553 122 518 l 39 481 q 124 408 72 439 q 256 376 175 376 q 362 398 313 376 q 442 465 411 419 q 472 576 472 510 m 240 883 l 467 883 l 467 969 l 167 969 l 89 649 l 196 721 l 240 883 m 860 443 q 883 362 860 396 q 947 310 907 328 q 1035 292 988 292 q 1124 310 1083 292 q 1188 362 1164 328 q 1211 443 1211 396 q 1188 522 1211 488 q 1124 575 1164 556 q 1035 594 1085 594 q 947 575 986 594 q 883 522 907 556 q 860 443 860 488 m 954 433 q 977 492 954 469 q 1035 515 1000 515 q 1094 492 1071 515 q 1117 433 1117 469 q 1106 390 1117 408 q 1077 360 1096 371 q 1035 350 1058 350 q 994 360 1013 350 q 965 390 976 371 q 954 433 954 408 m 839 158 q 865 72 839 111 q 937 12 892 33 q 1035 -10 982 -10 q 1135 12 1090 -10 q 1206 72 1179 33 q 1232 158 1232 111 q 1215 233 1232 201 q 1170 285 1199 265 q 1106 317 1142 306 q 1035 328 1071 328 q 964 317 999 328 q 901 285 929 306 q 856 233 872 265 q 839 158 839 201 m 936 172 q 950 222 936 200 q 987 257 964 244 q 1035 269 1010 269 q 1083 257 1061 269 q 1120 222 1106 244 q 1135 172 1135 200 q 1105 99 1135 124 q 1035 74 1075 74 q 967 99 997 74 q 936 172 936 124 z "},"⅞":{"ha":1121,"x_min":38,"x_max":1079,"o":"m 806 972 l 83 0 l 206 0 l 928 972 l 806 972 m 38 879 l 328 879 l 89 389 l 193 389 l 474 972 l 38 972 l 38 879 m 707 443 q 731 362 707 396 q 794 310 754 328 q 882 292 835 292 q 971 310 931 292 q 1035 362 1011 328 q 1058 443 1058 396 q 1035 522 1058 488 q 972 575 1011 556 q 882 594 932 594 q 794 575 833 594 q 731 522 754 556 q 707 443 707 488 m 801 433 q 824 492 801 469 q 882 515 847 515 q 941 492 918 515 q 964 433 964 469 q 953 390 964 408 q 924 360 943 371 q 882 350 906 350 q 842 360 860 350 q 813 390 824 371 q 801 433 801 408 m 686 158 q 713 72 686 111 q 784 12 739 33 q 882 -10 829 -10 q 982 12 938 -10 q 1053 72 1026 33 q 1079 158 1079 111 q 1063 233 1079 201 q 1017 285 1046 265 q 953 317 989 306 q 882 328 918 328 q 811 317 846 328 q 748 285 776 306 q 703 233 719 265 q 686 158 686 201 m 783 172 q 797 222 783 200 q 834 257 811 244 q 882 269 857 269 q 931 257 908 269 q 967 222 953 244 q 982 172 982 200 q 952 99 982 124 q 882 74 922 74 q 814 99 844 74 q 783 172 783 124 z "},"_":{"ha":713,"x_min":0,"x_max":713,"o":"m 0 -196 l 713 -196 l 713 -97 l 0 -97 l 0 -196 z "},"-":{"ha":299,"x_min":7,"x_max":292,"o":"m 7 263 l 292 263 l 292 397 l 7 397 l 7 263 z "},"‐":{"ha":299,"x_min":7,"x_max":292,"o":"m 7 263 l 292 263 l 292 397 l 7 397 l 7 263 z "},"‒":{"ha":840,"x_min":97,"x_max":738,"o":"m 97 263 l 738 263 l 738 397 l 97 397 l 97 263 z "},"–":{"ha":1053,"x_min":97,"x_max":951,"o":"m 97 263 l 951 263 l 951 397 l 97 397 l 97 263 z "},"—":{"ha":1264,"x_min":97,"x_max":1165,"o":"m 97 263 l 1165 263 l 1165 397 l 97 397 l 97 263 z "},"(":{"ha":449,"x_min":113,"x_max":415,"o":"m 276 1083 q 153 754 193 928 q 113 403 113 581 q 153 53 113 226 q 276 -278 193 -121 l 415 -278 q 307 53 343 -121 q 271 403 271 226 q 307 754 271 581 q 415 1083 343 928 l 276 1083 z "},")":{"ha":449,"x_min":33,"x_max":335,"o":"m 172 -278 q 295 53 256 -121 q 335 403 335 226 q 295 754 335 581 q 172 1083 256 928 l 33 1083 q 142 754 107 928 q 178 403 178 581 q 142 53 178 226 q 33 -278 107 -121 l 172 -278 z "},"[":{"ha":451,"x_min":133,"x_max":424,"o":"m 283 949 l 424 949 l 424 1083 l 133 1083 l 133 -306 l 424 -306 l 424 -169 l 283 -169 l 283 949 z "},"]":{"ha":451,"x_min":28,"x_max":318,"o":"m 168 -169 l 28 -169 l 28 -306 l 318 -306 l 318 1083 l 28 1083 l 28 949 l 168 949 l 168 -169 z "},"{":{"ha":481,"x_min":63,"x_max":411,"o":"m 296 889 q 314 938 296 917 q 363 958 332 958 l 411 958 l 411 1083 l 311 1083 q 229 1063 269 1083 q 163 1001 189 1043 q 136 889 136 958 l 136 611 q 118 501 136 532 q 63 458 100 469 l 63 347 q 118 306 100 338 q 136 194 136 274 l 136 -83 q 163 -194 136 -151 q 229 -258 189 -237 q 311 -278 269 -278 l 411 -278 l 411 -153 l 363 -153 q 314 -131 332 -153 q 296 -83 296 -110 l 296 125 q 292 222 296 171 q 272 317 288 274 q 220 389 256 361 q 122 417 185 417 l 122 389 q 220 417 185 389 q 272 488 256 444 q 292 583 288 532 q 296 681 296 635 l 296 889 z "},"}":{"ha":481,"x_min":79,"x_max":428,"o":"m 194 -83 q 177 -131 194 -110 q 128 -153 160 -153 l 79 -153 l 79 -278 l 179 -278 q 261 -258 221 -278 q 328 -194 301 -237 q 354 -83 354 -151 l 354 194 q 373 306 354 274 q 428 347 392 338 l 428 458 q 373 501 392 469 q 354 611 354 532 l 354 889 q 328 1001 354 958 q 261 1063 301 1043 q 179 1083 221 1083 l 79 1083 l 79 958 l 128 958 q 177 938 160 958 q 194 889 194 917 l 194 681 q 198 583 194 635 q 218 488 201 532 q 270 417 235 444 q 368 389 306 389 l 368 417 q 270 389 306 417 q 218 317 235 361 q 198 222 201 274 q 194 125 194 171 l 194 -83 z "},"#":{"ha":875,"x_min":49,"x_max":826,"o":"m 104 596 l 296 596 l 322 599 l 596 599 l 624 596 l 826 596 l 826 717 l 104 717 l 104 596 m 49 263 l 771 263 l 771 383 l 596 383 l 563 381 l 268 381 l 236 383 l 49 383 l 49 263 m 643 972 l 568 669 l 565 639 l 493 344 l 482 315 l 407 0 l 542 0 l 778 972 l 643 972 m 333 972 l 97 0 l 233 0 l 310 314 l 313 343 l 385 642 l 396 674 l 469 972 l 333 972 z "},"%":{"ha":1138,"x_min":42,"x_max":1096,"o":"m 42 756 q 72 637 42 690 q 156 551 101 583 q 278 519 210 519 q 402 551 349 519 q 485 637 456 583 q 515 756 515 690 q 485 874 515 821 q 402 960 456 928 q 278 992 349 992 q 156 960 210 992 q 72 874 101 928 q 42 756 42 821 m 171 756 q 184 814 171 788 q 222 856 197 840 q 278 871 246 871 q 336 856 313 871 q 374 814 360 840 q 388 756 388 788 q 374 698 388 725 q 336 655 360 671 q 278 639 313 639 q 222 655 246 639 q 184 698 197 671 q 171 756 171 725 m 622 218 q 652 99 622 153 q 736 13 682 44 q 858 -18 790 -18 q 982 13 929 -18 q 1065 99 1035 44 q 1096 218 1096 153 q 1065 337 1096 283 q 982 422 1035 390 q 858 454 929 454 q 736 422 790 454 q 652 337 682 390 q 622 218 622 283 m 750 218 q 763 276 750 250 q 801 317 776 301 q 858 333 825 333 q 917 317 893 333 q 953 275 940 301 q 967 218 967 249 q 953 160 967 188 q 917 117 940 133 q 858 101 893 101 q 801 117 825 101 q 763 160 776 133 q 750 218 750 188 m 831 972 l 157 0 l 307 0 l 981 972 l 831 972 z "},"‰":{"ha":1707,"x_min":42,"x_max":1665,"o":"m 1192 218 q 1222 99 1192 153 q 1306 13 1251 44 q 1428 -18 1360 -18 q 1551 13 1499 -18 q 1635 99 1604 44 q 1665 218 1665 153 q 1635 337 1665 283 q 1551 422 1604 390 q 1428 454 1499 454 q 1306 422 1360 454 q 1222 337 1251 390 q 1192 218 1192 283 m 1319 218 q 1333 276 1319 250 q 1370 317 1346 301 q 1428 333 1394 333 q 1486 317 1463 333 q 1523 275 1510 301 q 1536 218 1536 249 q 1523 160 1536 188 q 1486 117 1510 133 q 1428 101 1463 101 q 1370 117 1394 101 q 1333 160 1346 133 q 1319 218 1319 188 m 42 756 q 72 637 42 690 q 156 551 101 583 q 278 519 210 519 q 402 551 349 519 q 485 637 456 583 q 515 756 515 690 q 485 874 515 821 q 402 960 456 928 q 278 992 349 992 q 156 960 210 992 q 72 874 101 928 q 42 756 42 821 m 171 756 q 184 814 171 788 q 222 856 197 840 q 278 871 246 871 q 336 856 313 871 q 374 814 360 840 q 388 756 388 788 q 374 698 388 725 q 336 655 360 671 q 278 639 313 639 q 222 655 246 639 q 184 698 197 671 q 171 756 171 725 m 622 218 q 652 99 622 153 q 736 13 682 44 q 858 -18 790 -18 q 982 13 929 -18 q 1065 99 1035 44 q 1096 218 1096 153 q 1065 337 1096 283 q 982 422 1035 390 q 858 454 929 454 q 736 422 790 454 q 652 337 682 390 q 622 218 622 283 m 750 218 q 763 276 750 250 q 801 317 776 301 q 858 333 825 333 q 917 317 893 333 q 953 275 940 301 q 967 218 967 249 q 953 160 967 188 q 917 117 940 133 q 858 101 893 101 q 801 117 825 101 q 763 160 776 133 q 750 218 750 188 m 831 972 l 157 0 l 307 0 l 981 972 l 831 972 z "},"‱":{"ha":2276,"x_min":42,"x_max":2235,"o":"m 1761 218 q 1791 99 1761 153 q 1875 13 1821 44 q 1997 -18 1929 -18 q 2121 13 2068 -18 q 2204 99 2174 44 q 2235 218 2235 153 q 2204 337 2235 283 q 2121 422 2174 390 q 1997 454 2068 454 q 1875 422 1929 454 q 1791 337 1821 390 q 1761 218 1761 283 m 1889 218 q 1902 276 1889 250 q 1940 317 1915 301 q 1997 333 1964 333 q 2056 317 2032 333 q 2092 275 2079 301 q 2106 218 2106 249 q 2092 160 2106 188 q 2056 117 2079 133 q 1997 101 2032 101 q 1940 117 1964 101 q 1902 160 1915 133 q 1889 218 1889 188 m 1192 218 q 1222 99 1192 153 q 1306 13 1251 44 q 1428 -18 1360 -18 q 1551 13 1499 -18 q 1635 99 1604 44 q 1665 218 1665 153 q 1635 337 1665 283 q 1551 422 1604 390 q 1428 454 1499 454 q 1306 422 1360 454 q 1222 337 1251 390 q 1192 218 1192 283 m 1319 218 q 1333 276 1319 250 q 1370 317 1346 301 q 1428 333 1394 333 q 1486 317 1463 333 q 1523 275 1510 301 q 1536 218 1536 249 q 1523 160 1536 188 q 1486 117 1510 133 q 1428 101 1463 101 q 1370 117 1394 101 q 1333 160 1346 133 q 1319 218 1319 188 m 42 756 q 72 637 42 690 q 156 551 101 583 q 278 519 210 519 q 402 551 349 519 q 485 637 456 583 q 515 756 515 690 q 485 874 515 821 q 402 960 456 928 q 278 992 349 992 q 156 960 210 992 q 72 874 101 928 q 42 756 42 821 m 171 756 q 184 814 171 788 q 222 856 197 840 q 278 871 246 871 q 336 856 313 871 q 374 814 360 840 q 388 756 388 788 q 374 698 388 725 q 336 655 360 671 q 278 639 313 639 q 222 655 246 639 q 184 698 197 671 q 171 756 171 725 m 622 218 q 652 99 622 153 q 736 13 682 44 q 858 -18 790 -18 q 982 13 929 -18 q 1065 99 1035 44 q 1096 218 1096 153 q 1065 337 1096 283 q 982 422 1035 390 q 858 454 929 454 q 736 422 790 454 q 652 337 682 390 q 622 218 622 283 m 750 218 q 763 276 750 250 q 801 317 776 301 q 858 333 825 333 q 917 317 893 333 q 953 275 940 301 q 967 218 967 249 q 953 160 967 188 q 917 117 940 133 q 858 101 893 101 q 801 117 825 101 q 763 160 776 133 q 750 218 750 188 m 831 972 l 157 0 l 307 0 l 981 972 l 831 972 z "},"'":{"ha":408,"x_min":101,"x_max":335,"o":"m 167 972 l 101 546 l 201 546 l 335 972 l 167 972 z "},"\"":{"ha":675,"x_min":101,"x_max":603,"o":"m 167 972 l 101 546 l 201 546 l 335 972 l 167 972 m 435 972 l 368 546 l 469 546 l 603 972 l 435 972 z "},"‘":{"ha":414,"x_min":97,"x_max":344,"o":"m 264 639 l 344 972 l 238 972 l 97 639 l 264 639 z "},"’":{"ha":414,"x_min":69,"x_max":317,"o":"m 150 972 l 69 639 l 175 639 l 317 972 l 150 972 z "},"“":{"ha":708,"x_min":97,"x_max":639,"o":"m 264 639 l 344 972 l 238 972 l 97 639 l 264 639 m 560 639 l 639 972 l 533 972 l 393 639 l 560 639 z "},"”":{"ha":708,"x_min":69,"x_max":611,"o":"m 150 972 l 69 639 l 175 639 l 317 972 l 150 972 m 444 972 l 365 639 l 471 639 l 611 972 l 444 972 z "},"‚":{"ha":414,"x_min":83,"x_max":331,"o":"m 164 111 l 83 -222 l 189 -222 l 331 111 l 164 111 z "},"„":{"ha":708,"x_min":69,"x_max":611,"o":"m 150 111 l 69 -222 l 175 -222 l 317 111 l 150 111 m 444 111 l 365 -222 l 471 -222 l 611 111 l 444 111 z "},"‹":{"ha":486,"x_min":49,"x_max":400,"o":"m 192 360 l 400 618 l 306 692 l 49 354 l 306 18 l 400 90 l 192 360 z "},"›":{"ha":486,"x_min":88,"x_max":438,"o":"m 296 349 l 88 90 l 181 18 l 438 354 l 181 692 l 88 618 l 296 349 z "},"«":{"ha":726,"x_min":49,"x_max":646,"o":"m 438 360 l 646 618 l 553 692 l 296 354 l 553 18 l 646 90 l 438 360 m 192 360 l 400 618 l 306 692 l 49 354 l 306 18 l 400 90 l 192 360 z "},"»":{"ha":726,"x_min":81,"x_max":678,"o":"m 289 349 l 81 90 l 174 18 l 431 354 l 174 692 l 81 618 l 289 349 m 535 349 l 326 90 l 421 18 l 678 354 l 421 692 l 326 618 l 535 349 z "},"*":{"ha":822,"x_min":111,"x_max":711,"o":"m 669 835 l 399 719 l 425 639 l 711 706 l 669 835 m 639 482 l 444 704 l 378 654 l 529 403 l 639 482 m 294 403 l 444 654 l 378 704 l 183 482 l 294 403 m 111 706 l 399 639 l 425 719 l 153 835 l 111 706 m 343 972 l 369 679 l 453 679 l 479 972 l 343 972 z "},"†":{"ha":826,"x_min":125,"x_max":701,"o":"m 125 750 l 125 618 l 701 618 l 701 750 l 125 750 m 340 972 l 340 -208 l 486 -208 l 486 972 l 340 972 z "},"‡":{"ha":826,"x_min":125,"x_max":701,"o":"m 125 188 l 125 56 l 701 56 l 701 188 l 125 188 m 125 750 l 125 618 l 701 618 l 701 750 l 125 750 m 340 972 l 340 -208 l 486 -208 l 486 972 l 340 972 z "},".":{"ha":429,"x_min":117,"x_max":313,"o":"m 117 71 q 145 3 117 32 q 215 -26 174 -26 q 285 3 257 -26 q 313 71 313 32 q 285 140 313 111 q 215 168 257 168 q 145 140 174 168 q 117 71 117 111 z "},",":{"ha":436,"x_min":68,"x_max":342,"o":"m 190 153 l 68 -207 l 179 -237 l 342 110 l 190 153 z "},":":{"ha":429,"x_min":117,"x_max":313,"o":"m 117 71 q 145 3 117 32 q 215 -26 174 -26 q 285 3 257 -26 q 313 71 313 32 q 285 140 313 111 q 215 168 257 168 q 145 140 174 168 q 117 71 117 111 m 117 596 q 145 528 117 557 q 215 499 174 499 q 285 528 257 499 q 313 596 313 557 q 285 665 313 636 q 215 693 257 693 q 145 665 174 693 q 117 596 117 636 z "},";":{"ha":493,"x_min":81,"x_max":367,"o":"m 171 592 q 199 524 171 553 q 268 494 228 494 q 339 524 311 494 q 367 592 367 553 q 339 660 367 632 q 268 689 311 689 q 199 660 228 689 q 171 592 171 632 m 203 153 l 81 -207 l 192 -237 l 353 110 l 203 153 z "},"…":{"ha":1264,"x_min":117,"x_max":1146,"o":"m 117 71 q 145 3 117 32 q 215 -26 174 -26 q 285 3 257 -26 q 313 71 313 32 q 285 140 313 111 q 215 168 257 168 q 145 140 174 168 q 117 71 117 111 m 533 71 q 562 3 533 32 q 632 -26 590 -26 q 701 3 674 -26 q 729 71 729 32 q 701 140 729 111 q 632 168 674 168 q 562 140 590 168 q 533 71 533 111 m 950 71 q 978 3 950 32 q 1049 -26 1007 -26 q 1118 3 1090 -26 q 1146 71 1146 32 q 1118 140 1146 111 q 1049 168 1090 168 q 978 140 1007 168 q 950 71 950 111 z "},"!":{"ha":442,"x_min":122,"x_max":319,"o":"m 126 972 l 161 296 l 279 296 l 314 972 l 126 972 m 122 68 q 151 1 122 29 q 221 -26 179 -26 q 291 1 263 -26 q 319 68 319 29 q 291 135 319 108 q 221 161 263 161 q 151 135 179 161 q 122 68 122 108 z "},"¡":{"ha":442,"x_min":122,"x_max":319,"o":"m 314 -332 l 279 346 l 161 346 l 126 -332 l 314 -332 m 319 574 q 291 640 319 614 q 221 667 263 667 q 151 640 179 667 q 122 574 122 614 q 151 506 122 533 q 221 479 179 479 q 291 506 263 479 q 319 574 319 533 z "},"?":{"ha":813,"x_min":76,"x_max":733,"o":"m 581 694 q 551 603 581 649 q 463 528 521 558 q 322 499 406 499 l 283 499 l 311 254 l 429 254 l 438 400 q 581 447 514 408 q 691 550 649 486 q 733 694 733 614 q 708 815 733 761 q 637 909 682 869 q 534 970 592 949 q 410 992 476 992 q 267 971 328 992 q 161 912 207 950 q 76 822 115 874 l 188 740 q 275 827 222 796 q 396 858 328 858 q 494 839 453 858 q 558 783 536 819 q 581 694 581 747 m 274 67 q 302 1 274 29 q 372 -26 331 -26 q 442 1 414 -26 q 469 67 469 29 q 442 131 469 104 q 372 158 414 158 q 302 131 331 158 q 274 67 274 104 z "},"¿":{"ha":813,"x_min":81,"x_max":736,"o":"m 232 278 q 262 369 232 324 q 349 444 292 414 q 490 474 407 474 l 531 474 l 503 719 l 385 719 l 376 572 q 233 526 300 565 q 123 424 165 488 q 81 278 81 361 q 106 157 81 211 q 176 63 131 103 q 279 2 221 24 q 404 -19 338 -19 q 547 1 488 -19 q 652 60 607 22 q 736 151 697 99 l 625 232 q 538 147 590 178 q 418 115 485 115 q 319 134 360 115 q 255 190 278 153 q 232 278 232 226 m 539 907 q 511 972 539 944 q 442 999 483 999 q 372 972 400 999 q 343 907 343 944 q 372 842 343 869 q 442 814 400 814 q 511 842 483 814 q 539 907 539 869 z "},"/":{"ha":768,"x_min":21,"x_max":747,"o":"m 599 972 l 21 -208 l 172 -208 l 747 972 l 599 972 z "},"\\":{"ha":733,"x_min":21,"x_max":713,"o":"m 21 972 l 560 0 l 713 0 l 174 972 l 21 972 z "},"⁄":{"ha":993,"x_min":83,"x_max":928,"o":"m 806 972 l 83 0 l 206 0 l 928 972 l 806 972 z "},"|":{"ha":425,"x_min":139,"x_max":286,"o":"m 139 1090 l 139 -299 l 286 -299 l 286 1090 l 139 1090 z "},"¦":{"ha":425,"x_min":139,"x_max":286,"o":"m 139 965 l 139 618 l 286 618 l 286 965 l 139 965 m 286 354 l 139 354 l 139 7 l 286 7 l 286 354 z "}}}
